<svg xmlns="http://www.w3.org/2000/svg" xmlns:xlink="http://www.w3.org/1999/xlink" viewBox="0 0 3349.39 1428.21"><defs><style>.cls-1,.cls-11,.cls-12,.cls-14,.cls-16,.cls-18,.cls-21,.cls-4,.cls-6{fill:none;}.cls-2{fill:#eaf9f3;}.cls-3{clip-path:url(#clip-path);}.cls-4,.cls-6{stroke:#88b4e2;}.cls-11,.cls-12,.cls-14,.cls-16,.cls-18,.cls-21,.cls-4,.cls-6{stroke-linecap:round;stroke-linejoin:round;}.cls-11,.cls-12,.cls-14,.cls-16,.cls-18,.cls-4{stroke-width:1.8px;}.cls-5{fill:#88b4e2;}.cls-6{stroke-width:1.8px;}.cls-7{fill:#5083b9;}.cls-8{fill:#fda53a;}.cls-9{fill:#22272e;}.cls-10{fill:#63737a;}.cls-11{stroke:#63737a;}.cls-12{stroke:#fda53a;}.cls-13{fill:#f4c2c9;}.cls-14{stroke:#e26e85;}.cls-15{fill:#fff;}.cls-16{stroke:#5083b9;}.cls-17{fill:#f8ab5d;}.cls-18,.cls-21{stroke:#22272e;}.cls-19{clip-path:url(#clip-path-3);}.cls-20{fill:#e26e85;}.cls-21{stroke-width:1.8px;}</style><clipPath id="clip-path" transform="translate(724.13)"><path class="cls-1" d="M1627.17,1198.64l-1429.65-41a132.19,132.19,0,0,1-127.85-119L.67,356.8C-7,279.54,52.9,212.18,130.44,211.08l1591.31-22c80.28-1.1,143.24,69,133.34,148.74l-92.65,744.79A132.69,132.69,0,0,1,1627.17,1198.64Z"/></clipPath><clipPath id="clip-path-3" transform="translate(724.13)"><path class="cls-1" d="M881.28,509.94s-59.39,3.29-94,15.67-28.32,39.86-32.72,68.73c-4.67,28.87-32.71,58.29-18.42,97.6s28.32,61.59,20.9,91.83c-7.15,30.24-14.3,45.36-13.2,53.89,1.38,8.52,40.69,34.64,55.81,39.86s44.54-15.67,44.54-15.67,15.12,19.8,37.12,24.19c22,4.68,111.07-18.42,131.42-41.24,0,0-13.2-25.56-13.75-56.36s17.32-69,23.92-90.18c6.32-21.17,43.71-102.82,29.14-130C1041.56,548.7,963.48,504.71,881.28,509.94Z"/></clipPath></defs><g id="Layer_2" data-name="Layer 2"><g id="illustration"><path class="cls-2" d="M1627.17,1198.64l-1429.65-41a132.19,132.19,0,0,1-127.85-119L.67,356.8C-7,279.54,52.9,212.18,130.44,211.08l1591.31-22c80.28-1.1,143.24,69,133.34,148.74l-92.65,744.79A132.69,132.69,0,0,1,1627.17,1198.64Z" transform="translate(724.13)"/><g class="cls-3"><path class="cls-4" d="M460.36,1322.36H-682a41.18,41.18,0,0,1-41.24-41.24v-648A41.18,41.18,0,0,1-682,591.87H460.36a41.19,41.19,0,0,1,41.24,41.24v648A41.19,41.19,0,0,1,460.36,1322.36Z" transform="translate(724.13)"/><path class="cls-4" d="M1970,1278.92H817.77a41.18,41.18,0,0,1-41.24-41.24V291.09a41.18,41.18,0,0,1,41.24-41.24H1970a41.18,41.18,0,0,1,41.24,41.24v946.59A41.18,41.18,0,0,1,1970,1278.92Z" transform="translate(724.13)"/><path class="cls-4" d="M186.52,398.59H-60.64V374.12H186.52a4.93,4.93,0,0,1,4.95,4.95v14.29A5,5,0,0,1,186.52,398.59Z" transform="translate(724.13)"/><path class="cls-4" d="M141.71,374.12H85.9a11.89,11.89,0,0,1-11.83-10.45l-4.4-39.59a11.93,11.93,0,0,1,11.83-13.2h64.61c7.14,0,12.37,6.05,11.82,13.2l-4.4,39.59A12.12,12.12,0,0,1,141.71,374.12Z" transform="translate(724.13)"/><path class="cls-5" d="M107.07,310.88s-22-2.2-26.4-31.89c0,0,19.8,5.78,26.12,19.8,0,0,2.75-31.35,17.6-34.37,0,0,6.6,23.37-3.85,34.92,0,0,8-13.2,28.32-12.93,0,0-5.23,18.7-25.3,24.2" transform="translate(724.13)"/><path class="cls-4" d="M451.56,728.78h-248A11.61,11.61,0,0,1,192,717.24V641.9a11.61,11.61,0,0,1,11.55-11.54h248A11.61,11.61,0,0,1,463.1,641.9v75.34A11.26,11.26,0,0,1,451.56,728.78Z" transform="translate(724.13)"/><path class="cls-5" d="M356.16,656.75H299a4.22,4.22,0,0,1-4.12-4.12h0A4.23,4.23,0,0,1,299,648.5h57.19a4.23,4.23,0,0,1,4.12,4.13h0A4.22,4.22,0,0,1,356.16,656.75Z" transform="translate(724.13)"/><path class="cls-4" d="M451.56,854.7h-248A11.61,11.61,0,0,1,192,843.15V767.82a11.61,11.61,0,0,1,11.55-11.54h248a11.61,11.61,0,0,1,11.54,11.54v75.33A11.26,11.26,0,0,1,451.56,854.7Z" transform="translate(724.13)"/><path class="cls-5" d="M356.16,782.67H299a4.23,4.23,0,0,1-4.12-4.12h0a4.23,4.23,0,0,1,4.12-4.13h57.19a4.23,4.23,0,0,1,4.12,4.13h0A4,4,0,0,1,356.16,782.67Z" transform="translate(724.13)"/><path class="cls-4" d="M1725.05,943.51h-248A11.63,11.63,0,0,1,1465.51,932V856.63a11.62,11.62,0,0,1,11.55-11.55h248a11.62,11.62,0,0,1,11.55,11.55V932A11.28,11.28,0,0,1,1725.05,943.51Z" transform="translate(724.13)"/><path class="cls-5" d="M1629.65,871.75h-57.19a4.23,4.23,0,0,1-4.12-4.13h0a4.22,4.22,0,0,1,4.12-4.12h57.19a4.22,4.22,0,0,1,4.12,4.12h0A4.23,4.23,0,0,1,1629.65,871.75Z" transform="translate(724.13)"/><path class="cls-4" d="M1406.68,943.51h-248A11.62,11.62,0,0,1,1147.14,932V856.63a11.61,11.61,0,0,1,11.55-11.55h248a11.61,11.61,0,0,1,11.54,11.55V932A11.62,11.62,0,0,1,1406.68,943.51Z" transform="translate(724.13)"/><path class="cls-5" d="M1311.27,871.75h-57.18a4.24,4.24,0,0,1-4.13-4.13h0a4.23,4.23,0,0,1,4.13-4.12h57.18a4.23,4.23,0,0,1,4.13,4.12h0A4.24,4.24,0,0,1,1311.27,871.75Z" transform="translate(724.13)"/><path class="cls-4" d="M135.38,728.78h-248a11.61,11.61,0,0,1-11.54-11.54V641.9a11.61,11.61,0,0,1,11.54-11.54h248a11.61,11.61,0,0,1,11.55,11.54v75.34A11.27,11.27,0,0,1,135.38,728.78Z" transform="translate(724.13)"/><path class="cls-5" d="M40,656.75H-17.2a4.23,4.23,0,0,1-4.13-4.12h0a4.24,4.24,0,0,1,4.13-4.13H40a4.24,4.24,0,0,1,4.13,4.13h0A4,4,0,0,1,40,656.75Z" transform="translate(724.13)"/><path class="cls-4" d="M135.38,854.7h-248a11.61,11.61,0,0,1-11.54-11.55V767.82a11.61,11.61,0,0,1,11.54-11.54h248a11.61,11.61,0,0,1,11.55,11.54v75.33A11.27,11.27,0,0,1,135.38,854.7Z" transform="translate(724.13)"/><path class="cls-5" d="M40,782.67H-17.2a4.24,4.24,0,0,1-4.13-4.12h0a4.24,4.24,0,0,1,4.13-4.13H40a4.24,4.24,0,0,1,4.13,4.13h0A3.9,3.9,0,0,1,40,782.67Z" transform="translate(724.13)"/><path class="cls-4" d="M2086,538H835.09a12.8,12.8,0,0,1-12.65-12.65V306.21a12.8,12.8,0,0,1,12.65-12.65H2086a12.79,12.79,0,0,1,12.64,12.65V525.33A12.61,12.61,0,0,1,2086,538Z" transform="translate(724.13)"/><path class="cls-4" d="M2086,809.89H835.09a12.8,12.8,0,0,1-12.65-12.65V578.12a12.8,12.8,0,0,1,12.65-12.65H2086a12.79,12.79,0,0,1,12.64,12.65V797.24A12.44,12.44,0,0,1,2086,809.89Z" transform="translate(724.13)"/><rect class="cls-4" x="1630.98" y="399.69" width="27.22" height="138.29"/><rect class="cls-4" x="1657.92" y="437.35" width="28.32" height="100.63"/><rect class="cls-4" x="2451.11" y="671.32" width="27.22" height="138.29"/><rect class="cls-4" x="2478.32" y="708.99" width="28.32" height="100.63"/><rect class="cls-4" x="2395.84" y="671.32" width="27.22" height="138.29"/><rect class="cls-6" x="1569.16" y="724.7" width="138.29" height="27.22" transform="translate(1165.1 2078.28) rotate(-72.48)"/><rect class="cls-4" x="2423.06" y="708.99" width="28.32" height="100.63"/><rect class="cls-4" x="2084.07" y="399.69" width="27.22" height="138.29"/><rect class="cls-4" x="2111.29" y="437.35" width="28.32" height="100.63"/><rect class="cls-4" x="1815.19" y="399.69" width="27.22" height="138.29"/><rect class="cls-6" x="988.48" y="453.02" width="138.29" height="27.22" transform="translate(1018.34 1334.68) rotate(-72.48)"/><rect class="cls-4" x="1842.4" y="437.35" width="28.32" height="100.63"/><path class="cls-5" d="M1753.92,417.83l3-41a4.54,4.54,0,0,0-4.67-4.95h-23.65a4.7,4.7,0,0,0-4.67,4.95l3,41s-24.74,15.95-24.47,29.15c.28,10.17,6.33,58.83,9.08,80.28a11.87,11.87,0,0,0,11.82,10.44h34.09a11.87,11.87,0,0,0,11.82-10.44c2.75-21.45,8.8-70.11,9.08-80.28C1778.66,433.5,1753.92,417.83,1753.92,417.83Z" transform="translate(724.13)"/><path class="cls-5" d="M1644.22,417.83l3-41a4.54,4.54,0,0,0-4.67-4.95h-23.65a4.71,4.71,0,0,0-4.67,4.95l3,41s-24.75,15.95-24.47,29.15c.27,10.17,6.32,58.83,9.07,80.28a11.87,11.87,0,0,0,11.82,10.44h34.09a11.87,11.87,0,0,0,11.82-10.44c2.75-21.45,8.8-70.11,9.08-80.28C1669,433.5,1644.22,417.83,1644.22,417.83Z" transform="translate(724.13)"/><line class="cls-4" x1="720.68" y1="1069.42" x2="3348.49" y2="1069.42"/></g><g class="cls-3"><polygon class="cls-5" points="962.34 1097.47 962.34 1428.21 984.61 1428.21 991.76 1097.47 962.34 1097.47"/><polygon class="cls-7" points="991.76 1097.47 962.34 1097.47 962.34 1133.48 990.93 1133.48 991.76 1097.47"/><polygon class="cls-5" points="2283.4 1097.47 2283.4 1428.21 2260.85 1428.21 2253.98 1097.47 2283.4 1097.47"/><polygon class="cls-7" points="2253.98 1097.47 2283.4 1097.47 2283.4 1133.48 2254.8 1133.48 2253.98 1097.47"/><polygon class="cls-8" points="2378.52 1084 867.22 1084 1028.05 1013.61 2217.41 1013.61 2378.52 1084"/><rect class="cls-5" x="867.22" y="1084" width="1511.31" height="21.17"/></g><path class="cls-9" d="M321.51,922.06,286.6,942.13A10.94,10.94,0,0,1,271.48,938L171.4,765.35a11,11,0,0,1,4.12-15.12l34.92-20.07a11,11,0,0,1,15.12,4.12L325.64,906.94A11.19,11.19,0,0,1,321.51,922.06Z" transform="translate(724.13)"/><path class="cls-10" d="M297,897.59a11.08,11.08,0,1,0-4.12,15.12A11.19,11.19,0,0,0,297,897.59Z" transform="translate(724.13)"/><line class="cls-11" x1="975.26" y1="870.1" x2="1000.83" y2="855.25"/><line class="cls-11" x1="968.12" y1="858" x2="993.96" y2="843.15"/><path class="cls-8" d="M374.3,804.11l-22.54,95.41c-.83,2.75,12.37,9.62,30,15.67,17.33,6,32.45,8.8,33.27,6.32l41.52-88.8Z" transform="translate(724.13)"/><path class="cls-12" d="M435.06,856.63l15.4,5.22a11.72,11.72,0,0,1,6.6,16.5l-12.93,24.74a11.65,11.65,0,0,1-14.29,5.5l-16.77-5.77" transform="translate(724.13)"/><path class="cls-7" d="M456.51,833c-1.1,3.3-20.62-.27-43.17-8.25-22.82-8-40.14-17-39-20.62,1.1-3.3,20.62.28,43.17,8.25C440.29,820.34,457.61,829.41,456.51,833Z" transform="translate(724.13)"/><path class="cls-10" d="M602.77,337.55,287.42,421.13a19.25,19.25,0,0,1-24.19-16.49L223.91,64.54c-.82-8.24,5.78-15.39,14-14.57L558.51,72.24a19.32,19.32,0,0,1,17.87,16.5L612.12,323C613.49,329.3,609.09,335.9,602.77,337.55Z" transform="translate(724.13)"/><path class="cls-9" d="M617.34,338.65,298.69,423.06a19.67,19.67,0,0,1-24.46-16.77L234.64,62.62a13.43,13.43,0,0,1,14.29-14.85L573.08,70a19.61,19.61,0,0,1,18.14,16.5l36.3,236.72C628.06,330.4,623.94,336.73,617.34,338.65Z" transform="translate(724.13)"/><path class="cls-7" d="M368,112.93l-77.81-1.1a3,3,0,0,1-3-2.75l-1.1-8.8a3.19,3.19,0,0,1,3-3.57l78.08,2.2a3,3,0,0,1,3,2.75l1.1,8A3.35,3.35,0,0,1,368,112.93Z" transform="translate(724.13)"/><line class="cls-11" x1="1015.13" y1="142.07" x2="1165.79" y2="140.15"/><line class="cls-11" x1="1018.98" y1="172.59" x2="1114.38" y2="168.74"/><path class="cls-8" d="M330.59,360.65l-9.08,1.92a3.32,3.32,0,0,1-4.12-3l-9.07-76.16a3.42,3.42,0,0,1,3-3.85l9.07-1.37a3.41,3.41,0,0,1,3.85,3l9.35,75.61C333.34,358.72,332.24,360.37,330.59,360.65Z" transform="translate(724.13)"/><path class="cls-7" d="M362.75,349.92,347.63,229a3.43,3.43,0,0,1,3-3.85l7.7-.82a3,3,0,0,1,3.57,3l15.12,119.87A3.51,3.51,0,0,1,374.3,351l-8,1.65C365,353.22,363,351.85,362.75,349.92Z" transform="translate(724.13)"/><path class="cls-8" d="M404.82,340.85l-5.77-44.54a3.42,3.42,0,0,1,2.74-3.85l6.6-1.1a3.42,3.42,0,0,1,3.85,3L418,338.65a3.53,3.53,0,0,1-2.75,3.85l-6.6,1.38A3.28,3.28,0,0,1,404.82,340.85Z" transform="translate(724.13)"/><path class="cls-13" d="M453.21,334.25l-5.78,1.1a3.3,3.3,0,0,1-4.12-2.75L440,308.68a3.42,3.42,0,0,1,2.75-3.84l5.77-1.1a3.28,3.28,0,0,1,3.85,3l3.3,23.92A3.09,3.09,0,0,1,453.21,334.25Z" transform="translate(724.13)"/><path class="cls-7" d="M565.38,301l-23.64-53.07,20.34-47c9.35,9.9,16.22,24.74,19,41.52C584.08,266.34,577.75,289.16,565.38,301Z" transform="translate(724.13)"/><path class="cls-13" d="M561.81,200.91l-20.35,47L501.6,216c5.77-16.22,17-27.49,31.06-28.32C543.11,186.89,553.56,191.84,561.81,200.91Z" transform="translate(724.13)"/><path class="cls-8" d="M565.38,301a30.35,30.35,0,0,1-14.85,8c-23.09,5-47-19.8-52-55.26-1.92-14-.55-27.22,3-37.94l39.86,31.89Z" transform="translate(724.13)"/><path class="cls-8" d="M831.79,66.74c13.2,25.57,29.69,50.87,39.59,65.16a13.42,13.42,0,0,0,19,3.3c12.37-8.8,28.87-17.59,40.42-23.37a15,15,0,0,0,7.14-19c-7.42-17.32-15.12-40.41-21.44-60.76A45.63,45.63,0,0,0,852.41,4.88h0A45.44,45.44,0,0,0,831.79,66.74Z" transform="translate(724.13)"/><path class="cls-13" d="M923.07,96.71c4.12,0,8,1.65,10.17,5,4.4,6.32,12.65,17,21.45,23.37,12.92,9.07,59.93,17,63.78,23.92s-7.42,9.07-15.12,8.25c-8-.55-14.3-1.65-16,1.65s.55,17,11.28,26.66c10.44,9.63,30,19.8,30.79,28.6s-20.9.27-30.52-5.78c-9.9-5.77-12.37-7.14-12.37-7.14s-1.38,2.74-9.07,5.49c-4.4,1.38-9.08-2.2-13.2-1.37s-22.55,10.17-31.34,5.77c-6.33-3.3-20.35-35.19-27.22-43.71-5-6.33-16.77-24.47-22.55-33.54a11.33,11.33,0,0,1-.27-12.1A46.06,46.06,0,0,1,923.07,96.71Z" transform="translate(724.13)"/><path class="cls-14" d="M986.3,201.46s-10.72-5.5-15.12-9.9a30.27,30.27,0,0,1-4.4-6.05" transform="translate(724.13)"/><path class="cls-14" d="M964,205.31s-6.6-2.75-9.07-4.67c-2.47-2.2-6.05-8-6.05-8" transform="translate(724.13)"/><path class="cls-14" d="M948.09,210.81s-5-1.93-7.7-4.4a66.65,66.65,0,0,1-5.77-6.6" transform="translate(724.13)"/><path class="cls-7" d="M741.06,284.22a2.29,2.29,0,0,1,4.4,0c1.38,4.12,3,8.52,4.95,10.44,1.65,1.65,6.32,3.58,10.45,4.95a2.29,2.29,0,0,1,0,4.4c-4.13,1.37-8.53,3-10.45,4.95-1.65,1.65-3.57,6.32-4.95,10.45a2.29,2.29,0,0,1-4.4,0c-1.37-4.13-3-8.53-4.95-10.45-1.65-1.65-6.32-3.58-10.44-4.95a2.29,2.29,0,0,1,0-4.4c4.12-1.37,8.52-3,10.44-4.95S739.69,288.34,741.06,284.22Z" transform="translate(724.13)"/><path class="cls-7" d="M774.33,125.58a1.72,1.72,0,0,1,3.3,0c1.1,3,2.2,6.32,3.57,7.42,1.38,1.38,4.4,2.48,7.43,3.58a1.72,1.72,0,0,1,0,3.3c-3,1.09-6.33,2.19-7.43,3.57-1.37,1.37-2.47,4.4-3.57,7.42a1.72,1.72,0,0,1-3.3,0c-1.1-3-2.2-6.32-3.57-7.42-1.38-1.38-4.4-2.48-7.43-3.57a1.72,1.72,0,0,1,0-3.3c3-1.1,6.33-2.2,7.43-3.58C772.13,131.63,773.5,128.33,774.33,125.58Z" transform="translate(724.13)"/><path class="cls-7" d="M1034.69,262.22a1.72,1.72,0,0,1,3.3,0c1.1,3,2.2,6.32,3.57,7.42a31.22,31.22,0,0,0,7.43,3.58,1.72,1.72,0,0,1,0,3.3c-3,1.1-6.33,2.2-7.43,3.57-1.37,1.38-2.47,4.4-3.57,7.42a1.72,1.72,0,0,1-3.3,0c-1.1-3-2.2-6.32-3.57-7.42-1.38-1.37-4.4-2.47-7.43-3.57a1.72,1.72,0,0,1,0-3.3c3-1.1,6.33-2.2,7.43-3.58C1032.49,268.54,1033.87,265.24,1034.69,262.22Z" transform="translate(724.13)"/><path class="cls-8" d="M802.1,215.21c.55-1.38,2.2-1.38,2.47,0a26,26,0,0,0,2.75,6,13.81,13.81,0,0,0,6,2.74c1.37.55,1.37,2.2,0,2.48a25.17,25.17,0,0,0-6,2.75,13.76,13.76,0,0,0-2.75,6.05c-.55,1.37-2.2,1.37-2.47,0a25.78,25.78,0,0,0-2.75-6.05,13.81,13.81,0,0,0-6.05-2.75c-1.37-.55-1.37-2.2,0-2.48a25.61,25.61,0,0,0,6.05-2.74C800.17,220.43,801.27,217.68,802.1,215.21Z" transform="translate(724.13)"/><path class="cls-8" d="M1056.69,335.63a2.29,2.29,0,0,1,4.39,0c1.38,4.12,3,8.52,5,10.45,1.65,1.64,6.33,3.57,10.45,4.94a2.29,2.29,0,0,1,0,4.4c-4.12,1.38-8.52,3-10.45,4.95-1.65,1.65-3.57,6.33-5,10.45a2.29,2.29,0,0,1-4.39,0c-1.38-4.12-3-8.52-5-10.45-1.65-1.65-6.33-3.57-10.45-4.95a2.29,2.29,0,0,1,0-4.4c4.12-1.37,8.52-3,10.45-4.94C1053.39,344.15,1055.31,339.75,1056.69,335.63Z" transform="translate(724.13)"/><path class="cls-9" d="M1521.32,280.92s-3.85,3.85,3.3,33S1548,365.32,1548,365.32a50.64,50.64,0,0,0,14.57-47.84C1556.51,287.24,1521.32,280.92,1521.32,280.92Z" transform="translate(724.13)"/><path class="cls-13" d="M1525.45,366.7s-5.5,1.64-18.42,15.12-31.9,20.34-54.44,30.51-33.54-37.11-27.77-61c5.5-23.92,30.24-40.42,30.24-40.42l48.12,6.6s15.94-19,22.27-6.6C1531.5,323.26,1531,351,1525.45,366.7Z" transform="translate(724.13)"/><path class="cls-9" d="M1484.21,454.4l-163.86,37.66a13.26,13.26,0,0,1-15.95-9.89l-46.46-201.25a13.27,13.27,0,0,1,9.89-15.95l163.86-37.67a13.27,13.27,0,0,1,16,9.9l46.19,201.25A12.89,12.89,0,0,1,1484.21,454.4Z" transform="translate(724.13)"/><path class="cls-8" d="M1415.2,285l-106.67,24.47a6.36,6.36,0,0,1-7.7-4.95h0a6.35,6.35,0,0,1,5-7.7l106.67-24.47a6.37,6.37,0,0,1,7.7,4.95h0A7,7,0,0,1,1415.2,285Z" transform="translate(724.13)"/><line class="cls-11" x1="2032.38" y1="337.83" x2="2151.7" y2="310.33"/><line class="cls-11" x1="2037.06" y1="357.9" x2="2156.38" y2="330.4"/><path class="cls-8" d="M1384.13,437.08l-44,10.17a6.35,6.35,0,0,1-7.7-4.95l-10.17-44a6.37,6.37,0,0,1,5-7.7l44-10.17a6.37,6.37,0,0,1,7.7,4.95l10.17,44A7,7,0,0,1,1384.13,437.08Z" transform="translate(724.13)"/><line class="cls-11" x1="2119.26" y1="374.67" x2="2164.08" y2="364.22"/><line class="cls-11" x1="2124.21" y1="396.39" x2="2169.3" y2="386.22"/><line class="cls-11" x1="2129.16" y1="418.38" x2="2156.38" y2="412.06"/><path class="cls-7" d="M1380.56,245.45l-58.29,13.47a5.81,5.81,0,0,1-6.87-6.87l.55-2.75a6,6,0,0,1,4.4-4.4L1376.16,232a5.69,5.69,0,0,1,5.77,1.92l1.65,2.2C1386.33,239.68,1384.68,244.62,1380.56,245.45Z" transform="translate(724.13)"/><path class="cls-13" d="M1507,300.71s-6.88,3.58-20.07,0-15.4-6.87-29.15-10.45-32.71.28-36,6.05,5.5,9.35,17.32,10.72,17.32,23.92,36.29,32.45C1507,353.5,1535.07,310.61,1507,300.71Z" transform="translate(724.13)"/><path class="cls-14" d="M1421.8,296.31c-3.3,5.78,5.5,9.35,17.32,10.72s17.32,23.92,36.29,32.45a30.22,30.22,0,0,0,18.69,2.2" transform="translate(724.13)"/><path class="cls-15" d="M1527.92,288.06s-14.57,9.35-20.89,12.65c0,0,12.37,12.1,17.32,33.82s1.1,32.17,1.1,32.17,16.22-1.65,24.19-7.43c0,0,7.7-12.65,1.38-37.39S1527.92,288.06,1527.92,288.06Z" transform="translate(724.13)"/><path class="cls-7" d="M1700.58,254.52a55.4,55.4,0,0,0-84.95-29.42c-18.15,12.65-37.12,25-52.24,33.27l-42.07,22.82s23.92,23.65,27.5,49.76-.83,34.65-.83,34.65,65.71-16.23,123.72-44.54c24.47-12.38,36.84-40.42,28.87-66.54Z" transform="translate(724.13)"/><path class="cls-9" d="M1542.49,345.53a3.3,3.3,0,1,0-3.3,3.29A3.17,3.17,0,0,0,1542.49,345.53Z" transform="translate(724.13)"/><polygon class="cls-10" points="1897.67 853.05 2092.04 830.23 2088.74 865.42 2050.53 870.92 2046.68 878.07 1897.67 853.05"/><path class="cls-9" d="M1322.55,874.22l50.58-200.42a17.61,17.61,0,0,1,14.58-13.2l259.81-38.77a7.75,7.75,0,0,1,8.52,9.9L1603,811.26a18.19,18.19,0,0,1-13.2,12.37l-258.16,60.21A7.81,7.81,0,0,1,1322.55,874.22Z" transform="translate(724.13)"/><path class="cls-10" d="M1521.32,746.1c-2.75,9.9-11.82,19.52-20.89,21.45-8.8,1.92-14-4.68-11.27-14.57s11.82-19.52,20.89-21.45C1518.85,729.61,1524.07,736.21,1521.32,746.1Z" transform="translate(724.13)"/><path class="cls-9" d="M1326.4,883c-.83-.55-113.55-15.4-144.89-19.8a9,9,0,0,1-8-9.07v-1.1l152.87,17.87V883Z" transform="translate(724.13)"/><path class="cls-16" d="M1562.84,505.26h84.68a6.94,6.94,0,0,1,6.87,7.42l-4.4,53.07a9.42,9.42,0,0,1-8.52,8.79l-85.23,9.35a6.71,6.71,0,0,1-7.42-7.15l4.67-62.41A9.21,9.21,0,0,1,1562.84,505.26Z" transform="translate(724.13)"/><path class="cls-16" d="M1557.34,507.19l49.49,26.66A9.71,9.71,0,0,0,1617,533l35.19-25.84" transform="translate(724.13)"/><path class="cls-9" d="M1086.93,237.75l-8.8,9.62a4.19,4.19,0,0,0,0,5.5h0a4.21,4.21,0,0,0,4.95.83l10.45-6.33Z" transform="translate(724.13)"/><path class="cls-9" d="M1167.21,261.12l2.47,12.92a4.26,4.26,0,0,1-2.75,4.68h0a3.8,3.8,0,0,1-4.67-2.2l-5.5-11Z" transform="translate(724.13)"/><circle class="cls-7" cx="1861.92" cy="212.46" r="59.94"/><circle class="cls-8" cx="1137.75" cy="212.52" r="38.49" transform="translate(762.47 574.35) rotate(-28.8)"/><polyline class="cls-11" points="1872.65 226.2 1861.92 212.46 1867.7 193.21"/><path class="cls-7" d="M1099.58,154.45a3.21,3.21,0,0,1-4.13-2.2,17.43,17.43,0,0,1,31.89-12.1c1.1,1.65.28,3.57-1.65,4.4Z" transform="translate(724.13)"/><path class="cls-7" d="M1201,184.14a3.16,3.16,0,0,0,4.67.27,17.35,17.35,0,0,0-20.35-27.21,3,3,0,0,0-1.1,4.39Z" transform="translate(724.13)"/><path class="cls-7" d="M1165,148.12l-15.67-4.4a4.84,4.84,0,0,1-3.3-6h0a4.85,4.85,0,0,1,6-3.3l15.67,4.4a4.86,4.86,0,0,1,3.3,6h0A5,5,0,0,1,1165,148.12Z" transform="translate(724.13)"/><rect class="cls-7" x="1148.04" y="144.48" width="15.4" height="11.82" transform="translate(1413.01 1218.28) rotate(-73.8)"/><path class="cls-9" d="M498,612.21l2.48,25.29a5.94,5.94,0,0,1-3.58,6,19.85,19.85,0,0,0-11.55,19.8l3,28a19.29,19.29,0,0,0,15.39,17.05,6.16,6.16,0,0,1,4.68,5.22l2.47,25.3a5.81,5.81,0,0,1-8.52,5.77l-6.05-3a43.34,43.34,0,0,1-23.64-34.64L467,651.25a43.86,43.86,0,0,1,16.22-38.76l5.5-4.4C492,605.34,497.47,607.54,498,612.21Z" transform="translate(724.13)"/><path class="cls-17" d="M626.42,78c4.94,33.54-13.75,64.05-45.09,68.45-36,4.95-73.69-26.12-78.63-69-4.68-42.07,24.74-70.94,60.76-66C595.07,15.88,621.74,45,626.42,78Z" transform="translate(724.13)"/><path class="cls-8" d="M639.34,72.24c4.95,34.64-14,66.26-46.47,70.66-37.39,5.22-76.15-26.94-81.1-71.21-4.95-43.44,25.57-73.13,62.68-68.18C606.89,8.18,634.39,38.42,639.34,72.24Z" transform="translate(724.13)"/><path class="cls-9" d="M594.25,53c1.1,8.52-4.13,15.12-11.82,15.12-8,0-15.68-7.43-16.78-16.22s4.68-15.4,12.65-14.85C586,37.6,593.15,44.75,594.25,53Z" transform="translate(724.13)"/><path class="cls-9" d="M601.67,106.88l-28.32,1.93c-6.87.55-13.19-5.23-14.29-12.92h0c-2.2-16.78,8.79-30,23.37-29.7h0c13.74.28,26.11,12.65,28.31,27.5h0C611.29,100.83,607.44,106.61,601.67,106.88Z" transform="translate(724.13)"/><path class="cls-9" d="M1485.58,568a10.9,10.9,0,1,0-16.22,14.57c3.85,4.4,11,4.67,15.4.82A10.64,10.64,0,0,0,1485.58,568Z" transform="translate(724.13)"/><path class="cls-7" d="M1471.29,542.93l-1.93-2.2a17.25,17.25,0,0,0-24.19-1.1h0a17.25,17.25,0,0,0-1.1,24.19L1446,566a20.1,20.1,0,0,1,4.68,8.52c.55,2.48,1.37,5.23,1.92,8a8,8,0,0,0,13.2,3.85l12.09-11,12.1-11a8,8,0,0,0-2.75-13.47c-2.75-.82-5.22-1.92-7.7-2.75A18.49,18.49,0,0,1,1471.29,542.93Z" transform="translate(724.13)"/><path class="cls-9" d="M1253,586.09s6.6,31.34,0,69.29l89.08-19.25s-19.8-33-25-63.23Z" transform="translate(724.13)"/><line class="cls-11" x1="1979.05" y1="600.39" x2="2044.48" y2="586.64"/><line class="cls-11" x1="1994.44" y1="613.31" x2="2036.78" y2="603.14"/><line class="cls-11" x1="1995.27" y1="626.51" x2="2023.59" y2="619.91"/><path class="cls-7" d="M1463.59,888.52l59.93-13.47s.83,27.49,43.17,43.71c0,0-47,35.74-61.59,45.09C1505.38,963.58,1470.19,945.43,1463.59,888.52Z" transform="translate(724.13)"/><line class="cls-18" x1="2191.29" y1="906.66" x2="2251.5" y2="887.14"/><line class="cls-18" x1="2211.09" y1="917.94" x2="2248.76" y2="900.62"/><line class="cls-18" x1="2217.41" y1="929.48" x2="2255.08" y2="909.14"/><line class="cls-18" x1="2225.66" y1="940.48" x2="2247.38" y2="927.28"/><path class="cls-5" d="M512.87,459.9s-6.05,1.65-15.67.55l4.95-7.7c-10.73.27-36.57-13.75-39.32-26.67a7.62,7.62,0,0,1,.27-4.4h0v-.27c4.13-8.25,25.85-6.33,41.79,9.34C523.87,449.18,512.87,459.9,512.87,459.9Z" transform="translate(724.13)"/><path class="cls-7" d="M502.42,452.75l-4.95,7.7a60.82,60.82,0,0,1-22-7.43c-10.45-5.77-15.4-13.19-17.87-19,3-6.87,5.22-11.54,5.77-12.64a7.9,7.9,0,0,0-.28,4.4C465.85,439,491.7,453,502.42,452.75Z" transform="translate(724.13)"/><path class="cls-13" d="M349.56,536.05s12.64,5.78,24.47,4.13,34.91-8.25,39.59-5.78,12.64,2.75,10.17,10.73c-2.2,8-7.15,17.32-17.6,17.87-10.44.82-20.89,8.8-38.21,3.85s-27.5-7.43-28.05-14.3C339.66,545.4,349.56,536.05,349.56,536.05Z" transform="translate(724.13)"/><path class="cls-15" d="M512.87,459.9C508.47,472.82,451,548.43,423.79,588s-73.41,151.76-96.5,147.09S275.6,707.89,280.55,695C285.77,682,344.06,645.2,388.6,581.69S432,474.19,445.51,438.18c5.77-15.4,9.9-14.3,9.9-14.3a28.39,28.39,0,0,0,1.92,10.45c2.2,5.77,7.15,13.2,17.87,19a60.88,60.88,0,0,0,22,7.42C506.82,461.82,512.87,459.9,512.87,459.9Z" transform="translate(724.13)"/><path class="cls-4" d="M413.89,573.72s11-20.35,13.75-32.72" transform="translate(724.13)"/><path class="cls-4" d="M424.34,576.47s7.42-14,11.27-17.6" transform="translate(724.13)"/><path class="cls-4" d="M383.92,629.81s-5.22,13.74-11,23.37" transform="translate(724.13)"/><path class="cls-4" d="M368.53,626a143.92,143.92,0,0,1-28.6,30.79" transform="translate(724.13)"/><path class="cls-13" d="M391.9,553.1s17,11,26.67,14.85c9.89,3.85,22.54-.28,23.64-.28s6.32,8.25,1.65,14-9.9,6.6-10.45,8.53.83,12.92-2.2,16.77c-2.75,3.85-8.8,6-10.72,8.52-1.65,2.47-3.85,14.85-6.87,16.77s-6.88,8.25-14.57,9.35-37.95-11-66-32.72c-17.87-13.75-29.42-18.69-29.42-18.69S316,536.05,338.56,541C361.38,546,391.9,553.1,391.9,553.1Z" transform="translate(724.13)"/><path class="cls-14" d="M391.9,553.1s17,11,26.67,14.85c9.89,3.85,22.54-.28,23.64-.28" transform="translate(724.13)"/><path class="cls-7" d="M324,517.91a5.28,5.28,0,0,1,6.6.27c3.57,2.75,17,13.48,18.69,17.87,1.93,4.4-7.42,31.62-22,48.39-14.3,16.77-22.27,16.77-23.1,16.5s-21.17-9.62-23.92-13.2a8.94,8.94,0,0,1-1.65-7.42S317.39,517.63,324,517.91Z" transform="translate(724.13)"/><path class="cls-8" d="M146.11,422.78a56.24,56.24,0,0,0,5.22,76.71c6.32,5.77,13.47,12.37,21.45,19.52,42.88,38.49,109.42,62.41,109.42,62.41C318.49,564.65,324,517.91,324,517.91c-32.72-20.62-65.16-59.11-89.08-92.65-21.44-29.7-65.43-30.8-88.8-2.48Z" transform="translate(724.13)"/><path class="cls-14" d="M433.69,590.49s-7.43,3.58-12.1,4.12a69.67,69.67,0,0,1-11.27,0" transform="translate(724.13)"/><path class="cls-14" d="M422.14,614.69a18.92,18.92,0,0,1-8,3.57,15.32,15.32,0,0,1-8.53-1.65" transform="translate(724.13)"/><path class="cls-14" d="M411.42,634.76s-6.6,2.19-10.18-1.1" transform="translate(724.13)"/><path class="cls-9" d="M1149.61,907.21c-52.51,1.1-135,20.9-185,41.24-49.76,20.35-83.85,39.32-83.85,39.32s11.82-6.6,25.84,20.34,9.08,58.29,9.08,58.29c7.14-1.92,177.6-7.15,232-14.3s117.4-26.94,113.55-80-50.59-67.64-114.65-79.46c-64.34-11.82-99.8-6.87-103.65-8-3.85-.82-16.22-6-22.82-14S1006.65,841,1006.65,841s-166.06-10.45-182.83,17.59c-16.5,28,58.56,108.32,58.56,108.32Z" transform="translate(724.13)"/><path class="cls-9" d="M753.71,837.66s-9.07,19.79-12.37,26.94-79.46,9.9-113.55,10.45-100.9,14.29-106.12,63.51c-6,56.08,41,82.2,124.82,88.25,94.3,6.87,181.73,4.67,200.15,6.6s69.28-20.9,75.05-42.07S1007.47,954,1007.47,954s17.6-88-11.27-105.57C967.33,830.51,753.71,837.66,753.71,837.66Z" transform="translate(724.13)"/><path class="cls-11" d="M921.69,971.55s-156.16-89.9-280.15-84.68" transform="translate(724.13)"/><path class="cls-9" d="M880.73,988s-7.7,3.3-3.3,29.7,28.59,54.43,38.22,48.94,4.67-53.34-6.33-69.29C898.6,981.72,880.73,988,880.73,988Z" transform="translate(724.13)"/><path class="cls-7" d="M862.86,996.84s-15.12,18.42-22,23.65-37.66,7.42-48.93,25,14.57,58,35.46,51.41c-5.77,3.57-10.72,6.87-14.57,9.35-18.7,12.64-52.79,31.61-77,3.85-20.35-23.65-13.2-52.24,1.65-71.21,14.84-18.7,53.06-21.17,61.86-23.65,8.8-2.75,28.87-17,37.66-22.27C844.44,988.59,849.94,994.37,862.86,996.84Z" transform="translate(724.13)"/><path class="cls-13" d="M916.2,1057.6c-1.1.28-20.9,3.58-29.15,5.23-6.6,1.37-37.94,19.79-59.93,33.81-20.9,6.6-46.74-33.81-35.47-51.41s42.07-19.79,48.94-25,22-23.64,22-23.64c1.93.27,4.13.55,6.33.82,17.59,1.38,26.67-4.67,26.67-4.67,3.29,3,6.87,8,10.44,15.12C915.92,1026.26,916.74,1046.33,916.2,1057.6Z" transform="translate(724.13)"/><path class="cls-11" d="M1149.61,907.21c-52.51,1.1-135,20.9-185,41.24-49.76,20.35-83.85,39.32-83.85,39.32" transform="translate(724.13)"/><path class="cls-11" d="M532.94,911.06c3.3-1.65,8.25-2.47,15.12-.27,14.85,5,19.79,37.66,12.37,58C553,989.42,536.51,988.32,531,982.55" transform="translate(724.13)"/><path class="cls-11" d="M1251.61,940.48s-13.74-15.67-30,3.85c-17.87,21.17-8.53,56.91,5.77,65.43,14.57,8.53,22.54,0,22.54,0" transform="translate(724.13)"/><path class="cls-18" d="M651.43,552.55a3,3,0,1,1-3-3A3,3,0,0,1,651.43,552.55Z" transform="translate(724.13)"/><path class="cls-13" d="M711.37,501.14c-5.77,19.24-11.82,27.49-11.27,45.09-34.92,10.17-58-11.55-58-11.55,1.65-7.42,2.47-13.2,1.37-16.77-3.3-13.2-21.17-19.25-33.54-35.74S596.45,436.53,602.5,433c2.75-1.65,5.49-1.1,9.62,12.65,2.47,8,6,15.12,6.87,16.22-5.77-13.19-8.25-56.63,7.7-50,5.22,2.2-.82,11.55,5.5,28.32,5.77,15.95,16.49,22,16.49,22s-1.92-12.93,5.23-23.1c6.05-8.52,21.44-18.14,24.19-9.07,3,8.8-11,12.1-12.09,23.37-1.65,13.47,13.47,23.92,23.64,15.12s4.4-18.7,0-25c-4.4-6-11.27-14-6.32-17.59,4.95-3.3,17.32.55,26.11,15.67C718,456.32,717.14,481.89,711.37,501.14Z" transform="translate(724.13)"/><path class="cls-7" d="M767.18,698.26s-61.86,78.09-102.55,95.68-68.18,5.23-76.16-37.39,17.33-118.77,28.32-146.81c8-20.9,20.62-53.89,25.3-74.79,0,0,23.37,21.45,58,11.55.27,16.77-7.43,78.63-8.25,84.41.27-1.93,3.57-11,26.67-43.44,26.67-37.12,53.33-53.34,53.33-53.34s22.55,10.72,29.15,61C807.32,645.75,767.18,698.26,767.18,698.26Z" transform="translate(724.13)"/><path class="cls-18" d="M691.85,630.91s-2.48,70.38-11.55,93.2" transform="translate(724.13)"/><path class="cls-14" d="M648.41,462.37s1.1,7.7,4.4,12.1" transform="translate(724.13)"/><path class="cls-18" d="M635.76,556.67s15.67,22.55,62.69,16" transform="translate(724.13)"/><path class="cls-18" d="M596.45,780.47S589.3,756,615.69,750.23c26.67-5.78,58.56,32.44,38.22,47.56" transform="translate(724.13)"/><path class="cls-14" d="M618.72,462.37a49.38,49.38,0,0,0,9.62,13.47c2.75,2.75,6.6,5.5,8.25,9.08" transform="translate(724.13)"/><path class="cls-9" d="M947,296c31.34,8,46.19,25.84,44.81,70.93s-7.42,61.31,14,86.33c21.45,24.74,27.22,60.21-13.47,82.48s-129.77,28-174,0-49.49-58-36.29-87.43,48.39-48.66,40.69-69.83c-7.7-21.45,1.65,1.92,1.65,1.92s-23.1-16.77-21.17-50.31c1.65-33.54,42.89-46.19,64.33-47.29,11-.55,22.82,6.32,39,9.07C922.79,294.11,939,294.11,947,296Z" transform="translate(724.13)"/><path class="cls-8" d="M881.28,509.94s-59.39,3.29-94,15.67-28.32,39.86-32.72,68.73c-4.67,28.87-32.71,58.29-18.42,97.6s28.32,61.59,20.9,91.83c-7.15,30.24-14.3,45.36-13.2,53.89,1.38,8.52,40.69,34.64,55.81,39.86s44.54-15.67,44.54-15.67,15.12,19.8,37.12,24.19c22,4.68,111.07-18.42,131.42-41.24,0,0-13.2-25.56-13.75-56.36s17.32-69,23.92-90.18c6.32-21.17,43.71-102.82,29.14-130C1041.56,548.7,963.48,504.71,881.28,509.94Z" transform="translate(724.13)"/><g class="cls-19"><path class="cls-17" d="M731.71,870.37l2.75,3.3a5.58,5.58,0,0,1-.82,7.7l-3.3,2.75a5.6,5.6,0,0,1-7.7-.82l-2.75-3.3a5.59,5.59,0,0,1,.83-7.7l3.3-2.75A5.33,5.33,0,0,1,731.71,870.37Z" transform="translate(724.13)"/><path class="cls-17" d="M737.49,820.61l2.75,3.3a5.59,5.59,0,0,1-.83,7.7l-3.3,2.75a5.58,5.58,0,0,1-7.69-.83l-2.75-3.3a5.58,5.58,0,0,1,.82-7.7l3.3-2.74A5.55,5.55,0,0,1,737.49,820.61Z" transform="translate(724.13)"/><path class="cls-17" d="M743.54,771.12l2.75,3.3a5.59,5.59,0,0,1-.83,7.7l-3.3,2.75a5.59,5.59,0,0,1-7.7-.83l-2.75-3.3a5.58,5.58,0,0,1,.83-7.69l3.3-2.75A5.15,5.15,0,0,1,743.54,771.12Z" transform="translate(724.13)"/><path class="cls-17" d="M749.31,721.36l2.75,3.3a5.59,5.59,0,0,1-.83,7.7l-3.29,2.75a5.59,5.59,0,0,1-7.7-.83l-2.75-3.3a5.58,5.58,0,0,1,.82-7.7l3.3-2.75A5.36,5.36,0,0,1,749.31,721.36Z" transform="translate(724.13)"/><path class="cls-17" d="M755.08,671.6l2.75,3.3a5.57,5.57,0,0,1-.82,7.69l-3.3,2.75a5.58,5.58,0,0,1-7.7-.82l-2.75-3.3a5.59,5.59,0,0,1,.83-7.7l3.3-2.75A5.58,5.58,0,0,1,755.08,671.6Z" transform="translate(724.13)"/><path class="cls-17" d="M776.53,875.6l2.75,3.3a5.58,5.58,0,0,1-.83,7.69l-3.3,2.75a5.57,5.57,0,0,1-7.69-.82l-2.75-3.3a5.58,5.58,0,0,1,.82-7.7l3.3-2.75A5.34,5.34,0,0,1,776.53,875.6Z" transform="translate(724.13)"/><path class="cls-17" d="M782.3,825.83l2.75,3.3a5.58,5.58,0,0,1-.82,7.7l-3.3,2.75a5.58,5.58,0,0,1-7.7-.82l-2.75-3.3a5.59,5.59,0,0,1,.83-7.7L774.6,825A5.58,5.58,0,0,1,782.3,825.83Z" transform="translate(724.13)"/><path class="cls-17" d="M788.08,776.35l2.75,3.3a5.58,5.58,0,0,1-.83,7.69l-3.3,2.75a5.58,5.58,0,0,1-7.7-.82l-2.75-3.3a5.59,5.59,0,0,1,.83-7.7l3.3-2.75C782.85,773.6,786.43,773.87,788.08,776.35Z" transform="translate(724.13)"/><path class="cls-17" d="M794.12,726.58l2.75,3.3a5.58,5.58,0,0,1-.82,7.7l-3.3,2.75a5.59,5.59,0,0,1-7.7-.83l-2.75-3.29a5.59,5.59,0,0,1,.83-7.7l3.3-2.75A5.35,5.35,0,0,1,794.12,726.58Z" transform="translate(724.13)"/><path class="cls-17" d="M799.9,676.82l2.75,3.3a5.59,5.59,0,0,1-.83,7.7l-3.3,2.75a5.58,5.58,0,0,1-7.69-.83l-2.75-3.3a5.58,5.58,0,0,1,.82-7.7l3.3-2.74C794.4,674.07,798,674.62,799.9,676.82Z" transform="translate(724.13)"/><path class="cls-17" d="M821.34,880.82l2.75,3.3a5.58,5.58,0,0,1-.82,7.7l-3.3,2.75a5.59,5.59,0,0,1-7.7-.83l-2.75-3.3a5.58,5.58,0,0,1,.83-7.69l3.29-2.75A5.36,5.36,0,0,1,821.34,880.82Z" transform="translate(724.13)"/><path class="cls-17" d="M827.12,831.06l2.75,3.3a5.58,5.58,0,0,1-.83,7.69l-3.3,2.75A5.58,5.58,0,0,1,818,844l-2.75-3.3a5.59,5.59,0,0,1,.83-7.7l3.3-2.75C821.62,828.31,825.19,828.86,827.12,831.06Z" transform="translate(724.13)"/><path class="cls-17" d="M832.89,781.57l2.75,3.3a5.59,5.59,0,0,1-.83,7.7l-3.29,2.75a5.59,5.59,0,0,1-7.7-.83l-2.75-3.3a5.58,5.58,0,0,1,.82-7.7l3.3-2.75A5.35,5.35,0,0,1,832.89,781.57Z" transform="translate(724.13)"/><path class="cls-17" d="M838.66,731.81l2.75,3.3a5.57,5.57,0,0,1-.82,7.69l-3.3,2.75a5.58,5.58,0,0,1-7.7-.82l-2.75-3.3a5.59,5.59,0,0,1,.83-7.7L831,731A5.33,5.33,0,0,1,838.66,731.81Z" transform="translate(724.13)"/><path class="cls-17" d="M844.44,682l2.75,3.3a5.59,5.59,0,0,1-.83,7.7l-3.3,2.75a5.58,5.58,0,0,1-7.7-.82l-2.74-3.3a5.58,5.58,0,0,1,.82-7.7l3.3-2.75A5.55,5.55,0,0,1,844.44,682Z" transform="translate(724.13)"/><path class="cls-17" d="M865.88,886l2.75,3.3a5.58,5.58,0,0,1-.82,7.7l-3.3,2.75a5.58,5.58,0,0,1-7.7-.82l-2.75-3.3a5.6,5.6,0,0,1,.82-7.7l3.3-2.75A5.58,5.58,0,0,1,865.88,886Z" transform="translate(724.13)"/><path class="cls-17" d="M871.93,836.56l2.75,3.3a5.59,5.59,0,0,1-.82,7.69l-3.3,2.75a5.58,5.58,0,0,1-7.7-.82l-2.75-3.3a5.58,5.58,0,0,1,.82-7.7l3.3-2.75A5.15,5.15,0,0,1,871.93,836.56Z" transform="translate(724.13)"/><path class="cls-17" d="M877.7,786.79l2.75,3.3a5.58,5.58,0,0,1-.82,7.7l-3.3,2.75a5.6,5.6,0,0,1-7.7-.82l-2.75-3.3a5.59,5.59,0,0,1,.83-7.7L870,786A5.35,5.35,0,0,1,877.7,786.79Z" transform="translate(724.13)"/><path class="cls-17" d="M883.48,737l2.75,3.3a5.59,5.59,0,0,1-.83,7.7l-3.3,2.75a5.58,5.58,0,0,1-7.69-.83l-2.75-3.3a5.57,5.57,0,0,1,.82-7.69l3.3-2.75C878,734.28,881.55,734.83,883.48,737Z" transform="translate(724.13)"/><path class="cls-17" d="M889.25,687.54l2.75,3.3a5.58,5.58,0,0,1-.82,7.7l-3.3,2.75a5.59,5.59,0,0,1-7.7-.83l-2.75-3.29a5.58,5.58,0,0,1,.82-7.7l3.3-2.75A5.13,5.13,0,0,1,889.25,687.54Z" transform="translate(724.13)"/><path class="cls-17" d="M910.7,891.27l2.75,3.3a5.59,5.59,0,0,1-.83,7.7l-3.3,2.74a5.58,5.58,0,0,1-7.7-.82l-2.75-3.3a5.59,5.59,0,0,1,.83-7.7l3.3-2.75A5.59,5.59,0,0,1,910.7,891.27Z" transform="translate(724.13)"/><path class="cls-17" d="M916.47,841.78l2.75,3.3a5.59,5.59,0,0,1-.83,7.7l-3.29,2.75a5.59,5.59,0,0,1-7.7-.83l-2.75-3.3a5.58,5.58,0,0,1,.82-7.7l3.3-2.74A5.13,5.13,0,0,1,916.47,841.78Z" transform="translate(724.13)"/><path class="cls-17" d="M922.24,792l2.75,3.3a5.57,5.57,0,0,1-.82,7.69l-3.3,2.75a5.58,5.58,0,0,1-7.7-.82l-2.75-3.3a5.59,5.59,0,0,1,.83-7.7l3.3-2.75C917,789.27,920.59,789.54,922.24,792Z" transform="translate(724.13)"/><path class="cls-17" d="M928.29,742.25l2.75,3.3a5.58,5.58,0,0,1-.82,7.7l-3.3,2.75a5.58,5.58,0,0,1-7.7-.82l-2.75-3.3a5.6,5.6,0,0,1,.82-7.7l3.3-2.75C922.79,739.5,926.37,740.05,928.29,742.25Z" transform="translate(724.13)"/><path class="cls-17" d="M934.07,692.77l2.75,3.3a5.58,5.58,0,0,1-.83,7.69l-3.3,2.75a5.58,5.58,0,0,1-7.7-.82l-2.75-3.3a5.59,5.59,0,0,1,.83-7.7l3.3-2.75A5.36,5.36,0,0,1,934.07,692.77Z" transform="translate(724.13)"/><path class="cls-17" d="M955.51,896.49l2.75,3.3a5.6,5.6,0,0,1-.82,7.7l-3.3,2.75a5.59,5.59,0,0,1-7.7-.83l-2.75-3.3a5.57,5.57,0,0,1,.82-7.69l3.3-2.75C950,893.74,953.59,894.29,955.51,896.49Z" transform="translate(724.13)"/><path class="cls-17" d="M961.28,847l2.75,3.3a5.58,5.58,0,0,1-.82,7.7l-3.3,2.75a5.58,5.58,0,0,1-7.7-.82l-2.75-3.3a5.59,5.59,0,0,1,.83-7.7l3.3-2.75A5.35,5.35,0,0,1,961.28,847Z" transform="translate(724.13)"/><path class="cls-17" d="M967.06,797.24l2.75,3.3a5.59,5.59,0,0,1-.83,7.7l-3.3,2.75a5.59,5.59,0,0,1-7.7-.83l-2.74-3.3a5.57,5.57,0,0,1,.82-7.69l3.3-2.75A5.34,5.34,0,0,1,967.06,797.24Z" transform="translate(724.13)"/><path class="cls-17" d="M972.83,747.48l2.75,3.3a5.58,5.58,0,0,1-.82,7.7l-3.3,2.74a5.58,5.58,0,0,1-7.7-.82L961,757.1a5.58,5.58,0,0,1,.82-7.7l3.3-2.75A5.59,5.59,0,0,1,972.83,747.48Z" transform="translate(724.13)"/><path class="cls-17" d="M978.6,698l2.75,3.3a5.58,5.58,0,0,1-.82,7.7l-3.3,2.75a5.59,5.59,0,0,1-7.7-.83l-2.75-3.3a5.59,5.59,0,0,1,.83-7.7l3.3-2.74C973.38,695.24,977,695.52,978.6,698Z" transform="translate(724.13)"/><path class="cls-17" d="M1000.05,901.72l2.75,3.29a5.59,5.59,0,0,1-.83,7.7l-3.29,2.75a5.58,5.58,0,0,1-7.7-.82l-2.75-3.3a5.58,5.58,0,0,1,.82-7.7l3.3-2.75A5.56,5.56,0,0,1,1000.05,901.72Z" transform="translate(724.13)"/><path class="cls-17" d="M1006.1,852.23l2.75,3.3a5.58,5.58,0,0,1-.83,7.69l-3.3,2.75a5.57,5.57,0,0,1-7.69-.82l-2.75-3.3a5.58,5.58,0,0,1,.82-7.7l3.3-2.75A5.36,5.36,0,0,1,1006.1,852.23Z" transform="translate(724.13)"/><path class="cls-17" d="M1011.87,802.46l2.75,3.3a5.58,5.58,0,0,1-.82,7.7l-3.3,2.75a5.58,5.58,0,0,1-7.7-.82l-2.75-3.3a5.6,5.6,0,0,1,.82-7.7l3.3-2.75A5.37,5.37,0,0,1,1011.87,802.46Z" transform="translate(724.13)"/><path class="cls-17" d="M1017.65,752.7l2.74,3.3a5.58,5.58,0,0,1-.82,7.7l-3.3,2.75a5.59,5.59,0,0,1-7.7-.83l-2.75-3.3a5.58,5.58,0,0,1,.83-7.69l3.3-2.75A5.58,5.58,0,0,1,1017.65,752.7Z" transform="translate(724.13)"/><path class="cls-17" d="M1023.42,703.21l2.75,3.3a5.59,5.59,0,0,1-.83,7.7L1022,717a5.59,5.59,0,0,1-7.69-.82l-2.75-3.3a5.58,5.58,0,0,1,.82-7.7l3.3-2.75A5.34,5.34,0,0,1,1023.42,703.21Z" transform="translate(724.13)"/><path class="cls-17" d="M760.86,622.11l2.75,3.3a5.59,5.59,0,0,1-.83,7.7l-3.3,2.74a5.58,5.58,0,0,1-7.7-.82l-2.74-3.3a5.58,5.58,0,0,1,.82-7.7l3.3-2.75A5.13,5.13,0,0,1,760.86,622.11Z" transform="translate(724.13)"/><path class="cls-17" d="M766.63,572.35l2.75,3.29a5.58,5.58,0,0,1-.82,7.7l-3.3,2.75a5.58,5.58,0,0,1-7.7-.82l-2.75-3.3a5.58,5.58,0,0,1,.82-7.7l3.3-2.75C761.41,569.6,765,569.87,766.63,572.35Z" transform="translate(724.13)"/><path class="cls-17" d="M772.68,522.58l2.75,3.3a5.59,5.59,0,0,1-.83,7.7l-3.29,2.75a5.59,5.59,0,0,1-7.7-.83l-2.75-3.29a5.58,5.58,0,0,1,.82-7.7l3.3-2.75C767.18,519.83,770.76,520.38,772.68,522.58Z" transform="translate(724.13)"/><path class="cls-17" d="M778.45,473.09l2.75,3.3a5.58,5.58,0,0,1-.82,7.7l-3.3,2.75a5.58,5.58,0,0,1-7.7-.82l-2.75-3.3a5.59,5.59,0,0,1,.83-7.7l3.3-2.75A5.36,5.36,0,0,1,778.45,473.09Z" transform="translate(724.13)"/><path class="cls-17" d="M805.67,627.33l2.75,3.3a5.58,5.58,0,0,1-.82,7.7l-3.3,2.75a5.59,5.59,0,0,1-7.7-.83l-2.75-3.3a5.58,5.58,0,0,1,.82-7.69l3.3-2.75A5.34,5.34,0,0,1,805.67,627.33Z" transform="translate(724.13)"/><path class="cls-17" d="M811.45,577.57l2.74,3.3a5.58,5.58,0,0,1-.82,7.7l-3.3,2.75a5.59,5.59,0,0,1-7.7-.83l-2.75-3.3a5.59,5.59,0,0,1,.83-7.7l3.3-2.75A5.34,5.34,0,0,1,811.45,577.57Z" transform="translate(724.13)"/><path class="cls-17" d="M817.22,527.81l2.75,3.3a5.58,5.58,0,0,1-.83,7.69l-3.3,2.75a5.57,5.57,0,0,1-7.69-.82l-2.75-3.3a5.58,5.58,0,0,1,.82-7.7l3.3-2.75A5.59,5.59,0,0,1,817.22,527.81Z" transform="translate(724.13)"/><path class="cls-17" d="M823.27,478.32l2.75,3.3a5.59,5.59,0,0,1-.83,7.7l-3.3,2.74a5.58,5.58,0,0,1-7.7-.82l-2.74-3.3a5.58,5.58,0,0,1,.82-7.7l3.3-2.75A5.36,5.36,0,0,1,823.27,478.32Z" transform="translate(724.13)"/><path class="cls-17" d="M850.49,632.56l2.75,3.3a5.58,5.58,0,0,1-.83,7.69l-3.3,2.75a5.58,5.58,0,0,1-7.7-.82l-2.75-3.3a5.59,5.59,0,0,1,.83-7.7l3.3-2.75A5.36,5.36,0,0,1,850.49,632.56Z" transform="translate(724.13)"/><path class="cls-17" d="M856.26,582.79l2.75,3.3a5.59,5.59,0,0,1-.83,7.7l-3.3,2.75a5.58,5.58,0,0,1-7.69-.83l-2.75-3.29a5.58,5.58,0,0,1,.82-7.7l3.3-2.75A5.36,5.36,0,0,1,856.26,582.79Z" transform="translate(724.13)"/><path class="cls-17" d="M862,533l2.75,3.3A5.58,5.58,0,0,1,864,544l-3.3,2.75A5.59,5.59,0,0,1,853,546l-2.75-3.3A5.59,5.59,0,0,1,851,535l3.3-2.74A5.57,5.57,0,0,1,862,533Z" transform="translate(724.13)"/><path class="cls-17" d="M867.81,483.54l2.75,3.3a5.59,5.59,0,0,1-.83,7.7l-3.3,2.75a5.59,5.59,0,0,1-7.7-.83l-2.75-3.3a5.58,5.58,0,0,1,.83-7.69l3.3-2.75A5.34,5.34,0,0,1,867.81,483.54Z" transform="translate(724.13)"/><path class="cls-17" d="M895,637.78l2.74,3.3a5.58,5.58,0,0,1-.82,7.7l-3.3,2.75a5.59,5.59,0,0,1-7.7-.83l-2.75-3.3a5.59,5.59,0,0,1,.83-7.7l3.3-2.75A5.35,5.35,0,0,1,895,637.78Z" transform="translate(724.13)"/><path class="cls-17" d="M901.07,588l2.75,3.3A5.57,5.57,0,0,1,903,599l-3.3,2.75a5.58,5.58,0,0,1-7.7-.82l-2.75-3.3a5.59,5.59,0,0,1,.83-7.7l3.3-2.75C895.58,585.27,899.15,585.82,901.07,588Z" transform="translate(724.13)"/><path class="cls-17" d="M906.85,538.53l2.75,3.3a5.59,5.59,0,0,1-.83,7.7l-3.3,2.75a5.59,5.59,0,0,1-7.7-.83l-2.74-3.3a5.58,5.58,0,0,1,.82-7.7l3.3-2.75A5.15,5.15,0,0,1,906.85,538.53Z" transform="translate(724.13)"/><path class="cls-17" d="M912.62,488.77l2.75,3.29a5.6,5.6,0,0,1-.82,7.7l-3.3,2.75a5.58,5.58,0,0,1-7.7-.82l-2.75-3.3a5.58,5.58,0,0,1,.82-7.7l3.3-2.75A5.36,5.36,0,0,1,912.62,488.77Z" transform="translate(724.13)"/><path class="cls-17" d="M939.84,643l2.75,3.3a5.59,5.59,0,0,1-.83,7.7l-3.3,2.75a5.59,5.59,0,0,1-7.69-.82l-2.75-3.3a5.58,5.58,0,0,1,.82-7.7l3.3-2.75A5.34,5.34,0,0,1,939.84,643Z" transform="translate(724.13)"/><path class="cls-17" d="M945.61,593.24l2.75,3.3a5.58,5.58,0,0,1-.82,7.7l-3.3,2.75a5.59,5.59,0,0,1-7.7-.83l-2.75-3.3a5.59,5.59,0,0,1,.83-7.7l3.29-2.74A5.58,5.58,0,0,1,945.61,593.24Z" transform="translate(724.13)"/><path class="cls-17" d="M951.39,543.75l2.75,3.3a5.59,5.59,0,0,1-.83,7.7L950,557.5a5.59,5.59,0,0,1-7.7-.83l-2.75-3.3a5.58,5.58,0,0,1,.83-7.69l3.3-2.75C946.16,541,949.74,541.28,951.39,543.75Z" transform="translate(724.13)"/><path class="cls-17" d="M957.44,494l2.74,3.3a5.58,5.58,0,0,1-.82,7.7l-3.3,2.75a5.59,5.59,0,0,1-7.7-.83l-2.75-3.3a5.59,5.59,0,0,1,.83-7.7l3.3-2.75A5.36,5.36,0,0,1,957.44,494Z" transform="translate(724.13)"/><path class="cls-17" d="M984.65,648.23l2.75,3.3a5.57,5.57,0,0,1-.82,7.69l-3.3,2.75a5.58,5.58,0,0,1-7.7-.82l-2.75-3.3a5.59,5.59,0,0,1,.83-7.7l3.3-2.75A5.35,5.35,0,0,1,984.65,648.23Z" transform="translate(724.13)"/><path class="cls-17" d="M990.43,598.46l2.75,3.3a5.59,5.59,0,0,1-.83,7.7l-3.3,2.75a5.58,5.58,0,0,1-7.7-.82l-2.75-3.3a5.59,5.59,0,0,1,.83-7.7l3.3-2.75C984.93,595.71,988.5,596.26,990.43,598.46Z" transform="translate(724.13)"/><path class="cls-17" d="M996.2,549l2.75,3.3a5.59,5.59,0,0,1-.82,7.69l-3.3,2.75a5.58,5.58,0,0,1-7.7-.82l-2.75-3.3a5.58,5.58,0,0,1,.82-7.7l3.3-2.75A5.34,5.34,0,0,1,996.2,549Z" transform="translate(724.13)"/><path class="cls-17" d="M1002,499.21l2.75,3.3a5.58,5.58,0,0,1-.82,7.7l-3.3,2.75a5.59,5.59,0,0,1-7.7-.83l-2.75-3.29a5.59,5.59,0,0,1,.83-7.7l3.3-2.75A5.33,5.33,0,0,1,1002,499.21Z" transform="translate(724.13)"/><path class="cls-17" d="M1029.19,653.45l2.75,3.3a5.58,5.58,0,0,1-.82,7.7l-3.3,2.75a5.59,5.59,0,0,1-7.7-.83l-2.75-3.3a5.58,5.58,0,0,1,.83-7.69l3.29-2.75C1024,650.7,1027.54,651,1029.19,653.45Z" transform="translate(724.13)"/><path class="cls-17" d="M1035.24,604l2.75,3.3a5.58,5.58,0,0,1-.82,7.7l-3.3,2.75a5.59,5.59,0,0,1-7.7-.83l-2.75-3.29a5.58,5.58,0,0,1,.82-7.7l3.3-2.75A5.15,5.15,0,0,1,1035.24,604Z" transform="translate(724.13)"/><path class="cls-17" d="M1041,554.2l2.75,3.3a5.58,5.58,0,0,1-.82,7.7l-3.3,2.75a5.59,5.59,0,0,1-7.7-.83l-2.75-3.3a5.59,5.59,0,0,1,.83-7.7l3.3-2.75A5.36,5.36,0,0,1,1041,554.2Z" transform="translate(724.13)"/><path class="cls-17" d="M1046.79,504.44l2.75,3.3a5.58,5.58,0,0,1-.83,7.69l-3.3,2.75a5.57,5.57,0,0,1-7.69-.82l-2.75-3.3a5.58,5.58,0,0,1,.82-7.7l3.3-2.75A5.59,5.59,0,0,1,1046.79,504.44Z" transform="translate(724.13)"/></g><path class="cls-7" d="M1053.11,571.25s28.32,28.31,50.59,74.23c0,0,1.37-95.13,3.3-101.73,0,0,29.42,7.15,59.11-4.67,0,0,8,73.41,19.79,129.22s25,139.11-15.12,150.11c-39.86,11.27-76.7-14.3-125.37-79.46-48.38-64.88-44.54-97.6-44.54-114.09C1000.6,605.34,1027,555.3,1053.11,571.25Z" transform="translate(724.13)"/><path class="cls-18" d="M1103.7,645.75s-1.92,59.11,5.22,96.5" transform="translate(724.13)"/><path class="cls-18" d="M1105.35,569.6s35.19,11,63.23-6.88" transform="translate(724.13)"/><path class="cls-18" d="M1157.86,555.57a3,3,0,1,1-3-3A2.88,2.88,0,0,1,1157.86,555.57Z" transform="translate(724.13)"/><path class="cls-13" d="M1163.91,540.18s-2.75-19.52,10.45-25.85,25.29-3.29,38.76-13.19c13.47-9.63,36.29-41.24,35.47-48.12-1.1-6.87-5.77-3.84-14.85,3.58-8.79,7.42-13.19,9.07-13.19,9.07s5.49-18.69,3-32.44c-2.75-13.75-11.82-15.4-14-14s0,7.15-.55,18.14c-.55,10.73-3.85,20.07-13.47,26.95a34.35,34.35,0,0,0-1.93-19.25c-4.4-10.45-11.82-17.32-17.59-15.67s-3.85,6.05-1.1,12.1c3,6,7.15,17-4.4,28.59s-30.24,0-23.92-15.4,15.94-19,20.89-23.09,3.58-11.55-6.87-9.9S1132.29,436,1121.84,450c-10.44,13.75-13.47,33-13.74,51.69s-1.1,42.61-1.1,42.61,6.87,8.52,22,8.52C1144.11,552.55,1163.91,547.05,1163.91,540.18Z" transform="translate(724.13)"/><path class="cls-14" d="M1220.55,466a140.33,140.33,0,0,1-11.28,23.37" transform="translate(724.13)"/><path class="cls-14" d="M1195.25,464.3a48.14,48.14,0,0,1-8.8,21.44" transform="translate(724.13)"/><path class="cls-18" d="M1130.37,817.31s-6.88-11,9.9-27.77,52.51-14.84,53.61,2.48" transform="translate(724.13)"/><path class="cls-15" d="M863.41,506.09s-15.4-.83-25,20.07-6.87,63.78,3.57,70.38,38.49-21.72,38.49-21.72,23.65,31.89,40.69,30.52,38.49-31.89,37.12-65.44-15.12-37.39-22.54-38.21C928.57,500.31,863.41,506.09,863.41,506.09Z" transform="translate(724.13)"/><path class="cls-15" d="M880.45,574.54s-54.16,59.94-54.71,71.21,17.87,14.85,22.82,12.37C853.51,655.38,886,573.72,880.45,574.54Z" transform="translate(724.13)"/><path class="cls-15" d="M879.9,582s9.35,66.53,15.4,77,25.29-5.22,23.09-14.3-28.31-62.13-37.94-69.83C870.83,566.85,879.9,582,879.9,582Z" transform="translate(724.13)"/><path class="cls-13" d="M947,447.53s-6,37.66-1.65,66c0,0-26.12,58-64.61,58-19,0-25-39-21.72-54.44l5.77-42.89S903.27,407.66,947,447.53Z" transform="translate(724.13)"/><path class="cls-20" d="M915.37,487.39c-16.5,9.9-34.64,14.85-53.89,11l-2.2,16.22C880.18,510.49,901.35,504.44,915.37,487.39Z" transform="translate(724.13)"/><path class="cls-13" d="M827.12,366.42s1.37,21.44-2.2,56.36-2.2,57.74,27.49,72.58,77.81,1.38,95.4-41,41-122.9-22.27-135S826.29,322.43,827.12,366.42Z" transform="translate(724.13)"/><path class="cls-9" d="M871.11,338.65s12.09,40.69,39,51.14c27.21,10.45,22.82,35.74,36.29,32.72s23.92-14,33-3.3c9.07,10.44,9.9-83.58-36.57-99.8s-95.67-17.05-110.24-2.2c-14.3,14.84-9.35,62.41-9.35,62.41S853,372.74,871.11,338.65Z" transform="translate(724.13)"/><path class="cls-13" d="M949.46,422.78s6.33-15.67,19.8-12.92c13.19,2.75,12.37,45.36-22,43.16" transform="translate(724.13)"/><path class="cls-9" d="M853.24,408.21a16.78,16.78,0,0,1,.55,11.55,19.93,19.93,0,0,1-2.48,5.5l-1.65,2.47c-.27.55-.82,1.38-1.1,1.92-1.1,2.48-.55,5.23,1.1,8a15.16,15.16,0,0,0,8.25,5.77,8.3,8.3,0,0,1-5.77,0,12.52,12.52,0,0,1-5.23-3,12.75,12.75,0,0,1-3.57-5.5,11.76,11.76,0,0,1,.55-6.87,23.75,23.75,0,0,1,1.65-2.75c.55-.83,1.1-1.38,1.65-2.2a24.19,24.19,0,0,0,2.75-4.4A27.47,27.47,0,0,0,853.24,408.21Z" transform="translate(724.13)"/><path class="cls-18" d="M873.58,461.82s13.75,3.85,22-10.17" transform="translate(724.13)"/><path class="cls-18" d="M891.18,408.21s1.1,6.05,11.54,7.15a13.33,13.33,0,0,0,12.93-6.05" transform="translate(724.13)"/><path class="cls-18" d="M848.29,403.81s-8.25,6.6-14.85-1.65" transform="translate(724.13)"/><path class="cls-9" d="M856,377.69c.55-3.57-3.57-9.62-9.07-11.27s-14.29,6.05-13.47,9.35c1.1,3.3,6.32-1.65,11.27-1.1C849.11,375.22,855.43,380.72,856,377.69Z" transform="translate(724.13)"/><path class="cls-9" d="M921.69,383.74c.55-3.57-3.57-9.62-9.07-11.27s-14.3,6-13.47,9.35c1.1,3.3,6.32-1.65,11.27-1.1C915.1,381.27,921.42,386.77,921.69,383.74Z" transform="translate(724.13)"/><path class="cls-9" d="M968.16,422.78c-2.75.83-4.95,2.2-5.78,3.85a8.29,8.29,0,0,0-.55,2.75v3.85a12.8,12.8,0,0,1-.82,4.67,6.23,6.23,0,0,1-3.57,3.85c-3.3,1.38-6.33.55-9.08-.82,2.75-.83,5.5-1.38,6.88-2.75,1.37-1.1,1.65-3,1.65-5.5v-4.4c.27-1.65.82-3.57,2.19-4.67A9.86,9.86,0,0,1,968.16,422.78Z" transform="translate(724.13)"/><ellipse class="cls-18" cx="1553.17" cy="404.09" rx="24.47" ry="26.67"/><circle class="cls-21" cx="1623.78" cy="411.69" r="28.32"/><path class="cls-18" d="M853.51,406.29s4.4-4.68,18.15,1.1" transform="translate(724.13)"/><line class="cls-18" x1="1652.15" y1="411.78" x2="1679.09" y2="414.26"/><path class="cls-8" d="M961.56,446.43l-9.35,16.22a3.12,3.12,0,0,0,2.75,4.67h18.7a3.12,3.12,0,0,0,2.75-4.67l-9.35-16.22C965.68,444.5,962.66,444.5,961.56,446.43Z" transform="translate(724.13)"/><path class="cls-9" d="M1344.54,996.57l6.6,61c0,4.4,22.82,7.7,50.86,7.7s50.87-3.57,50.87-7.7l6.59-61Z" transform="translate(724.13)"/><path class="cls-8" d="M1459.46,996.57c0,4.95-25.84,8.8-57.46,8.8s-57.46-3.85-57.46-8.8,25.84-8.8,57.46-8.8C1433.89,988,1459.46,991.89,1459.46,996.57Z" transform="translate(724.13)"/><path class="cls-7" d="M1386.61,996.57s-30.8-12.1-27.5-35.74c3.58-23.92,26.12,25.29,31.89,17.87s-1.64-43.44,11-46.74c12.92-3,9.35,47.29,9.35,47.29s12.92-6.33,20.89-15.67,19.53,11.54-13.19,33C1418.77,996.57,1404.75,1003.72,1386.61,996.57Z" transform="translate(724.13)"/><path class="cls-8" d="M1658,980.62a14.85,14.85,0,1,1-14.85-14.84A15.15,15.15,0,0,1,1658,980.62Z" transform="translate(724.13)"/><path class="cls-15" d="M599.75,1033.68a53.36,53.36,0,0,0-22,11.55c-11.82,10.17-30.79,17.32-50.86,16.22-19.25-.82-39.59-9.35-55-30C538.71,1038.63,599.75,1033.68,599.75,1033.68Z" transform="translate(724.13)"/><path class="cls-9" d="M526.61,1061.73c-48.38.82-116,0-136.91-.28-24.2,1.93-51.42-7.42-69.56-37.39,0,0,17.87,2.75,63.78,3s82.48-3,82.48-3c1.65,2.75,3.3,5.22,5,7.7C487,1052.1,507.37,1060.63,526.61,1061.73Z" transform="translate(724.13)"/></g></g></svg>