<svg xmlns="http://www.w3.org/2000/svg" xmlns:xlink="http://www.w3.org/1999/xlink" viewBox="0 0 1219.4 522.41"><defs><style>.cls-1,.cls-14,.cls-15,.cls-18,.cls-19,.cls-20,.cls-22,.cls-23,.cls-4,.cls-6{fill:none;}.cls-2{fill:#eaf9f3;}.cls-3{clip-path:url(#clip-path);}.cls-4,.cls-6{stroke:#88b4e2;}.cls-14,.cls-15,.cls-18,.cls-19,.cls-20,.cls-22,.cls-23,.cls-4,.cls-6{stroke-linecap:round;stroke-linejoin:round;}.cls-14,.cls-15,.cls-18,.cls-19,.cls-20,.cls-23,.cls-4{stroke-width:1.8px;}.cls-5{fill:#88b4e2;}.cls-6{stroke-width:1.8px;}.cls-7{fill:#63737a;}.cls-8{fill:#22272e;}.cls-9{fill:#fda53a;}.cls-10{fill:#5083b9;}.cls-11{fill:#f4c2c9;}.cls-12{fill:#020202;}.cls-13{fill:#fff;}.cls-14{stroke:#5083b9;}.cls-15,.cls-22{stroke:#22272e;}.cls-16{fill:#b28d93;}.cls-17{fill:#896068;}.cls-18{stroke:#63737a;}.cls-19{stroke:#896068;}.cls-20{stroke:#f8ab5d;}.cls-21{fill:#f8ab5d;}.cls-22{stroke-width:1.8px;}.cls-23{stroke:#000;}</style><clipPath id="clip-path" transform="translate(263.96)"><path class="cls-1" d="M591.84,452.32l-520-14.9a48.07,48.07,0,0,1-46.5-43.3l-25.1-248a48.18,48.18,0,0,1,47.2-53l578.8-8a48.21,48.21,0,0,1,48.5,54.1L641,410.12A48.26,48.26,0,0,1,591.84,452.32Z"/></clipPath></defs><g id="Layer_2" data-name="Layer 2"><g id="illustration"><path class="cls-2" d="M591.84,452.32l-520-14.9a48.07,48.07,0,0,1-46.5-43.3l-25.1-248a48.18,48.18,0,0,1,47.2-53l578.8-8a48.21,48.21,0,0,1,48.5,54.1L641,410.12A48.26,48.26,0,0,1,591.84,452.32Z" transform="translate(263.96)"/><g class="cls-3"><path class="cls-4" d="M167.44,497.32h-415.5a15,15,0,0,1-15-15V246.62a15,15,0,0,1,15-15h415.5a15,15,0,0,1,15,15V482.23A15,15,0,0,1,167.44,497.32Z" transform="translate(263.96)"/><path class="cls-4" d="M716.54,481.52H297.44a15,15,0,0,1-15-15V122.23a15,15,0,0,1,15-15h419.1a15,15,0,0,1,15,15V466.52A15,15,0,0,1,716.54,481.52Z" transform="translate(263.96)"/><path class="cls-4" d="M52.64,231.62H32.34a4.32,4.32,0,0,1-4.3-3.79l-1.6-14.4a4.33,4.33,0,0,1,4.3-4.8h23.5a4.34,4.34,0,0,1,4.3,4.8l-1.6,14.4A4.32,4.32,0,0,1,52.64,231.62Z" transform="translate(263.96)"/><path class="cls-5" d="M40,208.73s-8-.8-9.6-11.61c0,0,7.2,2.11,9.5,7.21,0,0,1-11.4,6.4-12.5,0,0,2.4,8.5-1.4,12.7,0,0,2.9-4.8,10.3-4.7a13.6,13.6,0,0,1-9.2,8.79" transform="translate(263.96)"/><path class="cls-4" d="M164.24,281.43H74a4.23,4.23,0,0,1-4.2-4.2v-27.4a4.23,4.23,0,0,1,4.2-4.21h90.2a4.23,4.23,0,0,1,4.2,4.21v27.4A4.11,4.11,0,0,1,164.24,281.43Z" transform="translate(263.96)"/><path class="cls-5" d="M129.54,255.23h-20.8a1.54,1.54,0,0,1-1.5-1.5h0a1.54,1.54,0,0,1,1.5-1.5h20.8a1.54,1.54,0,0,1,1.5,1.5h0A1.54,1.54,0,0,1,129.54,255.23Z" transform="translate(263.96)"/><path class="cls-4" d="M164.24,327.23H74a4.23,4.23,0,0,1-4.2-4.21v-27.4a4.23,4.23,0,0,1,4.2-4.2h90.2a4.23,4.23,0,0,1,4.2,4.2V323A4.1,4.1,0,0,1,164.24,327.23Z" transform="translate(263.96)"/><path class="cls-5" d="M129.54,301h-20.8a1.54,1.54,0,0,1-1.5-1.5h0a1.54,1.54,0,0,1,1.5-1.5h20.8a1.54,1.54,0,0,1,1.5,1.5h0A1.47,1.47,0,0,1,129.54,301Z" transform="translate(263.96)"/><path class="cls-4" d="M627.44,359.52h-90.2a4.23,4.23,0,0,1-4.2-4.2v-27.4a4.23,4.23,0,0,1,4.2-4.2h90.2a4.23,4.23,0,0,1,4.2,4.2v27.4A4.1,4.1,0,0,1,627.44,359.52Z" transform="translate(263.96)"/><path class="cls-5" d="M592.74,333.43h-20.8a1.54,1.54,0,0,1-1.5-1.5h0a1.54,1.54,0,0,1,1.5-1.5h20.8a1.54,1.54,0,0,1,1.5,1.5h0A1.54,1.54,0,0,1,592.74,333.43Z" transform="translate(263.96)"/><path class="cls-4" d="M511.64,359.52h-90.2a4.23,4.23,0,0,1-4.2-4.2v-27.4a4.23,4.23,0,0,1,4.2-4.2h90.2a4.23,4.23,0,0,1,4.2,4.2v27.4A4.23,4.23,0,0,1,511.64,359.52Z" transform="translate(263.96)"/><path class="cls-5" d="M476.94,333.43h-20.8a1.54,1.54,0,0,1-1.5-1.5h0a1.54,1.54,0,0,1,1.5-1.5h20.8a1.54,1.54,0,0,1,1.5,1.5h0A1.54,1.54,0,0,1,476.94,333.43Z" transform="translate(263.96)"/><path class="cls-4" d="M49.24,281.43H-41a4.23,4.23,0,0,1-4.2-4.2v-27.4a4.23,4.23,0,0,1,4.2-4.21h90.2a4.23,4.23,0,0,1,4.2,4.21v27.4A4.11,4.11,0,0,1,49.24,281.43Z" transform="translate(263.96)"/><path class="cls-5" d="M14.54,255.23H-6.26a1.54,1.54,0,0,1-1.5-1.5h0a1.54,1.54,0,0,1,1.5-1.5h20.8a1.54,1.54,0,0,1,1.5,1.5h0A1.48,1.48,0,0,1,14.54,255.23Z" transform="translate(263.96)"/><path class="cls-4" d="M49.24,327.23H-41a4.23,4.23,0,0,1-4.2-4.21v-27.4a4.23,4.23,0,0,1,4.2-4.2h90.2a4.23,4.23,0,0,1,4.2,4.2V323A4.1,4.1,0,0,1,49.24,327.23Z" transform="translate(263.96)"/><path class="cls-5" d="M14.54,301H-6.26a1.54,1.54,0,0,1-1.5-1.5h0a1.54,1.54,0,0,1,1.5-1.5h20.8a1.54,1.54,0,0,1,1.5,1.5h0A1.41,1.41,0,0,1,14.54,301Z" transform="translate(263.96)"/><path class="cls-4" d="M758.74,212h-455a4.65,4.65,0,0,1-4.6-4.6v-79.7a4.65,4.65,0,0,1,4.6-4.6h455a4.65,4.65,0,0,1,4.6,4.6v79.7A4.58,4.58,0,0,1,758.74,212Z" transform="translate(263.96)"/><path class="cls-4" d="M758.74,310.93h-455a4.65,4.65,0,0,1-4.6-4.6v-79.7a4.65,4.65,0,0,1,4.6-4.6h455a4.65,4.65,0,0,1,4.6,4.6v79.7A4.53,4.53,0,0,1,758.74,310.93Z" transform="translate(263.96)"/><rect class="cls-4" x="593.8" y="161.73" width="9.9" height="50.3"/><rect class="cls-4" x="603.6" y="175.43" width="10.3" height="36.6"/><rect class="cls-4" x="892.1" y="260.52" width="9.9" height="50.3"/><rect class="cls-4" x="902" y="274.23" width="10.3" height="36.6"/><rect class="cls-4" x="872" y="260.52" width="9.9" height="50.3"/><rect class="cls-6" x="570.74" y="279.94" width="50.3" height="9.9" transform="translate(408.75 767.35) rotate(-72.48)"/><rect class="cls-4" x="881.9" y="274.23" width="10.3" height="36.6"/><rect class="cls-4" x="758.6" y="161.73" width="9.9" height="50.3"/><rect class="cls-4" x="768.5" y="175.43" width="10.3" height="36.6"/><rect class="cls-4" x="660.8" y="161.73" width="9.9" height="50.3"/><rect class="cls-6" x="359.53" y="181.13" width="50.3" height="9.9" transform="translate(355.37 496.88) rotate(-72.48)"/><rect class="cls-4" x="670.7" y="175.43" width="10.3" height="36.6"/><path class="cls-5" d="M637.94,168.33l1.1-14.9a1.65,1.65,0,0,0-1.7-1.8h-8.6a1.71,1.71,0,0,0-1.7,1.8l1.1,14.9s-9,5.79-8.9,10.6c.1,3.7,2.3,21.4,3.3,29.2a4.32,4.32,0,0,0,4.3,3.8h12.4a4.32,4.32,0,0,0,4.3-3.8c1-7.8,3.2-25.5,3.3-29.2C646.94,174,637.94,168.33,637.94,168.33Z" transform="translate(263.96)"/><path class="cls-5" d="M598,168.33l1.1-14.9a1.65,1.65,0,0,0-1.7-1.8h-8.6a1.71,1.71,0,0,0-1.7,1.8l1.1,14.9s-9,5.79-8.9,10.6c.1,3.7,2.3,21.4,3.3,29.2a4.32,4.32,0,0,0,4.3,3.8h12.4a4.32,4.32,0,0,0,4.3-3.8c1-7.8,3.2-25.5,3.3-29.2C607,174,598,168.33,598,168.33Z" transform="translate(263.96)"/><line class="cls-4" x1="262.7" y1="405.32" x2="1218.5" y2="405.32"/></g><path class="cls-7" d="M220,178.23l-103.8,23.5a5.06,5.06,0,0,1-6.1-4.21L89.24,64.82A5.06,5.06,0,0,1,95,59l108,18.1a5.23,5.23,0,0,1,4.2,4.11l15.9,92.29A4.15,4.15,0,0,1,220,178.23Z" transform="translate(263.96)"/><path class="cls-8" d="M225.84,178.12l-104.5,23.61a5.13,5.13,0,0,1-6.2-4.21L94,63.92a5.09,5.09,0,0,1,5.9-5.8l108.7,18.2a5.22,5.22,0,0,1,4.2,4.2l16.1,92.9A4.12,4.12,0,0,1,225.84,178.12Z" transform="translate(263.96)"/><path class="cls-9" d="M138.74,88.23c.5,2.89-1.3,5-4,4.8s-5.4-2.8-5.9-5.8,1.4-5.11,4.1-4.81A7.14,7.14,0,0,1,138.74,88.23Z" transform="translate(263.96)"/><path class="cls-9" d="M141.74,106.53l-9.8-.4a5.51,5.51,0,0,1-4.8-4.6h0c-.9-5.4,2.6-9.5,7.5-9.11h0c4.8.4,9.3,4.9,10.2,10.11h0C145.24,104.83,143.84,106.62,141.74,106.53Z" transform="translate(263.96)"/><path class="cls-7" d="M148.14,175.12h0a3.81,3.81,0,0,1-4.1-3.39l-8-49.5c-.3-2.11,1-3.9,2.9-3.9h0a4.54,4.54,0,0,1,4.1,3.8l7.9,48.5C151.24,172.83,150,174.83,148.14,175.12Z" transform="translate(263.96)"/><path class="cls-10" d="M139.54,144.33l4.4,27.4a3.8,3.8,0,0,0,4.1,3.39h0a3.72,3.72,0,0,0,2.8-4.39l-4.4-26.9a4.16,4.16,0,0,0-4.1-3.6h0C140.54,140.33,139.24,142.12,139.54,144.33Z" transform="translate(263.96)"/><path class="cls-11" d="M171.34,91.42c.4,2.61-1,4.61-3.2,4.4s-4.4-2.5-4.9-5.2,1-4.6,3.3-4.39S170.84,88.73,171.34,91.42Z" transform="translate(263.96)"/><path class="cls-11" d="M174,107.92l-7.9-.3c-1.8-.1-3.6-1.89-4-4.1h0c-.8-4.9,1.9-8.6,5.9-8.3h0c3.9.3,7.7,4.4,8.5,9.1h0C176.84,106.42,175.74,108,174,107.92Z" transform="translate(263.96)"/><path class="cls-7" d="M180.44,169.83h0c-1.5.29-3.1-1.1-3.4-3.1l-7.4-44.61c-.3-1.89.7-3.5,2.3-3.5h0c1.6,0,3.1,1.61,3.4,3.5l7.3,43.71C182.94,167.83,182,169.62,180.44,169.83Z" transform="translate(263.96)"/><path class="cls-10" d="M172.74,140.73l4.3,25.79c.3,1.8,1.7,3.3,3.1,3.3,1.7-.1,2.8-1.9,2.5-4l-4.3-25.5c-.3-1.9-1.8-3.4-3.4-3.3h0C173.44,137.23,172.44,138.83,172.74,140.73Z" transform="translate(263.96)"/><path class="cls-10" d="M198.14,94c.4,2.39-.7,4.2-2.5,4s-3.7-2.3-4.1-4.7.8-4.2,2.6-4S197.74,91.62,198.14,94Z" transform="translate(263.96)"/><path class="cls-10" d="M200.74,109.12l-6.6-.3c-1.5-.1-3-1.7-3.4-3.7h0c-.8-4.5,1.4-7.8,4.8-7.6h0c3.3.3,6.5,4,7.2,8.2h0C203,107.73,202.14,109.23,200.74,109.12Z" transform="translate(263.96)"/><path class="cls-7" d="M207,165.52h0c-1.3.21-2.6-1.1-2.9-2.79l-6.9-40.5c-.3-1.81.5-3.2,1.8-3.2h0c1.3,0,2.6,1.39,2.9,3.1l6.8,39.8C209.14,163.73,208.34,165.23,207,165.52Z" transform="translate(263.96)"/><path class="cls-10" d="M202.24,151.23l1.9,11.29c.3,1.71,1.4,3,2.7,3s2.3-1.7,2-3.6l-1.9-11.2c-.3-1.7-1.6-3.1-2.8-2.9h0C202.74,147.93,201.94,149.43,202.24,151.23Z" transform="translate(263.96)"/><path class="cls-7" d="M615.94,219.93l-98.5-11.5a5.43,5.43,0,0,1-4.8-5.8l7.6-107.2a5.45,5.45,0,0,1,4.9-5l102.6-10.8a4.24,4.24,0,0,1,4.7,4.6L620.74,216A4.43,4.43,0,0,1,615.94,219.93Z" transform="translate(263.96)"/><path class="cls-8" d="M611.64,219.93l-99-11.6a5.43,5.43,0,0,1-4.8-5.8l7.6-107.8a5.55,5.55,0,0,1,4.9-5.1l103.1-10.9a4.24,4.24,0,0,1,4.7,4.6l-11.7,132.5A4.34,4.34,0,0,1,611.64,219.93Z" transform="translate(263.96)"/><path class="cls-7" d="M549.44,118.23l-24.3,1.19a1.65,1.65,0,0,1-1.7-1.8l1-14.5a1.61,1.61,0,0,1,1.5-1.5l24.4-2a1.68,1.68,0,0,1,1.8,1.8l-1.2,15.31A1.54,1.54,0,0,1,549.44,118.23Z" transform="translate(263.96)"/><path class="cls-9" d="M562.14,128.92l-2.7,34.91-39.2-1.21.5-7.39,5.4-7.21a2.87,2.87,0,0,1,4.3-.4h0a2.9,2.9,0,0,0,4.6-.79l4.3-8.9a2.91,2.91,0,0,1,4.9-.5l5.1,6.4a2.91,2.91,0,0,0,4.8-.4Z" transform="translate(263.96)"/><path class="cls-9" d="M524.14,197.33h0a1.54,1.54,0,0,1-1.4-1.6l.8-11.21a1.54,1.54,0,0,1,1.6-1.4h0a1.51,1.51,0,0,1,1.4,1.71l-.8,11.2A1.41,1.41,0,0,1,524.14,197.33Z" transform="translate(263.96)"/><path class="cls-9" d="M537.14,197l1.2-15.9a1.53,1.53,0,0,1,1.6-1.39h.2a1.5,1.5,0,0,1,1.4,1.7l-1.2,15.9a1.5,1.5,0,0,1-1.7,1.4h-.2A1.75,1.75,0,0,1,537.14,197Z" transform="translate(263.96)"/><path class="cls-9" d="M551.54,198.23l1.6-20.3a1.83,1.83,0,0,1,1.8-1.6h0a1.66,1.66,0,0,1,1.6,1.9l-1.6,20.29a1.71,1.71,0,0,1-1.9,1.6h0A2,2,0,0,1,551.54,198.23Z" transform="translate(263.96)"/><path class="cls-10" d="M565.94,199.52l2.1-25a1.83,1.83,0,0,1,1.8-1.6h.2a1.66,1.66,0,0,1,1.6,1.9l-2.1,25a1.71,1.71,0,0,1-1.9,1.6h-.2A1.75,1.75,0,0,1,565.94,199.52Z" transform="translate(263.96)"/><path class="cls-10" d="M580.34,200.93l2.5-29.7a1.84,1.84,0,0,1,1.8-1.61h.4a1.66,1.66,0,0,1,1.6,1.9l-2.5,29.71a1.71,1.71,0,0,1-1.9,1.6h-.3A1.84,1.84,0,0,1,580.34,200.93Z" transform="translate(263.96)"/><path class="cls-11" d="M596.84,204.12h-.5a1.85,1.85,0,0,1-1.6-1.89l2.9-34.4a1.83,1.83,0,0,1,1.8-1.6h.5a1.79,1.79,0,0,1,1.7,1.89l-2.9,34.4A1.76,1.76,0,0,1,596.84,204.12Z" transform="translate(263.96)"/><path class="cls-10" d="M597.54,133.73l4.3,7.5c-3.6,4.79-8.1,7.79-12.8,7.79-9.2,0-15.5-11.5-14.3-25.7s9.4-26.5,18.8-27.2c4.8-.39,8.9,2.3,11.7,6.9l-5.6,7.9c-1.6-2.8-4.1-4.4-7-4.3-5.6.4-10.7,7.7-11.4,16.4s3.2,15.6,8.7,15.5C592.64,138.52,595.34,136.73,597.54,133.73Z" transform="translate(263.96)"/><path class="cls-9" d="M608.64,122c-.7,7.5-3.2,14.4-6.8,19.3l-4.3-7.5a22.55,22.55,0,0,0,4-11.5,19.63,19.63,0,0,0-2.1-11.3l5.6-7.9C607.84,107.73,609.24,114.42,608.64,122Z" transform="translate(263.96)"/><path class="cls-7" d="M614.84,89.73c.1-.9-.3-1.61-1-1.61a1.69,1.69,0,0,0-1.2,1.7c-.1.9.3,1.6.9,1.6S614.74,90.73,614.84,89.73Z" transform="translate(263.96)"/><path class="cls-7" d="M620.94,89.23c.1-.9-.4-1.61-1-1.61a1.92,1.92,0,0,0-1.3,1.8c-.1.9.4,1.61,1,1.61A1.91,1.91,0,0,0,620.94,89.23Z" transform="translate(263.96)"/><path class="cls-8" d="M489.44,128.62l-32.7,2a2.83,2.83,0,0,1-3-3l4.3-64.5a3.7,3.7,0,0,1,3.1-3.39l33.4-6a2.8,2.8,0,0,1,3.3,2.89l-4.9,68.4A3.69,3.69,0,0,1,489.44,128.62Z" transform="translate(263.96)"/><path class="cls-10" d="M486.94,127.92l-32.7,2a2.83,2.83,0,0,1-3-3l4.3-64.5a3.71,3.71,0,0,1,3.1-3.39L492,53a2.8,2.8,0,0,1,3.3,2.89l-4.9,68.41A3.69,3.69,0,0,1,486.94,127.92Z" transform="translate(263.96)"/><path class="cls-12" d="M475,61.83l-4,.7c-.4.1-.7-.2-.7-.7h0a1.06,1.06,0,0,1,.8-.9l4-.7c.4-.1.7.2.7.7h0A.89.89,0,0,1,475,61.83Z" transform="translate(263.96)"/><path class="cls-12" d="M478.24,61.33l-.4.1c-.4.1-.7-.2-.7-.7h0a1,1,0,0,1,.8-.9l.4-.1c.4-.1.7.2.7.7h0A1,1,0,0,1,478.24,61.33Z" transform="translate(263.96)"/><path class="cls-8" d="M472.64,69.62l-10.1,1.61a1.26,1.26,0,0,1-1.4-1.4h0a2,2,0,0,1,1.6-1.8l10.1-1.61a1.19,1.19,0,0,1,1.4,1.4h0A2,2,0,0,1,472.64,69.62Z" transform="translate(263.96)"/><path class="cls-9" d="M485.44,87.83l-24.3,3.1a1.24,1.24,0,0,1-1.4-1.3l.9-13a1.18,1.18,0,0,1,1-1.1l24.4-3.7a1.24,1.24,0,0,1,1.4,1.3l-1,13.6A1.16,1.16,0,0,1,485.44,87.83Z" transform="translate(263.96)"/><path class="cls-8" d="M470.44,100.12l-10.1,1.11a1.26,1.26,0,0,1-1.4-1.4h0a1.82,1.82,0,0,1,1.6-1.7l10.1-1.1a1.22,1.22,0,0,1,1.4,1.39h0A1.8,1.8,0,0,1,470.44,100.12Z" transform="translate(263.96)"/><path class="cls-11" d="M468.94,122.42l-10,.7c-.8.11-1.4-.6-1.4-1.5h0a1.92,1.92,0,0,1,1.6-1.7l10-.8a1.3,1.3,0,0,1,1.4,1.5h0A1.82,1.82,0,0,1,468.94,122.42Z" transform="translate(263.96)"/><path class="cls-9" d="M468.14,115.12l-8.7.7a1.16,1.16,0,0,1-1.3-1.3l.5-8a1.11,1.11,0,0,1,1.1-1.1l8.8-.9a1.16,1.16,0,0,1,1.3,1.3l-.6,8.2A1.26,1.26,0,0,1,468.14,115.12Z" transform="translate(263.96)"/><path class="cls-13" d="M483.54,113.83l-9.3.8a1.21,1.21,0,0,1-1.3-1.3l.6-8.3a1.11,1.11,0,0,1,1.1-1.11l9.3-.89a1.16,1.16,0,0,1,1.3,1.3l-.6,8.4A1.18,1.18,0,0,1,483.54,113.83Z" transform="translate(263.96)"/><circle class="cls-14" cx="454.5" cy="28.23" r="18.4"/><path class="cls-10" d="M183.64,27.73a4,4,0,0,1-.9-2.7,4,4,0,0,1,.9-2.7,3.38,3.38,0,0,1,4.8,0,4,4,0,0,1,.9,2.7,3.83,3.83,0,0,1-.9,2.7,3.38,3.38,0,0,1-4.8,0Zm3.7-1a3,3,0,0,0,.4-1.81,3.21,3.21,0,0,0-.4-1.8,1.45,1.45,0,0,0-1.2-.6,1.43,1.43,0,0,0-1.2.6,3,3,0,0,0-.5,1.8,3.49,3.49,0,0,0,.5,1.81,1.45,1.45,0,0,0,1.2.6A1.6,1.6,0,0,0,187.34,26.73Zm7.2-5.4h.9c.3,0,.5.4.3.6l-8.8,12.9c-.1.1-.2.2-.3.2h-.9a.39.39,0,0,1-.3-.61l8.8-12.89C194.24,21.42,194.34,21.33,194.54,21.33Zm-1.8,12.9a4,4,0,0,1-.9-2.7,4,4,0,0,1,.9-2.7,3.38,3.38,0,0,1,4.8,0,4,4,0,0,1,.9,2.7,4,4,0,0,1-.9,2.7,3,3,0,0,1-2.4,1A3.31,3.31,0,0,1,192.74,34.23Zm3.6-1.11a2.84,2.84,0,0,0,.4-1.7,2.83,2.83,0,0,0-.4-1.69,1.68,1.68,0,0,0-1.5-.7,1.7,1.7,0,0,0-1,.6,3,3,0,0,0-.5,1.8,3.2,3.2,0,0,0,.5,1.8,1.22,1.22,0,0,0,1,.6A1.51,1.51,0,0,0,196.34,33.12Z" transform="translate(263.96)"/><path class="cls-8" d="M442.64,53.53c-20.2,12.8-41.7,11.8-47-1-4.7-11.2,5.3-27.61,21.6-37.5,16-9.8,34.8-11.3,43.1-2.7C469.64,22,462.34,40.92,442.64,53.53Z" transform="translate(263.96)"/><path class="cls-9" d="M440.14,49.42c-20.2,12.81-41.7,11.81-47-1-4.7-11.19,5.3-27.6,21.6-37.5,16-9.8,34.8-11.3,43.1-2.69C467.14,17.92,459.84,36.83,440.14,49.42Z" transform="translate(263.96)"/><path class="cls-10" d="M434.44,40.92c-12.1,7.61-25.3,7.4-29-.1-3.5-6.9,2.6-17.4,13.2-23.9s22.6-7.19,27.5-1.39C451.34,21.83,446.44,33.33,434.44,40.92Z" transform="translate(263.96)"/><path class="cls-11" d="M429.34,33.12c-4.8,3-10.1,3-11.8.2s.7-7.2,5.3-10,9.6-3,11.5-.4S434,30.12,429.34,33.12Z" transform="translate(263.96)"/><path class="cls-8" d="M424.54,23.62h0a4,4,0,0,1-5.4-1.3l-9.6-19.1a2.21,2.21,0,0,1,.8-2.8h0a2.2,2.2,0,0,1,2.9.6l12.5,17.3A3.77,3.77,0,0,1,424.54,23.62Z" transform="translate(263.96)"/><path class="cls-10" d="M411.94,6.92l-4.3-.3a1.38,1.38,0,0,0-1.2,2.2h0a18,18,0,0,0,8.1,6.1l2,.81c.2.1.5-.2.3-.4l-3.9-7.7C412.84,7.23,412.44,7,411.94,6.92Z" transform="translate(263.96)"/><path class="cls-10" d="M415.54,4.73l1.8-3.91a1.36,1.36,0,0,1,2.5,0h0a17.3,17.3,0,0,1,1.6,10l-.3,2.2c0,.2-.4.3-.5.1l-5-7A1.69,1.69,0,0,1,415.54,4.73Z" transform="translate(263.96)"/><line class="cls-15" x1="688" y1="22.83" x2="691.2" y2="28.23"/><path class="cls-16" d="M335.54,462.73c-2.2-3.91-23.5,0-23.5,0s.4,8.29.6,14.59a33.89,33.89,0,0,0,22.7,1.3C335.24,472.13,335.54,462.73,335.54,462.73Z" transform="translate(263.96)"/><path class="cls-9" d="M312.54,477.32c.1,2.91.1,5.3.1,6.3,0,1.2-1.4,3.4-1.9,6.8-.4,2.5,0,5.9-.5,8.9-.5,3.6-1.1,7.2-1.4,10.6-.9,9.9,4.2,11,9.9,11.7s24.6,1.2,25.2-4.3-4.8-15.7-6-20.4-1.9-10-2.5-13.1c-.1-.9-.2-2.8-.2-5.2A34.51,34.51,0,0,1,312.54,477.32Z" transform="translate(263.96)"/><path class="cls-8" d="M344,517.23c-.6,5.5-19.5,4.9-25.2,4.29s-10.8-1.79-9.9-11.7c.3-3.3.8-7,1.4-10.59.5-3,0-6.41.5-8.91a30.53,30.53,0,0,1,1.8-5.9c.4,2.6,2.4,3.4,2.6,9.1.3,5.9-.3,8.9,6.6,7,9.1-2.5,12.6.6,14.5-.9,1.6-1.4,1-6.2.9-7.1.3,1.4.6,2.9.9,4.3C339.14,501.52,344.64,511.82,344,517.23Z" transform="translate(263.96)"/><path class="cls-17" d="M332.94,471.73c.8-.21,1.7-.5,2.5-.8.1-4.41.2-8.3.2-8.3-2.2-3.9-23.5,0-23.5,0s.1,3,.3,6.8C318.64,471.82,325.74,473.32,332.94,471.73Z" transform="translate(263.96)"/><ellipse class="cls-13" cx="591.8" cy="501.13" rx="5.6" ry="3.6"/><path class="cls-9" d="M370.14,479.82c.5,3.91.8,7.3.6,8.2-.5,2.1-2.1,10.91-3.4,14.71s-8.7,14.59-3.8,17.9,29.9,1.3,32.6-1,1.8-8.7.8-16.9-4-16.6-4-17.8c0-.41-.1-3.5-.2-7.3C385.94,481,378,482.32,370.14,479.82Z" transform="translate(263.96)"/><path class="cls-16" d="M368.34,467.23s1.1,6.79,1.8,12.59c7.9,2.5,15.8,1.2,22.6-2.2-.3-7.2-.7-17.2-1.1-17.8C391.14,458.93,370.54,458.52,368.34,467.23Z" transform="translate(263.96)"/><path class="cls-8" d="M396.24,519.63c-2.7,2.3-27.7,4.4-32.6,1s2.5-14.2,3.8-17.9c.9-2.71,2-8.1,2.7-11.71-.2,1.21-1.8,10.6,0,11.21s6.7-3.3,13-1.91,9.5,2.3,9.5-1.59-1.2-10.3-.6-11.41,1-2.3,1-2.3c0,1.21,3,9.6,4,17.8S398.94,517.23,396.24,519.63Z" transform="translate(263.96)"/><path class="cls-17" d="M392.44,470.73c-.2-5.41-.5-10.5-.8-10.91-.5-.9-21.2-1.3-23.4,7.41,0,0,.4,2.79,1,6.29C377.54,475.32,385.34,473.82,392.44,470.73Z" transform="translate(263.96)"/><ellipse class="cls-13" cx="642.6" cy="502.23" rx="5.6" ry="3.6"/><path class="cls-8" d="M388.74,211.83s9.7,17.7,4.2,61.7-8.3,55.1-7.3,57.9,5.9,23.9,6.2,56.5,1,48.2,3.9,57.3,4.2,15.9-3.4,21.29-20.8,4.71-27,1.8-6.5-7.8-6-18.7-4.9-44.7-9.4-65.2c-2.7-12.4-5-26.7-6.5-37a133.43,133.43,0,0,1-1.5-13.4c0-3.9-6-61.3-6-64.2s-6.5-4.9-8.1-17.2,1.3-40.7,1.3-40.7S383.24,204.12,388.74,211.83Z" transform="translate(263.96)"/><path class="cls-8" d="M297.74,208.43s-10.9,26.2-4.7,73.8,7,52.2,7.3,54.29.5,37.71,3.4,68.6-2.9,46.8,0,54.3,12.2,9.4,18.7,9.1,18.7-2.6,18.7-14.6-1.6-30.9,0-56.1,4-50.9,4.7-62.9,8-81.6,9.3-91.5-3.3-26-21.4-32.3C315.64,205,297.74,208.43,297.74,208.43Z" transform="translate(263.96)"/><path class="cls-18" d="M291.14,250.62s5.9-1.39,8-8.79a79.28,79.28,0,0,0,2.6-12.4" transform="translate(263.96)"/><path class="cls-18" d="M394.44,253.23s-7.7-3.61-10.1-11.8-2.1-12.8-2.1-12.8" transform="translate(263.96)"/><path class="cls-18" d="M322.34,262c5.7.21,13.4,6.6,13.4,6.6a46.91,46.91,0,0,1,8.7-5.6" transform="translate(263.96)"/><ellipse class="cls-18" cx="583.7" cy="337.02" rx="14.6" ry="15"/><ellipse class="cls-18" cx="625.4" cy="337.02" rx="14.6" ry="15"/><path class="cls-18" d="M343.44,347.33a133.43,133.43,0,0,1-1.5-13.4c0-3.9-6-61.3-6-64.2s-6.5-4.9-8.1-17.21" transform="translate(263.96)"/><path class="cls-16" d="M234.14,71.92s-.9-3-1.3-11.39c-.1-2,3.1-6.4,3.5-7.7s3.4-.8,2.6,3.6,2.3,12.5,1.4,15.6S234.14,73.33,234.14,71.92Z" transform="translate(263.96)"/><path class="cls-8" d="M225.94,45.23l27,55.8a4.61,4.61,0,0,0,4.4,2.7l40.5-.7a2.45,2.45,0,0,0,2.2-3.5l-23.8-56a4.77,4.77,0,0,0-4.5-2.9l-43.6,1A2.52,2.52,0,0,0,225.94,45.23Z" transform="translate(263.96)"/><path class="cls-10" d="M241.34,37.53l15-.61a3,3,0,0,1,2.9,2.11l.6,2a1,1,0,0,1-.9,1.3l-18.1.5a1.08,1.08,0,0,1-1-.8l-.3-2.2A1.94,1.94,0,0,1,241.34,37.53Z" transform="translate(263.96)"/><path class="cls-16" d="M280.74,136.83l-3.4,2.79s-4.5-14.2-8.6-23.89-6.7-22-6.6-23.4,1.3-5.4-1.4-9.6a16.39,16.39,0,0,0-5.8-5.7s2.3-1.11,6.6-2.9,2.3-3.8-.3-3.5-9.1,1.2-9.1,1.2l5.1-4c1.9-1.5,5.9-3.1,4.9-4.7-.9-1.4-5.1.1-7,.7s-8.6,3.9-8.6,3.9,4-4.7,5.8-7,6.6-4.5,6-6.81-6.5,1-9.3,2.7-8.1,7.11-8.1,7.11.2-5.2.4-7.5,1.6-8.11-.1-9.5c-2.2-1.81-3.4,3.8-4.5,8.5s-3.7,14.19-3.1,17,4,6.19,6.9,10,6,8.3,6.5,9.6,4.2,61.2,7.5,69.4,10.9,22.29,42.5-2.71c0,0,2.9-17.5-2.9-22.2C288.24,131.83,280.74,136.83,280.74,136.83Z" transform="translate(263.96)"/><path class="cls-10" d="M319.44,104.73s-7.7,1.39-17.4,11.8-21.3,20.3-21.3,20.3,9,20,14.4,26c0,0,18.9-12.6,26.3-20S330.14,107.33,319.44,104.73Z" transform="translate(263.96)"/><path class="cls-15" d="M284.74,133.33s6.3,15.2,14.7,26.5" transform="translate(263.96)"/><path class="cls-19" d="M277.34,139.62a69,69,0,0,1,2.8,8.8" transform="translate(263.96)"/><path class="cls-19" d="M252.14,71.83a20.46,20.46,0,0,0-2.2.6,6,6,0,0,0-2.2,1.2" transform="translate(263.96)"/><path class="cls-19" d="M254.84,77a10.78,10.78,0,0,0-1.8,1.1" transform="translate(263.96)"/><path class="cls-19" d="M246.54,67.73a9.05,9.05,0,0,0-2.3,2.1" transform="translate(263.96)"/><path class="cls-19" d="M240.94,63.83a13.07,13.07,0,0,0-2.3,2" transform="translate(263.96)"/><path class="cls-8" d="M247.24,93.12s3.9,4.9,15.2,1.2c0,0,1.2,4.5,1.3,5.7,0,0-9.4,3.8-15.9-.8A41.48,41.48,0,0,1,247.24,93.12Z" transform="translate(263.96)"/><ellipse class="cls-13" cx="251.25" cy="97.4" rx="3" ry="4.7" transform="translate(249.53 52.38) rotate(-11.57)"/><path class="cls-9" d="M315.44,107.33c2.8-2.2,5.6-4.9,30.4-5.7,28.5-.9,42.1,2.5,46,18.8s-12.5,54.3-12.5,58.7,10.3,25.8,11.5,35.5c0,0-13.9,15.3-49,14.8s-46.8-14.8-46.8-18.5,12.2-24.8,13.5-34.1-10.9-21.1-10.4-33,10.9-22.1,11.5-24.7C311,114.33,312.44,109.62,315.44,107.33Z" transform="translate(263.96)"/><path class="cls-10" d="M328.74,111.42s-.1,20,8.5,34.2c0,0,15.1-15.39,20.3-31,0,0-11.8,3.8-18.8,1.3A58.3,58.3,0,0,1,328.74,111.42Z" transform="translate(263.96)"/><path class="cls-13" d="M336.24,98.92a14.66,14.66,0,0,0-8.4,8.31c-2.9,6.8-1.8,16.69.8,16.6s12.6-7.2,12.6-7.2S340.74,99.73,336.24,98.92Z" transform="translate(263.96)"/><path class="cls-13" d="M341.14,116.73l5.5,7.19c2.9,3.81,5.7,8,12.9-3.6s2.6-19.5-1.6-21.4S340.54,113,341.14,116.73Z" transform="translate(263.96)"/><path class="cls-16" d="M336.24,91.23a135.82,135.82,0,0,1-1.4,13.89c-1,5.6.6,10.7,6.3,11.61s17.4-5.31,18.1-13.81c0,0-1-20.1.7-26.39S336.54,86.83,336.24,91.23Z" transform="translate(263.96)"/><path class="cls-17" d="M353.94,90.92c-3.7,5.9-11.3,6.4-18.1,6.5-.2,2.2-.5,4.61-.8,6.7C343.64,103.73,352.14,99.33,353.94,90.92Z" transform="translate(263.96)"/><path class="cls-20" d="M389.24,207.73c-26.8,17.5-68,19.7-92.3-2.11" transform="translate(263.96)"/><path class="cls-20" d="M337.24,145.62s-7.8,10.3-9.8,17.21" transform="translate(263.96)"/><path class="cls-21" d="M338.34,152.62a1.61,1.61,0,1,1-1.6,1.61A1.6,1.6,0,0,1,338.34,152.62Z" transform="translate(263.96)"/><circle class="cls-21" cx="598.7" cy="162.02" r="1.6"/><path class="cls-16" d="M405.44,136.33s7.5,17.1,11.2,30.2-.1,21.2-8.2,25.1-14.5-6.1-26.6-36.4C381.84,155.33,399.94,131.12,405.44,136.33Z" transform="translate(263.96)"/><path class="cls-16" d="M396.24,185.73s5,10.2,16.3,9.1,38.6-8.8,43.8-13.21,2.7-16.1-2.2-16.6-19.3,1-27.5,1.1a52.65,52.65,0,0,0-10.3.8,22.24,22.24,0,0,0-3.9,1.2,23.08,23.08,0,0,0-4.2,2.4C403.24,174.33,396.24,185.73,396.24,185.73Z" transform="translate(263.96)"/><path class="cls-19" d="M416.54,167a20.63,20.63,0,0,0-8.1,3.6" transform="translate(263.96)"/><path class="cls-10" d="M370.14,113.33c2.1-5.4,8.2-8.9,13.1-7a28.92,28.92,0,0,1,13.2,10.5c7.7,11.3,15.2,31.7,15.2,31.7s-8,5.6-28.5,12.7a181.15,181.15,0,0,1-10-19.4C370.74,136.12,366.64,122.53,370.14,113.33Z" transform="translate(263.96)"/><path class="cls-15" d="M380.94,155.93s15.4-3.9,28.4-13" transform="translate(263.96)"/><path class="cls-10" d="M422.54,170.43l67.8-6.9a3,3,0,0,1,3.4,2.7l6.9,54a3,3,0,0,1-2.4,3.4L432,237.93a3,3,0,0,1-3.7-2.6l-8.5-61.3A3,3,0,0,1,422.54,170.43Z" transform="translate(263.96)"/><path class="cls-15" d="M438.34,191.33l45.3-6.5a1.92,1.92,0,0,1,2.2,1.6l4.4,26a1.91,1.91,0,0,1-1.5,2.2l-45.7,9.3a1.9,1.9,0,0,1-2.3-1.6l-4.1-28.71A2.08,2.08,0,0,1,438.34,191.33Z" transform="translate(263.96)"/><line class="cls-15" x1="739.7" y1="185.93" x2="745" y2="216.23"/><line class="cls-15" x1="709.3" y1="198.52" x2="732.6" y2="194.93"/><line class="cls-15" x1="711.3" y1="206.73" x2="734.6" y2="202.23"/><line class="cls-15" x1="712.9" y1="214.52" x2="736.2" y2="210.02"/><polyline class="cls-15" points="744.3 192.22 745.8 193.32 747.5 190.13"/><polyline class="cls-15" points="745.6 199.03 747.1 200.13 748.9 197.03"/><polyline class="cls-15" points="746.9 206.32 748.4 207.43 750.1 204.32"/><path class="cls-9" d="M435.24,181.52l-.4-2.5a1.34,1.34,0,0,1,1.2-1.5l10.5-1.2a1.34,1.34,0,0,1,1.5,1.1l.3,2.2a1.34,1.34,0,0,1-1.1,1.5l-10.4,1.4A1.25,1.25,0,0,1,435.24,181.52Z" transform="translate(263.96)"/><path class="cls-16" d="M474.94,163.23c-1.5-1.61-2.3-2.21-8.1-2.61-2-.1-5.6.11-8.5.21-1.4,0-2.3-.3-3.3-.21-3,.5-6.5,4-8.2,5.21s-4.8,2.7-4.8,2.7l9.9-1a1.41,1.41,0,0,1,1.5.8,37.59,37.59,0,0,1,2.2,5.2c1.2,3.8,2.5,8.6,4.2,7.4,1-.7,1-3.9.7-6.1,0,.29.1.5.1.79.3,3.8-.3,9.5,1.9,9.61,2,.1,2.3-2.3,2.3-2.3a1.4,1.4,0,0,0,1.9.9c1.6-.6,3.9-5.5,4.6-8.4.1,1.3-.2,1.8.7,2.1,1.9.6,3.4-5.5,3.9-9.9C476.24,164.83,475.74,164,474.94,163.23Z" transform="translate(263.96)"/><path class="cls-19" d="M464.74,182.83l1.4-7.3a38.44,38.44,0,0,0,0-9,12.81,12.81,0,0,0-1-2.5" transform="translate(263.96)"/><path class="cls-19" d="M471.34,175.33a61.12,61.12,0,0,0,1.3-8.21,14,14,0,0,0-.5-3.1" transform="translate(263.96)"/><path class="cls-19" d="M460.64,176.93a46.24,46.24,0,0,0,0-5.4,35.48,35.48,0,0,0-1.9-6.5" transform="translate(263.96)"/><path class="cls-8" d="M376.84,51.92a13.11,13.11,0,0,0-9.6-12.6,13,13,0,0,0-13-11.8,11.79,11.79,0,0,0-4.6.9,13.16,13.16,0,0,0-9.8-4.5,12.81,12.81,0,0,0-10.9,5.9c-.4,0-.8-.1-1.2-.1a13,13,0,0,0-10.6,20.5,13.16,13.16,0,0,0-1.3,5.6,13,13,0,0,0,26,0,12.43,12.43,0,0,0-1.4-5.8,17.73,17.73,0,0,0,4-.8,13.44,13.44,0,0,0,6.4,4,15,15,0,0,0,1.6,5.2,13,13,0,1,0,23.6,7.5,12.75,12.75,0,0,0-1.7-6.4A12.34,12.34,0,0,0,376.84,51.92Z" transform="translate(263.96)"/><path class="cls-16" d="M340.54,46.33a16.56,16.56,0,0,0-16.7,15.4c-.3,3.89-.7,9.3-1.4,13.8-1.2,7.8,0,19.39,12.3,22.2s24.3-9,27-19.2,5-25.11-9.5-30A40.53,40.53,0,0,0,340.54,46.33Z" transform="translate(263.96)"/><path class="cls-8" d="M357.84,73.62s-1.9-1.6-2.5-8.1a2,2,0,0,0-1.5-1.7c-2.2-.5-6.2-2.8-7.6-11.9a41,41,0,0,1-12.6,5.7c-6.8,1.61-11.1-4.6-13.3-7.8-3.9-5.7-3.4-7.1-1.6-9.3,8.9-11,24.7-6.4,27.6-5.4s13.2.2,20.3,7.8,5.5,18.5,3.6,25.2-11.4,18.61-11.4,19.5S357.84,73.62,357.84,73.62Z" transform="translate(263.96)"/><path class="cls-16" d="M356.44,74.12s1.9-5,6.2-4.3c3.4.5,4.1,12.2-4.2,13.9" transform="translate(263.96)"/><path class="cls-8" d="M330.54,68.73a6.06,6.06,0,0,1-.8,3.19,12.13,12.13,0,0,1-1,1.4c-.2.2-.3.4-.4.5s-.2.3-.3.5a2.3,2.3,0,0,0,.2,2.1,6.69,6.69,0,0,0,2,2.2,4.77,4.77,0,0,1-3.1-1.3,3.11,3.11,0,0,1-.9-1.7,3.08,3.08,0,0,1,.2-2.1,4.05,4.05,0,0,1,.5-.9l.6-.6c.4-.3.7-.7,1.1-1C329.24,70.33,329.84,69.62,330.54,68.73Z" transform="translate(263.96)"/><path class="cls-15" d="M337,85.73a6.9,6.9,0,0,0,5.6-4.11" transform="translate(263.96)"/><path class="cls-8" d="M341,63c-.6-.7-.6-2.5.6-2.9s4.4,0,6.5,2.7-2.1.6-3.3.4S341.54,63.53,341,63Z" transform="translate(263.96)"/><path class="cls-8" d="M329.14,62.12a1.08,1.08,0,0,0,1.4-.7,2,2,0,0,0-.2-1.89c-.5-.7-4.6-.2-5.3,1.7-.5,1.3,2.1.19,3,.5A2.93,2.93,0,0,1,329.14,62.12Z" transform="translate(263.96)"/><path class="cls-8" d="M328.14,68.53a1.59,1.59,0,0,0-1.4-1.8h0a1.59,1.59,0,0,0-1.8,1.39v.4l3.2.4Z" transform="translate(263.96)"/><path class="cls-8" d="M343.64,70.42a1.61,1.61,0,1,0-3.2-.4v.3l3.2.4Z" transform="translate(263.96)"/><path class="cls-8" d="M363.14,74.33a1.9,1.9,0,0,0-.9-.3c-.2,0-.3.2-.5.3l-.1.1v1.1a9.24,9.24,0,0,1-.1,2.3,2.33,2.33,0,0,1-.8,1.2,1.53,1.53,0,0,1-1.3.2c.3-.3.6-.5.6-.8a1.1,1.1,0,0,0,0-.8c-.1-.5-.2-1.2-.3-2a6.15,6.15,0,0,1,.1-1.3,5.9,5.9,0,0,1,.4-.8,1.22,1.22,0,0,1,.4-.3l.3-.2a1.59,1.59,0,0,1,1.5,0A1.54,1.54,0,0,1,363.14,74.33Z" transform="translate(263.96)"/><ellipse class="cls-22" cx="322.69" cy="69.25" rx="7.9" ry="6.1" transform="translate(483.77 382.84) rotate(-83.95)"/><ellipse class="cls-22" cx="343.81" cy="70.89" rx="7.9" ry="7" transform="translate(501.03 405.31) rotate(-83.95)"/><path class="cls-15" d="M328.84,68.83s2-1.6,8.1.9" transform="translate(263.96)"/><line class="cls-15" x1="614.7" y1="70.92" x2="621.8" y2="71.92"/><path class="cls-10" d="M243.94,230c-1.2,0,4-12.2,9.3-10.5S250.64,230,243.94,230Z" transform="translate(263.96)"/><path class="cls-10" d="M244.54,231.62s-5.8-7.2-11.5-5.6S234.44,235.93,244.54,231.62Z" transform="translate(263.96)"/><path class="cls-10" d="M242.84,224.43s8.6-14.8,4.9-18.3C241.34,199.83,233.24,218.43,242.84,224.43Z" transform="translate(263.96)"/><path class="cls-8" d="M257.24,258l-12.6,2.8a7.49,7.49,0,0,1-8.5-4.4l-5.7-13.8a4.62,4.62,0,0,1,3.3-6.29l22.8-5.1a4.7,4.7,0,0,1,5.7,4.29l.7,14.9A7.35,7.35,0,0,1,257.24,258Z" transform="translate(263.96)"/><path class="cls-23" d="M245.34,234.73s-4-12.11-2.5-17.8" transform="translate(263.96)"/></g></g></svg>