<svg xmlns="http://www.w3.org/2000/svg" xmlns:xlink="http://www.w3.org/1999/xlink" viewBox="0 0 1219.4 519.48"><defs><style>.cls-1,.cls-11,.cls-12,.cls-14,.cls-16,.cls-18,.cls-21,.cls-4,.cls-6{fill:none;}.cls-2{fill:#eaf9f3;}.cls-3{clip-path:url(#clip-path);}.cls-4,.cls-6{stroke:#88b4e2;}.cls-11,.cls-12,.cls-14,.cls-16,.cls-18,.cls-21,.cls-4,.cls-6{stroke-linecap:round;stroke-linejoin:round;}.cls-11,.cls-12,.cls-14,.cls-16,.cls-18,.cls-4{stroke-width:1.8px;}.cls-5{fill:#88b4e2;}.cls-6{stroke-width:1.8px;}.cls-7{fill:#5083b9;}.cls-8{fill:#fda53a;}.cls-9{fill:#22272e;}.cls-10{fill:#63737a;}.cls-11{stroke:#63737a;}.cls-12{stroke:#fda53a;}.cls-13{fill:#f4c2c9;}.cls-14{stroke:#e26e85;}.cls-15{fill:#fff;}.cls-16{stroke:#5083b9;}.cls-17{fill:#f8ab5d;}.cls-18,.cls-21{stroke:#22272e;}.cls-19{clip-path:url(#clip-path-3);}.cls-20{fill:#e26e85;}.cls-21{stroke-width:1.8px;}</style><clipPath id="clip-path" transform="translate(263.96)"><path class="cls-1" d="M591.84,436l-520-14.9a48.07,48.07,0,0,1-46.5-43.3l-25.1-248a48.18,48.18,0,0,1,47.2-53l578.8-8a48.21,48.21,0,0,1,48.5,54.1L641,393.78A48.27,48.27,0,0,1,591.84,436Z"/></clipPath><clipPath id="clip-path-3" transform="translate(263.96)"><path class="cls-1" d="M320.54,185.48s-21.6,1.2-34.2,5.7-10.3,14.5-11.9,25-11.9,21.2-6.7,35.5,10.3,22.4,7.6,33.4-5.2,16.5-4.8,19.6,14.8,12.6,20.3,14.5,16.2-5.7,16.2-5.7,5.5,7.2,13.5,8.8,40.4-6.7,47.8-15a51.86,51.86,0,0,1-5-20.5c-.2-11.2,6.3-25.1,8.7-32.8s15.9-37.4,10.6-47.3C378.84,199.58,350.44,183.58,320.54,185.48Z"/></clipPath></defs><g id="Layer_2" data-name="Layer 2"><g id="illustration"><path class="cls-2" d="M591.84,436l-520-14.9a48.07,48.07,0,0,1-46.5-43.3l-25.1-248a48.18,48.18,0,0,1,47.2-53l578.8-8a48.21,48.21,0,0,1,48.5,54.1L641,393.78A48.27,48.27,0,0,1,591.84,436Z" transform="translate(263.96)"/><g class="cls-3"><path class="cls-4" d="M167.44,481h-415.5a15,15,0,0,1-15-15V230.28a15,15,0,0,1,15-15h415.5a15,15,0,0,1,15,15V466A15,15,0,0,1,167.44,481Z" transform="translate(263.96)"/><path class="cls-4" d="M716.54,465.18H297.44a15,15,0,0,1-15-15V105.88a15,15,0,0,1,15-15h419.1a15,15,0,0,1,15,15v344.3A15,15,0,0,1,716.54,465.18Z" transform="translate(263.96)"/><path class="cls-4" d="M67.84,145h-89.9v-8.9h89.9a1.79,1.79,0,0,1,1.8,1.8v5.2A1.82,1.82,0,0,1,67.84,145Z" transform="translate(263.96)"/><path class="cls-4" d="M51.54,136.08H31.24a4.32,4.32,0,0,1-4.3-3.8l-1.6-14.4a4.33,4.33,0,0,1,4.3-4.8h23.5a4.34,4.34,0,0,1,4.3,4.8l-1.6,14.4A4.41,4.41,0,0,1,51.54,136.08Z" transform="translate(263.96)"/><path class="cls-5" d="M38.94,113.08s-8-.8-9.6-11.6c0,0,7.2,2.1,9.5,7.2,0,0,1-11.4,6.4-12.5,0,0,2.4,8.5-1.4,12.7,0,0,2.9-4.8,10.3-4.7a13.6,13.6,0,0,1-9.2,8.8" transform="translate(263.96)"/><path class="cls-4" d="M164.24,265.08H74a4.23,4.23,0,0,1-4.2-4.2v-27.4a4.23,4.23,0,0,1,4.2-4.2h90.2a4.23,4.23,0,0,1,4.2,4.2v27.4A4.1,4.1,0,0,1,164.24,265.08Z" transform="translate(263.96)"/><path class="cls-5" d="M129.54,238.88h-20.8a1.54,1.54,0,0,1-1.5-1.5h0a1.54,1.54,0,0,1,1.5-1.5h20.8a1.54,1.54,0,0,1,1.5,1.5h0A1.54,1.54,0,0,1,129.54,238.88Z" transform="translate(263.96)"/><path class="cls-4" d="M164.24,310.88H74a4.23,4.23,0,0,1-4.2-4.2v-27.4a4.23,4.23,0,0,1,4.2-4.2h90.2a4.23,4.23,0,0,1,4.2,4.2v27.4A4.1,4.1,0,0,1,164.24,310.88Z" transform="translate(263.96)"/><path class="cls-5" d="M129.54,284.68h-20.8a1.54,1.54,0,0,1-1.5-1.5h0a1.54,1.54,0,0,1,1.5-1.5h20.8a1.54,1.54,0,0,1,1.5,1.5h0A1.47,1.47,0,0,1,129.54,284.68Z" transform="translate(263.96)"/><path class="cls-4" d="M627.44,343.18h-90.2A4.23,4.23,0,0,1,533,339v-27.4a4.23,4.23,0,0,1,4.2-4.2h90.2a4.23,4.23,0,0,1,4.2,4.2V339A4.1,4.1,0,0,1,627.44,343.18Z" transform="translate(263.96)"/><path class="cls-5" d="M592.74,317.08h-20.8a1.54,1.54,0,0,1-1.5-1.5h0a1.54,1.54,0,0,1,1.5-1.5h20.8a1.54,1.54,0,0,1,1.5,1.5h0A1.54,1.54,0,0,1,592.74,317.08Z" transform="translate(263.96)"/><path class="cls-4" d="M511.64,343.18h-90.2a4.23,4.23,0,0,1-4.2-4.2v-27.4a4.23,4.23,0,0,1,4.2-4.2h90.2a4.23,4.23,0,0,1,4.2,4.2V339A4.23,4.23,0,0,1,511.64,343.18Z" transform="translate(263.96)"/><path class="cls-5" d="M476.94,317.08h-20.8a1.54,1.54,0,0,1-1.5-1.5h0a1.54,1.54,0,0,1,1.5-1.5h20.8a1.54,1.54,0,0,1,1.5,1.5h0A1.54,1.54,0,0,1,476.94,317.08Z" transform="translate(263.96)"/><path class="cls-4" d="M49.24,265.08H-41a4.23,4.23,0,0,1-4.2-4.2v-27.4a4.23,4.23,0,0,1,4.2-4.2h90.2a4.23,4.23,0,0,1,4.2,4.2v27.4A4.1,4.1,0,0,1,49.24,265.08Z" transform="translate(263.96)"/><path class="cls-5" d="M14.54,238.88H-6.26a1.54,1.54,0,0,1-1.5-1.5h0a1.54,1.54,0,0,1,1.5-1.5h20.8a1.54,1.54,0,0,1,1.5,1.5h0A1.47,1.47,0,0,1,14.54,238.88Z" transform="translate(263.96)"/><path class="cls-4" d="M49.24,310.88H-41a4.23,4.23,0,0,1-4.2-4.2v-27.4a4.23,4.23,0,0,1,4.2-4.2h90.2a4.23,4.23,0,0,1,4.2,4.2v27.4A4.1,4.1,0,0,1,49.24,310.88Z" transform="translate(263.96)"/><path class="cls-5" d="M14.54,284.68H-6.26a1.54,1.54,0,0,1-1.5-1.5h0a1.54,1.54,0,0,1,1.5-1.5h20.8a1.54,1.54,0,0,1,1.5,1.5h0A1.42,1.42,0,0,1,14.54,284.68Z" transform="translate(263.96)"/><path class="cls-4" d="M758.74,195.68h-455a4.65,4.65,0,0,1-4.6-4.6v-79.7a4.65,4.65,0,0,1,4.6-4.6h455a4.65,4.65,0,0,1,4.6,4.6v79.7A4.59,4.59,0,0,1,758.74,195.68Z" transform="translate(263.96)"/><path class="cls-4" d="M758.74,294.58h-455a4.65,4.65,0,0,1-4.6-4.6v-79.7a4.65,4.65,0,0,1,4.6-4.6h455a4.65,4.65,0,0,1,4.6,4.6V290A4.53,4.53,0,0,1,758.74,294.58Z" transform="translate(263.96)"/><rect class="cls-4" x="593.8" y="145.38" width="9.9" height="50.3"/><rect class="cls-4" x="603.6" y="159.08" width="10.3" height="36.6"/><rect class="cls-4" x="892.1" y="244.18" width="9.9" height="50.3"/><rect class="cls-4" x="902" y="257.88" width="10.3" height="36.6"/><rect class="cls-4" x="872" y="244.18" width="9.9" height="50.3"/><rect class="cls-6" x="570.74" y="263.59" width="50.3" height="9.9" transform="translate(424.35 755.92) rotate(-72.48)"/><rect class="cls-4" x="881.9" y="257.88" width="10.3" height="36.6"/><rect class="cls-4" x="758.6" y="145.38" width="9.9" height="50.3"/><rect class="cls-4" x="768.5" y="159.08" width="10.3" height="36.6"/><rect class="cls-4" x="660.8" y="145.38" width="9.9" height="50.3"/><rect class="cls-6" x="359.54" y="164.77" width="50.3" height="9.9" transform="translate(370.97 485.45) rotate(-72.48)"/><rect class="cls-4" x="670.7" y="159.08" width="10.3" height="36.6"/><path class="cls-5" d="M637.94,152l1.1-14.9a1.65,1.65,0,0,0-1.7-1.8h-8.6a1.71,1.71,0,0,0-1.7,1.8l1.1,14.9s-9,5.8-8.9,10.6c.1,3.7,2.3,21.4,3.3,29.2a4.32,4.32,0,0,0,4.3,3.8h12.4a4.32,4.32,0,0,0,4.3-3.8c1-7.8,3.2-25.5,3.3-29.2C646.94,157.68,637.94,152,637.94,152Z" transform="translate(263.96)"/><path class="cls-5" d="M598,152l1.1-14.9a1.65,1.65,0,0,0-1.7-1.8h-8.6a1.71,1.71,0,0,0-1.7,1.8l1.1,14.9s-9,5.8-8.9,10.6c.1,3.7,2.3,21.4,3.3,29.2a4.32,4.32,0,0,0,4.3,3.8h12.4a4.32,4.32,0,0,0,4.3-3.8c1-7.8,3.2-25.5,3.3-29.2C607,157.68,598,152,598,152Z" transform="translate(263.96)"/><line class="cls-4" x1="262.7" y1="388.98" x2="1218.5" y2="388.98"/></g><g class="cls-3"><polygon class="cls-5" points="350.6 399.18 350.6 519.48 358.7 519.48 361.3 399.18 350.6 399.18"/><polygon class="cls-7" points="361.3 399.18 350.6 399.18 350.6 412.28 361 412.28 361.3 399.18"/><polygon class="cls-5" points="831.1 399.18 831.1 519.48 822.9 519.48 820.4 399.18 831.1 399.18"/><polygon class="cls-7" points="820.4 399.18 831.1 399.18 831.1 412.28 820.7 412.28 820.4 399.18"/><polygon class="cls-8" points="865.7 394.28 316 394.28 374.5 368.68 807.1 368.68 865.7 394.28"/><rect class="cls-5" x="316" y="394.28" width="549.7" height="7.7"/></g><path class="cls-9" d="M116.94,335.38l-12.7,7.3a4,4,0,0,1-5.5-1.5l-36.4-62.8a4,4,0,0,1,1.5-5.5l12.7-7.3a4,4,0,0,1,5.5,1.5l36.4,62.8A4.07,4.07,0,0,1,116.94,335.38Z" transform="translate(263.96)"/><path class="cls-10" d="M108,326.48a4,4,0,1,0-1.5,5.5A4.07,4.07,0,0,0,108,326.48Z" transform="translate(263.96)"/><line class="cls-11" x1="355.3" y1="316.48" x2="364.6" y2="311.08"/><line class="cls-11" x1="352.7" y1="312.08" x2="362.1" y2="306.68"/><path class="cls-8" d="M136.14,292.48l-8.2,34.7c-.3,1,4.5,3.5,10.9,5.7s11.8,3.2,12.1,2.3l15.1-32.3Z" transform="translate(263.96)"/><path class="cls-12" d="M158.24,311.58l5.6,1.9a4.26,4.26,0,0,1,2.4,6l-4.7,9a4.24,4.24,0,0,1-5.2,2l-6.1-2.1" transform="translate(263.96)"/><path class="cls-7" d="M166,303c-.4,1.2-7.5-.1-15.7-3s-14.6-6.2-14.2-7.5,7.5.1,15.7,3S166.44,301.68,166,303Z" transform="translate(263.96)"/><path class="cls-10" d="M219.24,122.78l-114.7,30.4a7,7,0,0,1-8.8-6L81.44,23.48a4.74,4.74,0,0,1,5.1-5.3l116.6,8.1a7,7,0,0,1,6.5,6l13,85.2A4.65,4.65,0,0,1,219.24,122.78Z" transform="translate(263.96)"/><path class="cls-9" d="M224.54,123.18l-115.9,30.7a7.16,7.16,0,0,1-8.9-6.1l-14.4-125a4.89,4.89,0,0,1,5.2-5.4l117.9,8.1a7.13,7.13,0,0,1,6.6,6l13.2,86.1A5.27,5.27,0,0,1,224.54,123.18Z" transform="translate(263.96)"/><path class="cls-7" d="M133.84,41.08l-28.3-.4a1.09,1.09,0,0,1-1.1-1l-.4-3.2a1.16,1.16,0,0,1,1.1-1.3l28.4.8a1.09,1.09,0,0,1,1.1,1l.4,2.9A1.22,1.22,0,0,1,133.84,41.08Z" transform="translate(263.96)"/><line class="cls-11" x1="369.8" y1="51.68" x2="424.6" y2="50.98"/><line class="cls-11" x1="371.2" y1="62.78" x2="405.9" y2="61.38"/><path class="cls-8" d="M120.24,131.18l-3.3.7a1.21,1.21,0,0,1-1.5-1.1l-3.3-27.7a1.24,1.24,0,0,1,1.1-1.4l3.3-.5a1.24,1.24,0,0,1,1.4,1.1l3.4,27.5A1.52,1.52,0,0,1,120.24,131.18Z" transform="translate(263.96)"/><path class="cls-7" d="M131.94,127.28l-5.5-44a1.24,1.24,0,0,1,1.1-1.4l2.8-.3a1.11,1.11,0,0,1,1.3,1.1l5.5,43.6a1.28,1.28,0,0,1-1,1.4l-2.9.6C132.74,128.48,132,128,131.94,127.28Z" transform="translate(263.96)"/><path class="cls-8" d="M147.24,124l-2.1-16.2a1.25,1.25,0,0,1,1-1.4l2.4-.4a1.24,1.24,0,0,1,1.4,1.1l2.1,16.1a1.28,1.28,0,0,1-1,1.4l-2.4.5A1.19,1.19,0,0,1,147.24,124Z" transform="translate(263.96)"/><path class="cls-13" d="M164.84,121.58l-2.1.4a1.2,1.2,0,0,1-1.5-1l-1.2-8.7a1.25,1.25,0,0,1,1-1.4l2.1-.4a1.19,1.19,0,0,1,1.4,1.1l1.2,8.7A1.13,1.13,0,0,1,164.84,121.58Z" transform="translate(263.96)"/><path class="cls-7" d="M205.64,109.48,197,90.18l7.4-17.1c3.4,3.6,5.9,9,6.9,15.1C212.44,96.88,210.14,105.18,205.64,109.48Z" transform="translate(263.96)"/><path class="cls-13" d="M204.34,73.08l-7.4,17.1-14.5-11.6c2.1-5.9,6.2-10,11.3-10.3C197.54,68,201.34,69.78,204.34,73.08Z" transform="translate(263.96)"/><path class="cls-8" d="M205.64,109.48a11,11,0,0,1-5.4,2.9c-8.4,1.8-17.1-7.2-18.9-20.1a30.88,30.88,0,0,1,1.1-13.8l14.5,11.6Z" transform="translate(263.96)"/><path class="cls-8" d="M302.54,24.28A229.64,229.64,0,0,0,316.94,48a4.88,4.88,0,0,0,6.9,1.2,119.83,119.83,0,0,1,14.7-8.5,5.45,5.45,0,0,0,2.6-6.9c-2.7-6.3-5.5-14.7-7.8-22.1A16.59,16.59,0,0,0,310,1.78h0A16.53,16.53,0,0,0,302.54,24.28Z" transform="translate(263.96)"/><path class="cls-13" d="M335.74,35.18a4.33,4.33,0,0,1,3.7,1.8,37.67,37.67,0,0,0,7.8,8.5c4.7,3.3,21.8,6.2,23.2,8.7s-2.7,3.3-5.5,3-5.2-.6-5.8.6.2,6.2,4.1,9.7,10.9,7.2,11.2,10.4-7.6.1-11.1-2.1-4.5-2.6-4.5-2.6-.5,1-3.3,2c-1.6.5-3.3-.8-4.8-.5s-8.2,3.7-11.4,2.1c-2.3-1.2-7.4-12.8-9.9-15.9-1.8-2.3-6.1-8.9-8.2-12.2a4.12,4.12,0,0,1-.1-4.4A16.75,16.75,0,0,1,335.74,35.18Z" transform="translate(263.96)"/><path class="cls-14" d="M358.74,73.28a29.25,29.25,0,0,1-5.5-3.6,11,11,0,0,1-1.6-2.2" transform="translate(263.96)"/><path class="cls-14" d="M350.64,74.68a20.78,20.78,0,0,1-3.3-1.7,17.84,17.84,0,0,1-2.2-2.9" transform="translate(263.96)"/><path class="cls-14" d="M344.84,76.68a11.08,11.08,0,0,1-2.8-1.6,24.58,24.58,0,0,1-2.1-2.4" transform="translate(263.96)"/><path class="cls-7" d="M269.54,103.38a.83.83,0,0,1,1.6,0,11.22,11.22,0,0,0,1.8,3.8,12.25,12.25,0,0,0,3.8,1.8.83.83,0,0,1,0,1.6,11.22,11.22,0,0,0-3.8,1.8,12.25,12.25,0,0,0-1.8,3.8.83.83,0,0,1-1.6,0,11.22,11.22,0,0,0-1.8-3.8,12.25,12.25,0,0,0-3.8-1.8.83.83,0,0,1,0-1.6,11.22,11.22,0,0,0,3.8-1.8A11.22,11.22,0,0,0,269.54,103.38Z" transform="translate(263.96)"/><path class="cls-7" d="M281.64,45.68a.63.63,0,0,1,1.2,0,7.51,7.51,0,0,0,1.3,2.7,8.48,8.48,0,0,0,2.7,1.3.62.62,0,0,1,0,1.2,7.51,7.51,0,0,0-2.7,1.3,8.48,8.48,0,0,0-1.3,2.7.62.62,0,0,1-1.2,0,7.51,7.51,0,0,0-1.3-2.7,8.48,8.48,0,0,0-2.7-1.3.62.62,0,0,1,0-1.2,7.51,7.51,0,0,0,2.7-1.3A7.55,7.55,0,0,0,281.64,45.68Z" transform="translate(263.96)"/><path class="cls-7" d="M376.34,95.38a.63.63,0,0,1,1.2,0,7.51,7.51,0,0,0,1.3,2.7,11.34,11.34,0,0,0,2.7,1.3.63.63,0,0,1,0,1.2,7.51,7.51,0,0,0-2.7,1.3,8.48,8.48,0,0,0-1.3,2.7.63.63,0,0,1-1.2,0,7.51,7.51,0,0,0-1.3-2.7,8.48,8.48,0,0,0-2.7-1.3.63.63,0,0,1,0-1.2,7.51,7.51,0,0,0,2.7-1.3A6.17,6.17,0,0,0,376.34,95.38Z" transform="translate(263.96)"/><path class="cls-8" d="M291.74,78.28c.2-.5.8-.5.9,0a9.26,9.26,0,0,0,1,2.2,5,5,0,0,0,2.2,1c.5.2.5.8,0,.9a9.26,9.26,0,0,0-2.2,1,5,5,0,0,0-1,2.2c-.2.5-.8.5-.9,0a9.26,9.26,0,0,0-1-2.2,5,5,0,0,0-2.2-1c-.5-.2-.5-.8,0-.9a9.26,9.26,0,0,0,2.2-1A7.66,7.66,0,0,0,291.74,78.28Z" transform="translate(263.96)"/><path class="cls-8" d="M384.34,122.08a.83.83,0,0,1,1.6,0,11.22,11.22,0,0,0,1.8,3.8,12.25,12.25,0,0,0,3.8,1.8.83.83,0,0,1,0,1.6,11.22,11.22,0,0,0-3.8,1.8,12.25,12.25,0,0,0-1.8,3.8.83.83,0,0,1-1.6,0,11.22,11.22,0,0,0-1.8-3.8,12.25,12.25,0,0,0-3.8-1.8.83.83,0,0,1,0-1.6,11.22,11.22,0,0,0,3.8-1.8A13.5,13.5,0,0,0,384.34,122.08Z" transform="translate(263.96)"/><path class="cls-9" d="M553.34,102.18s-1.4,1.4,1.2,12a59.48,59.48,0,0,0,8.5,18.7,18.42,18.42,0,0,0,5.3-17.4C566.14,104.48,553.34,102.18,553.34,102.18Z" transform="translate(263.96)"/><path class="cls-13" d="M554.84,133.38s-2,.6-6.7,5.5-11.6,7.4-19.8,11.1-12.2-13.5-10.1-22.2,11-14.7,11-14.7l17.5,2.4s5.8-6.9,8.1-2.4S556.84,127.68,554.84,133.38Z" transform="translate(263.96)"/><path class="cls-9" d="M539.84,165.28,480.24,179a4.82,4.82,0,0,1-5.8-3.6l-16.9-73.2a4.82,4.82,0,0,1,3.6-5.8l59.6-13.7a4.82,4.82,0,0,1,5.8,3.6l16.8,73.2A4.69,4.69,0,0,1,539.84,165.28Z" transform="translate(263.96)"/><path class="cls-8" d="M514.74,103.68l-38.8,8.9a2.31,2.31,0,0,1-2.8-1.8h0a2.31,2.31,0,0,1,1.8-2.8l38.8-8.9a2.31,2.31,0,0,1,2.8,1.8h0A2.53,2.53,0,0,1,514.74,103.68Z" transform="translate(263.96)"/><line class="cls-11" x1="739.8" y1="122.88" x2="783.2" y2="112.88"/><line class="cls-11" x1="741.5" y1="130.18" x2="784.9" y2="120.18"/><path class="cls-8" d="M503.44,159l-16,3.7a2.31,2.31,0,0,1-2.8-1.8l-3.7-16a2.31,2.31,0,0,1,1.8-2.8l16-3.7a2.31,2.31,0,0,1,2.8,1.8l3.7,16A2.53,2.53,0,0,1,503.44,159Z" transform="translate(263.96)"/><line class="cls-11" x1="771.4" y1="136.28" x2="787.7" y2="132.48"/><line class="cls-11" x1="773.2" y1="144.18" x2="789.6" y2="140.48"/><line class="cls-11" x1="775" y1="152.18" x2="784.9" y2="149.88"/><path class="cls-7" d="M502.14,89.28l-21.2,4.9a2.11,2.11,0,0,1-2.5-2.5l.2-1a2.17,2.17,0,0,1,1.6-1.6l20.3-4.7a2.07,2.07,0,0,1,2.1.7l.6.8A2.09,2.09,0,0,1,502.14,89.28Z" transform="translate(263.96)"/><path class="cls-13" d="M548.14,109.38s-2.5,1.3-7.3,0-5.6-2.5-10.6-3.8-11.9.1-13.1,2.2,2,3.4,6.3,3.9,6.3,8.7,13.2,11.8C548.14,128.58,558.34,113,548.14,109.38Z" transform="translate(263.96)"/><path class="cls-14" d="M517.14,107.78c-1.2,2.1,2,3.4,6.3,3.9s6.3,8.7,13.2,11.8a11,11,0,0,0,6.8.8" transform="translate(263.96)"/><path class="cls-15" d="M555.74,104.78s-5.3,3.4-7.6,4.6a26.6,26.6,0,0,1,6.3,12.3c1.8,7.9.4,11.7.4,11.7s5.9-.6,8.8-2.7c0,0,2.8-4.6.5-13.6S555.74,104.78,555.74,104.78Z" transform="translate(263.96)"/><path class="cls-7" d="M618.54,92.58a20.15,20.15,0,0,0-30.9-10.7,222.29,222.29,0,0,1-19,12.1l-15.3,8.3s8.7,8.6,10,18.1S563,133,563,133s23.9-5.9,45-16.2a20.5,20.5,0,0,0,10.5-24.2Z" transform="translate(263.96)"/><path class="cls-9" d="M561,125.68a1.2,1.2,0,1,0-1.2,1.2A1.16,1.16,0,0,0,561,125.68Z" transform="translate(263.96)"/><polygon class="cls-10" points="690.8 310.28 761.5 301.98 760.3 314.78 746.4 316.78 745 319.38 690.8 310.28"/><path class="cls-9" d="M481,318l18.4-72.9a6.41,6.41,0,0,1,5.3-4.8l94.5-14.1a2.82,2.82,0,0,1,3.1,3.6L583,295.08a6.62,6.62,0,0,1-4.8,4.5l-93.9,21.9A2.84,2.84,0,0,1,481,318Z" transform="translate(263.96)"/><path class="cls-10" d="M553.34,271.38c-1,3.6-4.3,7.1-7.6,7.8s-5.1-1.7-4.1-5.3,4.3-7.1,7.6-7.8S554.34,267.78,553.34,271.38Z" transform="translate(263.96)"/><path class="cls-9" d="M482.44,321.18c-.3-.2-41.3-5.6-52.7-7.2a3.26,3.26,0,0,1-2.9-3.3v-.4l55.6,6.5v4.4Z" transform="translate(263.96)"/><path class="cls-16" d="M568.44,183.78h30.8a2.53,2.53,0,0,1,2.5,2.7l-1.6,19.3A3.43,3.43,0,0,1,597,209l-31,3.4a2.44,2.44,0,0,1-2.7-2.6l1.7-22.7A3.35,3.35,0,0,1,568.44,183.78Z" transform="translate(263.96)"/><path class="cls-16" d="M566.44,184.48l18,9.7a3.54,3.54,0,0,0,3.7-.3l12.8-9.4" transform="translate(263.96)"/><path class="cls-9" d="M395.34,86.48l-3.2,3.5a1.52,1.52,0,0,0,0,2h0a1.53,1.53,0,0,0,1.8.3l3.8-2.3Z" transform="translate(263.96)"/><path class="cls-9" d="M424.54,95l.9,4.7a1.55,1.55,0,0,1-1,1.7h0a1.38,1.38,0,0,1-1.7-.8l-2-4Z" transform="translate(263.96)"/><circle class="cls-7" cx="677.8" cy="77.28" r="21.8"/><circle class="cls-8" cx="413.83" cy="77.3" r="14" transform="translate(277.9 208.91) rotate(-28.8)"/><polyline class="cls-11" points="681.7 82.28 677.8 77.28 679.9 70.28"/><path class="cls-7" d="M399.94,56.18a1.16,1.16,0,0,1-1.5-.8A6.34,6.34,0,0,1,410,51a1.07,1.07,0,0,1-.6,1.6Z" transform="translate(263.96)"/><path class="cls-7" d="M436.84,67a1.15,1.15,0,0,0,1.7.1,6.31,6.31,0,0,0-7.4-9.9,1.08,1.08,0,0,0-.4,1.6Z" transform="translate(263.96)"/><path class="cls-7" d="M423.74,53.88l-5.7-1.6a1.77,1.77,0,0,1-1.2-2.2h0a1.77,1.77,0,0,1,2.2-1.2l5.7,1.6a1.77,1.77,0,0,1,1.2,2.2h0A1.81,1.81,0,0,1,423.74,53.88Z" transform="translate(263.96)"/><rect class="cls-7" x="417.57" y="52.55" width="5.6" height="4.3" transform="translate(514.52 443.12) rotate(-73.8)"/><path class="cls-9" d="M181.14,222.68l.9,9.2a2.16,2.16,0,0,1-1.3,2.2,7.22,7.22,0,0,0-4.2,7.2l1.1,10.2a7,7,0,0,0,5.6,6.2,2.24,2.24,0,0,1,1.7,1.9l.9,9.2a2.11,2.11,0,0,1-3.1,2.1l-2.2-1.1a15.78,15.78,0,0,1-8.6-12.6l-2.1-20.3a16,16,0,0,1,5.9-14.1l2-1.6A2.14,2.14,0,0,1,181.14,222.68Z" transform="translate(263.96)"/><path class="cls-17" d="M227.84,28.38c1.8,12.2-5,23.3-16.4,24.9-13.1,1.8-26.8-9.5-28.6-25.1-1.7-15.3,9-25.8,22.1-24C216.44,5.78,226.14,16.38,227.84,28.38Z" transform="translate(263.96)"/><path class="cls-8" d="M232.54,26.28c1.8,12.6-5.1,24.1-16.9,25.7-13.6,1.9-27.7-9.8-29.5-25.9-1.8-15.8,9.3-26.6,22.8-24.8C220.74,3,230.74,14,232.54,26.28Z" transform="translate(263.96)"/><path class="cls-9" d="M216.14,19.28c.4,3.1-1.5,5.5-4.3,5.5s-5.7-2.7-6.1-5.9,1.7-5.6,4.6-5.4A6.79,6.79,0,0,1,216.14,19.28Z" transform="translate(263.96)"/><path class="cls-9" d="M218.84,38.88l-10.3.7c-2.5.2-4.8-1.9-5.2-4.7h0c-.8-6.1,3.2-10.9,8.5-10.8h0c5,.1,9.5,4.6,10.3,10h0C222.34,36.68,220.94,38.78,218.84,38.88Z" transform="translate(263.96)"/><path class="cls-9" d="M540.34,206.58a4,4,0,1,0-.3,5.6A3.88,3.88,0,0,0,540.34,206.58Z" transform="translate(263.96)"/><path class="cls-7" d="M535.14,197.48l-.7-.8a6.28,6.28,0,0,0-8.8-.4h0a6.28,6.28,0,0,0-.4,8.8l.7.8a7.26,7.26,0,0,1,1.7,3.1c.2.9.5,1.9.7,2.9a2.91,2.91,0,0,0,4.8,1.4l4.4-4,4.4-4a2.92,2.92,0,0,0-1-4.9c-1-.3-1.9-.7-2.8-1A6.72,6.72,0,0,1,535.14,197.48Z" transform="translate(263.96)"/><path class="cls-9" d="M455.74,213.18a74,74,0,0,1,0,25.2l32.4-7s-7.2-12-9.1-23Z" transform="translate(263.96)"/><line class="cls-11" x1="720.4" y1="218.38" x2="744.2" y2="213.38"/><line class="cls-11" x1="726" y1="223.08" x2="741.4" y2="219.38"/><line class="cls-11" x1="726.3" y1="227.88" x2="736.6" y2="225.48"/><path class="cls-7" d="M532.34,323.18l21.8-4.9s.3,10,15.7,15.9c0,0-17.1,13-22.4,16.4C547.54,350.48,534.74,343.88,532.34,323.18Z" transform="translate(263.96)"/><line class="cls-18" x1="797.6" y1="329.78" x2="819.5" y2="322.68"/><line class="cls-18" x1="804.8" y1="333.88" x2="818.5" y2="327.58"/><line class="cls-18" x1="807.1" y1="338.08" x2="820.8" y2="330.68"/><line class="cls-18" x1="810.1" y1="342.08" x2="818" y2="337.28"/><path class="cls-5" d="M186.54,167.28a16.55,16.55,0,0,1-5.7.2l1.8-2.8c-3.9.1-13.3-5-14.3-9.7a2.79,2.79,0,0,1,.1-1.6h0v-.1c1.5-3,9.4-2.3,15.2,3.4C190.54,163.38,186.54,167.28,186.54,167.28Z" transform="translate(263.96)"/><path class="cls-7" d="M182.74,164.68l-1.8,2.8a22.15,22.15,0,0,1-8-2.7,14.25,14.25,0,0,1-6.5-6.9c1.1-2.5,1.9-4.2,2.1-4.6a2.86,2.86,0,0,0-.1,1.6C169.44,159.68,178.84,164.78,182.74,164.68Z" transform="translate(263.96)"/><path class="cls-13" d="M127.14,195s4.6,2.1,8.9,1.5,12.7-3,14.4-2.1,4.6,1,3.7,3.9-2.6,6.3-6.4,6.5-7.6,3.2-13.9,1.4-10-2.7-10.2-5.2S127.14,195,127.14,195Z" transform="translate(263.96)"/><path class="cls-15" d="M186.54,167.28c-1.6,4.7-22.5,32.2-32.4,46.6s-26.7,55.2-35.1,53.5-18.8-9.9-17-14.6,23.1-18.1,39.3-41.2,15.8-39.1,20.7-52.2c2.1-5.6,3.6-5.2,3.6-5.2a10.35,10.35,0,0,0,.7,3.8,13.35,13.35,0,0,0,6.5,6.9,22.15,22.15,0,0,0,8,2.7A14.9,14.9,0,0,0,186.54,167.28Z" transform="translate(263.96)"/><path class="cls-4" d="M150.54,208.68s4-7.4,5-11.9" transform="translate(263.96)"/><path class="cls-4" d="M154.34,209.68s2.7-5.1,4.1-6.4" transform="translate(263.96)"/><path class="cls-4" d="M139.64,229.08a64.33,64.33,0,0,1-4,8.5" transform="translate(263.96)"/><path class="cls-4" d="M134,227.68a52.36,52.36,0,0,1-10.4,11.2" transform="translate(263.96)"/><path class="cls-13" d="M142.54,201.18a80.36,80.36,0,0,0,9.7,5.4c3.6,1.4,8.2-.1,8.6-.1s2.3,3,.6,5.1-3.6,2.4-3.8,3.1.3,4.7-.8,6.1-3.2,2.2-3.9,3.1-1.4,5.4-2.5,6.1-2.5,3-5.3,3.4-13.8-4-24-11.9a56.21,56.21,0,0,0-10.7-6.8s4.5-19.7,12.7-17.9S142.54,201.18,142.54,201.18Z" transform="translate(263.96)"/><path class="cls-14" d="M142.54,201.18a80.36,80.36,0,0,0,9.7,5.4c3.6,1.4,8.2-.1,8.6-.1" transform="translate(263.96)"/><path class="cls-7" d="M117.84,188.38a1.92,1.92,0,0,1,2.4.1c1.3,1,6.2,4.9,6.8,6.5s-2.7,11.5-8,17.6-8.1,6.1-8.4,6-7.7-3.5-8.7-4.8a3.26,3.26,0,0,1-.6-2.7S115.44,188.28,117.84,188.38Z" transform="translate(263.96)"/><path class="cls-8" d="M53.14,153.78a20.45,20.45,0,0,0,1.9,27.9c2.3,2.1,4.9,4.5,7.8,7.1,15.6,14,39.8,22.7,39.8,22.7,13.2-6.1,15.2-23.1,15.2-23.1-11.9-7.5-23.7-21.5-32.4-33.7a20.44,20.44,0,0,0-32.3-.9Z" transform="translate(263.96)"/><path class="cls-14" d="M157.74,214.78a18.67,18.67,0,0,1-4.4,1.5,25.35,25.35,0,0,1-4.1,0" transform="translate(263.96)"/><path class="cls-14" d="M153.54,223.58a6.85,6.85,0,0,1-2.9,1.3,5.57,5.57,0,0,1-3.1-.6" transform="translate(263.96)"/><path class="cls-14" d="M149.64,230.88s-2.4.8-3.7-.4" transform="translate(263.96)"/><path class="cls-9" d="M418.14,330c-19.1.4-49.1,7.6-67.3,15a312.15,312.15,0,0,0-30.5,14.3s4.3-2.4,9.4,7.4,3.3,21.2,3.3,21.2c2.6-.7,64.6-2.6,84.4-5.2s42.7-9.8,41.3-29.1-18.4-24.6-41.7-28.9-36.3-2.5-37.7-2.9a18.49,18.49,0,0,1-8.3-5.1c-2.4-2.9-4.9-10.8-4.9-10.8s-60.4-3.8-66.5,6.4,21.3,39.4,21.3,39.4Z" transform="translate(263.96)"/><path class="cls-9" d="M274.14,304.68s-3.3,7.2-4.5,9.8-28.9,3.6-41.3,3.8-36.7,5.2-38.6,23.1c-2.2,20.4,14.9,29.9,45.4,32.1,34.3,2.5,66.1,1.7,72.8,2.4s25.2-7.6,27.3-15.3,31.2-13.6,31.2-13.6,6.4-32-4.1-38.4S274.14,304.68,274.14,304.68Z" transform="translate(263.96)"/><path class="cls-11" d="M335.24,353.38s-56.8-32.7-101.9-30.8" transform="translate(263.96)"/><path class="cls-9" d="M320.34,359.38s-2.8,1.2-1.2,10.8S329.54,390,333,388s1.7-19.4-2.3-25.2S320.34,359.38,320.34,359.38Z" transform="translate(263.96)"/><path class="cls-7" d="M313.84,362.58s-5.5,6.7-8,8.6-13.7,2.7-17.8,9.1,5.3,21.1,12.9,18.7c-2.1,1.3-3.9,2.5-5.3,3.4-6.8,4.6-19.2,11.5-28,1.4-7.4-8.6-4.8-19,.6-25.9s19.3-7.7,22.5-8.6,10.5-6.2,13.7-8.1C307.14,359.58,309.14,361.68,313.84,362.58Z" transform="translate(263.96)"/><path class="cls-13" d="M333.24,384.68c-.4.1-7.6,1.3-10.6,1.9-2.4.5-13.8,7.2-21.8,12.3-7.6,2.4-17-12.3-12.9-18.7s15.3-7.2,17.8-9.1,8-8.6,8-8.6l2.3.3c6.4.5,9.7-1.7,9.7-1.7a19.08,19.08,0,0,1,3.8,5.5C333.14,373.28,333.44,380.58,333.24,384.68Z" transform="translate(263.96)"/><path class="cls-11" d="M418.14,330c-19.1.4-49.1,7.6-67.3,15a312.15,312.15,0,0,0-30.5,14.3" transform="translate(263.96)"/><path class="cls-11" d="M193.84,331.38a7.16,7.16,0,0,1,5.5-.1c5.4,1.8,7.2,13.7,4.5,21.1s-8.7,7.1-10.7,5" transform="translate(263.96)"/><path class="cls-11" d="M455.24,342.08s-5-5.7-10.9,1.4c-6.5,7.7-3.1,20.7,2.1,23.8s8.2,0,8.2,0" transform="translate(263.96)"/><path class="cls-18" d="M236.94,201a1.1,1.1,0,1,1-1.1-1.1A1.11,1.11,0,0,1,236.94,201Z" transform="translate(263.96)"/><path class="cls-13" d="M258.74,182.28c-2.1,7-4.3,10-4.1,16.4a22.61,22.61,0,0,1-21.1-4.2c.6-2.7.9-4.8.5-6.1-1.2-4.8-7.7-7-12.2-13s-4.9-16.6-2.7-17.9c1-.6,2-.4,3.5,4.6a29.61,29.61,0,0,0,2.5,5.9c-2.1-4.8-3-20.6,2.8-18.2,1.9.8-.3,4.2,2,10.3a15.39,15.39,0,0,0,6,8,12.89,12.89,0,0,1,1.9-8.4c2.2-3.1,7.8-6.6,8.8-3.3s-4,4.4-4.4,8.5c-.6,4.9,4.9,8.7,8.6,5.5s1.6-6.8,0-9.1-4.1-5.1-2.3-6.4,6.3.2,9.5,5.7S260.84,175.28,258.74,182.28Z" transform="translate(263.96)"/><path class="cls-7" d="M279,254s-22.5,28.4-37.3,34.8-24.8,1.9-27.7-13.6,6.3-43.2,10.3-53.4c2.9-7.6,7.5-19.6,9.2-27.2a23,23,0,0,0,21.1,4.2c.1,6.1-2.7,28.6-3,30.7.1-.7,1.3-4,9.7-15.8,9.7-13.5,19.4-19.4,19.4-19.4s8.2,3.9,10.6,22.2S279,254,279,254Z" transform="translate(263.96)"/><path class="cls-18" d="M251.64,229.48s-.9,25.6-4.2,33.9" transform="translate(263.96)"/><path class="cls-14" d="M235.84,168.18a11.53,11.53,0,0,0,1.6,4.4" transform="translate(263.96)"/><path class="cls-18" d="M231.24,202.48s5.7,8.2,22.8,5.8" transform="translate(263.96)"/><path class="cls-18" d="M216.94,283.88s-2.6-8.9,7-11,21.3,11.8,13.9,17.3" transform="translate(263.96)"/><path class="cls-14" d="M225,168.18a18,18,0,0,0,3.5,4.9c1,1,2.4,2,3,3.3" transform="translate(263.96)"/><path class="cls-9" d="M344.44,107.68c11.4,2.9,16.8,9.4,16.3,25.8s-2.7,22.3,5.1,31.4,9.9,21.9-4.9,30-47.2,10.2-63.3,0-18-21.1-13.2-31.8,17.6-17.7,14.8-25.4.6.7.6.7a21.64,21.64,0,0,1-7.7-18.3c.6-12.2,15.6-16.8,23.4-17.2,4-.2,8.3,2.3,14.2,3.3C335.64,107,341.54,107,344.44,107.68Z" transform="translate(263.96)"/><path class="cls-8" d="M320.54,185.48s-21.6,1.2-34.2,5.7-10.3,14.5-11.9,25-11.9,21.2-6.7,35.5,10.3,22.4,7.6,33.4-5.2,16.5-4.8,19.6,14.8,12.6,20.3,14.5,16.2-5.7,16.2-5.7,5.5,7.2,13.5,8.8,40.4-6.7,47.8-15a51.86,51.86,0,0,1-5-20.5c-.2-11.2,6.3-25.1,8.7-32.8s15.9-37.4,10.6-47.3C378.84,199.58,350.44,183.58,320.54,185.48Z" transform="translate(263.96)"/><g class="cls-19"><path class="cls-17" d="M266.14,316.58l1,1.2a2,2,0,0,1-.3,2.8l-1.2,1a2,2,0,0,1-2.8-.3l-1-1.2a2,2,0,0,1,.3-2.8l1.2-1A1.94,1.94,0,0,1,266.14,316.58Z" transform="translate(263.96)"/><path class="cls-17" d="M268.24,298.48l1,1.2a2,2,0,0,1-.3,2.8l-1.2,1a2,2,0,0,1-2.8-.3l-1-1.2a2,2,0,0,1,.3-2.8l1.2-1A2,2,0,0,1,268.24,298.48Z" transform="translate(263.96)"/><path class="cls-17" d="M270.44,280.48l1,1.2a2,2,0,0,1-.3,2.8l-1.2,1a2,2,0,0,1-2.8-.3l-1-1.2a2,2,0,0,1,.3-2.8l1.2-1A1.87,1.87,0,0,1,270.44,280.48Z" transform="translate(263.96)"/><path class="cls-17" d="M272.54,262.38l1,1.2a2,2,0,0,1-.3,2.8l-1.2,1a2,2,0,0,1-2.8-.3l-1-1.2a2,2,0,0,1,.3-2.8l1.2-1A2,2,0,0,1,272.54,262.38Z" transform="translate(263.96)"/><path class="cls-17" d="M274.64,244.28l1,1.2a2,2,0,0,1-.3,2.8l-1.2,1a2,2,0,0,1-2.8-.3l-1-1.2a2,2,0,0,1,.3-2.8l1.2-1A2,2,0,0,1,274.64,244.28Z" transform="translate(263.96)"/><path class="cls-17" d="M282.44,318.48l1,1.2a2,2,0,0,1-.3,2.8l-1.2,1a2,2,0,0,1-2.8-.3l-1-1.2a2,2,0,0,1,.3-2.8l1.2-1A1.94,1.94,0,0,1,282.44,318.48Z" transform="translate(263.96)"/><path class="cls-17" d="M284.54,300.38l1,1.2a2,2,0,0,1-.3,2.8l-1.2,1a2,2,0,0,1-2.8-.3l-1-1.2a2,2,0,0,1,.3-2.8l1.2-1A2,2,0,0,1,284.54,300.38Z" transform="translate(263.96)"/><path class="cls-17" d="M286.64,282.38l1,1.2a2,2,0,0,1-.3,2.8l-1.2,1a2,2,0,0,1-2.8-.3l-1-1.2a2,2,0,0,1,.3-2.8l1.2-1A1.93,1.93,0,0,1,286.64,282.38Z" transform="translate(263.96)"/><path class="cls-17" d="M288.84,264.28l1,1.2a2,2,0,0,1-.3,2.8l-1.2,1a2,2,0,0,1-2.8-.3l-1-1.2a2,2,0,0,1,.3-2.8l1.2-1A2,2,0,0,1,288.84,264.28Z" transform="translate(263.96)"/><path class="cls-17" d="M290.94,246.18l1,1.2a2,2,0,0,1-.3,2.8l-1.2,1a2,2,0,0,1-2.8-.3l-1-1.2a2,2,0,0,1,.3-2.8l1.2-1A2,2,0,0,1,290.94,246.18Z" transform="translate(263.96)"/><path class="cls-17" d="M298.74,320.38l1,1.2a2,2,0,0,1-.3,2.8l-1.2,1a2,2,0,0,1-2.8-.3l-1-1.2a2,2,0,0,1,.3-2.8l1.2-1A2,2,0,0,1,298.74,320.38Z" transform="translate(263.96)"/><path class="cls-17" d="M300.84,302.28l1,1.2a2,2,0,0,1-.3,2.8l-1.2,1a2,2,0,0,1-2.8-.3l-1-1.2a2,2,0,0,1,.3-2.8l1.2-1A2,2,0,0,1,300.84,302.28Z" transform="translate(263.96)"/><path class="cls-17" d="M302.94,284.28l1,1.2a2,2,0,0,1-.3,2.8l-1.2,1a2,2,0,0,1-2.8-.3l-1-1.2a2,2,0,0,1,.3-2.8l1.2-1A1.94,1.94,0,0,1,302.94,284.28Z" transform="translate(263.96)"/><path class="cls-17" d="M305,266.18l1,1.2a2,2,0,0,1-.3,2.8l-1.2,1a2,2,0,0,1-2.8-.3l-1-1.2a2,2,0,0,1,.3-2.8l1.2-1A1.94,1.94,0,0,1,305,266.18Z" transform="translate(263.96)"/><path class="cls-17" d="M307.14,248.08l1,1.2a2,2,0,0,1-.3,2.8l-1.2,1a2,2,0,0,1-2.8-.3l-1-1.2a2,2,0,0,1,.3-2.8l1.2-1A2,2,0,0,1,307.14,248.08Z" transform="translate(263.96)"/><path class="cls-17" d="M314.94,322.28l1,1.2a2,2,0,0,1-.3,2.8l-1.2,1a2,2,0,0,1-2.8-.3l-1-1.2a2,2,0,0,1,.3-2.8l1.2-1A2,2,0,0,1,314.94,322.28Z" transform="translate(263.96)"/><path class="cls-17" d="M317.14,304.28l1,1.2a2,2,0,0,1-.3,2.8l-1.2,1a2,2,0,0,1-2.8-.3l-1-1.2a2,2,0,0,1,.3-2.8l1.2-1A1.87,1.87,0,0,1,317.14,304.28Z" transform="translate(263.96)"/><path class="cls-17" d="M319.24,286.18l1,1.2a2,2,0,0,1-.3,2.8l-1.2,1a2,2,0,0,1-2.8-.3l-1-1.2a2,2,0,0,1,.3-2.8l1.2-1A2,2,0,0,1,319.24,286.18Z" transform="translate(263.96)"/><path class="cls-17" d="M321.34,268.08l1,1.2a2,2,0,0,1-.3,2.8l-1.2,1a2,2,0,0,1-2.8-.3l-1-1.2a2,2,0,0,1,.3-2.8l1.2-1A2,2,0,0,1,321.34,268.08Z" transform="translate(263.96)"/><path class="cls-17" d="M323.44,250.08l1,1.2a2,2,0,0,1-.3,2.8l-1.2,1a2,2,0,0,1-2.8-.3l-1-1.2a2,2,0,0,1,.3-2.8l1.2-1A1.87,1.87,0,0,1,323.44,250.08Z" transform="translate(263.96)"/><path class="cls-17" d="M331.24,324.18l1,1.2a2,2,0,0,1-.3,2.8l-1.2,1a2,2,0,0,1-2.8-.3l-1-1.2a2,2,0,0,1,.3-2.8l1.2-1A2,2,0,0,1,331.24,324.18Z" transform="translate(263.96)"/><path class="cls-17" d="M333.34,306.18l1,1.2a2,2,0,0,1-.3,2.8l-1.2,1a2,2,0,0,1-2.8-.3l-1-1.2a2,2,0,0,1,.3-2.8l1.2-1A1.87,1.87,0,0,1,333.34,306.18Z" transform="translate(263.96)"/><path class="cls-17" d="M335.44,288.08l1,1.2a2,2,0,0,1-.3,2.8l-1.2,1a2,2,0,0,1-2.8-.3l-1-1.2a2,2,0,0,1,.3-2.8l1.2-1A1.93,1.93,0,0,1,335.44,288.08Z" transform="translate(263.96)"/><path class="cls-17" d="M337.64,270l1,1.2a2,2,0,0,1-.3,2.8l-1.2,1a2,2,0,0,1-2.8-.3l-1-1.2a2,2,0,0,1,.3-2.8l1.2-1A2,2,0,0,1,337.64,270Z" transform="translate(263.96)"/><path class="cls-17" d="M339.74,252l1,1.2a2,2,0,0,1-.3,2.8l-1.2,1a2,2,0,0,1-2.8-.3l-1-1.2a2,2,0,0,1,.3-2.8l1.2-1A2,2,0,0,1,339.74,252Z" transform="translate(263.96)"/><path class="cls-17" d="M347.54,326.08l1,1.2a2,2,0,0,1-.3,2.8l-1.2,1a2,2,0,0,1-2.8-.3l-1-1.2a2,2,0,0,1,.3-2.8l1.2-1A2,2,0,0,1,347.54,326.08Z" transform="translate(263.96)"/><path class="cls-17" d="M349.64,308.08l1,1.2a2,2,0,0,1-.3,2.8l-1.2,1a2,2,0,0,1-2.8-.3l-1-1.2a2,2,0,0,1,.3-2.8l1.2-1A2,2,0,0,1,349.64,308.08Z" transform="translate(263.96)"/><path class="cls-17" d="M351.74,290l1,1.2a2,2,0,0,1-.3,2.8l-1.2,1a2,2,0,0,1-2.8-.3l-1-1.2a2,2,0,0,1,.3-2.8l1.2-1A1.94,1.94,0,0,1,351.74,290Z" transform="translate(263.96)"/><path class="cls-17" d="M353.84,271.88l1,1.2a2,2,0,0,1-.3,2.8l-1.2,1a2,2,0,0,1-2.8-.3l-1-1.2a2,2,0,0,1,.3-2.8l1.2-1A2,2,0,0,1,353.84,271.88Z" transform="translate(263.96)"/><path class="cls-17" d="M355.94,253.88l1,1.2a2,2,0,0,1-.3,2.8l-1.2,1a2,2,0,0,1-2.8-.3l-1-1.2a2,2,0,0,1,.3-2.8l1.2-1A1.93,1.93,0,0,1,355.94,253.88Z" transform="translate(263.96)"/><path class="cls-17" d="M363.74,328l1,1.2a2,2,0,0,1-.3,2.8l-1.2,1a2,2,0,0,1-2.8-.3l-1-1.2a2,2,0,0,1,.3-2.8l1.2-1A2,2,0,0,1,363.74,328Z" transform="translate(263.96)"/><path class="cls-17" d="M365.94,310l1,1.2a2,2,0,0,1-.3,2.8l-1.2,1a2,2,0,0,1-2.8-.3l-1-1.2a2,2,0,0,1,.3-2.8l1.2-1A2,2,0,0,1,365.94,310Z" transform="translate(263.96)"/><path class="cls-17" d="M368,291.88l1,1.2a2,2,0,0,1-.3,2.8l-1.2,1a2,2,0,0,1-2.8-.3l-1-1.2a2,2,0,0,1,.3-2.8l1.2-1A2,2,0,0,1,368,291.88Z" transform="translate(263.96)"/><path class="cls-17" d="M370.14,273.78l1,1.2a2,2,0,0,1-.3,2.8l-1.2,1a2,2,0,0,1-2.8-.3l-1-1.2a2,2,0,0,1,.3-2.8l1.2-1A2,2,0,0,1,370.14,273.78Z" transform="translate(263.96)"/><path class="cls-17" d="M372.24,255.78l1,1.2a2,2,0,0,1-.3,2.8l-1.2,1a2,2,0,0,1-2.8-.3l-1-1.2a2,2,0,0,1,.3-2.8l1.2-1A1.94,1.94,0,0,1,372.24,255.78Z" transform="translate(263.96)"/><path class="cls-17" d="M276.74,226.28l1,1.2a2,2,0,0,1-.3,2.8l-1.2,1a2,2,0,0,1-2.8-.3l-1-1.2a2,2,0,0,1,.3-2.8l1.2-1A1.87,1.87,0,0,1,276.74,226.28Z" transform="translate(263.96)"/><path class="cls-17" d="M278.84,208.18l1,1.2a2,2,0,0,1-.3,2.8l-1.2,1a2,2,0,0,1-2.8-.3l-1-1.2a2,2,0,0,1,.3-2.8l1.2-1A1.93,1.93,0,0,1,278.84,208.18Z" transform="translate(263.96)"/><path class="cls-17" d="M281,190.08l1,1.2a2,2,0,0,1-.3,2.8l-1.2,1a2,2,0,0,1-2.8-.3l-1-1.2a2,2,0,0,1,.3-2.8l1.2-1A2,2,0,0,1,281,190.08Z" transform="translate(263.96)"/><path class="cls-17" d="M283.14,172.08l1,1.2a2,2,0,0,1-.3,2.8l-1.2,1a2,2,0,0,1-2.8-.3l-1-1.2a2,2,0,0,1,.3-2.8l1.2-1A2,2,0,0,1,283.14,172.08Z" transform="translate(263.96)"/><path class="cls-17" d="M293,228.18l1,1.2a2,2,0,0,1-.3,2.8l-1.2,1a2,2,0,0,1-2.8-.3l-1-1.2a2,2,0,0,1,.3-2.8l1.2-1A1.94,1.94,0,0,1,293,228.18Z" transform="translate(263.96)"/><path class="cls-17" d="M295.14,210.08l1,1.2a2,2,0,0,1-.3,2.8l-1.2,1a2,2,0,0,1-2.8-.3l-1-1.2a2,2,0,0,1,.3-2.8l1.2-1A1.94,1.94,0,0,1,295.14,210.08Z" transform="translate(263.96)"/><path class="cls-17" d="M297.24,192l1,1.2a2,2,0,0,1-.3,2.8l-1.2,1a2,2,0,0,1-2.8-.3l-1-1.2a2,2,0,0,1,.3-2.8l1.2-1A2,2,0,0,1,297.24,192Z" transform="translate(263.96)"/><path class="cls-17" d="M299.44,174l1,1.2a2,2,0,0,1-.3,2.8l-1.2,1a2,2,0,0,1-2.8-.3l-1-1.2a2,2,0,0,1,.3-2.8l1.2-1A2,2,0,0,1,299.44,174Z" transform="translate(263.96)"/><path class="cls-17" d="M309.34,230.08l1,1.2a2,2,0,0,1-.3,2.8l-1.2,1a2,2,0,0,1-2.8-.3l-1-1.2a2,2,0,0,1,.3-2.8l1.2-1A2,2,0,0,1,309.34,230.08Z" transform="translate(263.96)"/><path class="cls-17" d="M311.44,212l1,1.2a2,2,0,0,1-.3,2.8l-1.2,1a2,2,0,0,1-2.8-.3l-1-1.2a2,2,0,0,1,.3-2.8l1.2-1A2,2,0,0,1,311.44,212Z" transform="translate(263.96)"/><path class="cls-17" d="M313.54,193.88l1,1.2a2,2,0,0,1-.3,2.8l-1.2,1a2,2,0,0,1-2.8-.3l-1-1.2a2,2,0,0,1,.3-2.8l1.2-1A2,2,0,0,1,313.54,193.88Z" transform="translate(263.96)"/><path class="cls-17" d="M315.64,175.88l1,1.2a2,2,0,0,1-.3,2.8l-1.2,1a2,2,0,0,1-2.8-.3l-1-1.2a2,2,0,0,1,.3-2.8l1.2-1A1.94,1.94,0,0,1,315.64,175.88Z" transform="translate(263.96)"/><path class="cls-17" d="M325.54,232l1,1.2a2,2,0,0,1-.3,2.8l-1.2,1a2,2,0,0,1-2.8-.3l-1-1.2a2,2,0,0,1,.3-2.8l1.2-1A1.94,1.94,0,0,1,325.54,232Z" transform="translate(263.96)"/><path class="cls-17" d="M327.74,213.88l1,1.2a2,2,0,0,1-.3,2.8l-1.2,1a2,2,0,0,1-2.8-.3l-1-1.2a2,2,0,0,1,.3-2.8l1.2-1A2,2,0,0,1,327.74,213.88Z" transform="translate(263.96)"/><path class="cls-17" d="M329.84,195.88l1,1.2a2,2,0,0,1-.3,2.8l-1.2,1a2,2,0,0,1-2.8-.3l-1-1.2a2,2,0,0,1,.3-2.8l1.2-1A1.87,1.87,0,0,1,329.84,195.88Z" transform="translate(263.96)"/><path class="cls-17" d="M331.94,177.78l1,1.2a2,2,0,0,1-.3,2.8l-1.2,1a2,2,0,0,1-2.8-.3l-1-1.2a2,2,0,0,1,.3-2.8l1.2-1A2,2,0,0,1,331.94,177.78Z" transform="translate(263.96)"/><path class="cls-17" d="M341.84,233.88l1,1.2a2,2,0,0,1-.3,2.8l-1.2,1a2,2,0,0,1-2.8-.3l-1-1.2a2,2,0,0,1,.3-2.8l1.2-1A1.94,1.94,0,0,1,341.84,233.88Z" transform="translate(263.96)"/><path class="cls-17" d="M343.94,215.78l1,1.2a2,2,0,0,1-.3,2.8l-1.2,1a2,2,0,0,1-2.8-.3l-1-1.2a2,2,0,0,1,.3-2.8l1.2-1A2,2,0,0,1,343.94,215.78Z" transform="translate(263.96)"/><path class="cls-17" d="M346,197.78l1,1.2a2,2,0,0,1-.3,2.8l-1.2,1a2,2,0,0,1-2.8-.3l-1-1.2a2,2,0,0,1,.3-2.8l1.2-1A1.93,1.93,0,0,1,346,197.78Z" transform="translate(263.96)"/><path class="cls-17" d="M348.24,179.68l1,1.2a2,2,0,0,1-.3,2.8l-1.2,1a2,2,0,0,1-2.8-.3l-1-1.2a2,2,0,0,1,.3-2.8l1.2-1A2,2,0,0,1,348.24,179.68Z" transform="translate(263.96)"/><path class="cls-17" d="M358.14,235.78l1,1.2a2,2,0,0,1-.3,2.8l-1.2,1a2,2,0,0,1-2.8-.3l-1-1.2a2,2,0,0,1,.3-2.8l1.2-1A2,2,0,0,1,358.14,235.78Z" transform="translate(263.96)"/><path class="cls-17" d="M360.24,217.68l1,1.2a2,2,0,0,1-.3,2.8l-1.2,1a2,2,0,0,1-2.8-.3l-1-1.2a2,2,0,0,1,.3-2.8l1.2-1A2,2,0,0,1,360.24,217.68Z" transform="translate(263.96)"/><path class="cls-17" d="M362.34,199.68l1,1.2a2,2,0,0,1-.3,2.8l-1.2,1a2,2,0,0,1-2.8-.3l-1-1.2a2,2,0,0,1,.3-2.8l1.2-1A1.94,1.94,0,0,1,362.34,199.68Z" transform="translate(263.96)"/><path class="cls-17" d="M364.44,181.58l1,1.2a2,2,0,0,1-.3,2.8l-1.2,1a2,2,0,0,1-2.8-.3l-1-1.2a2,2,0,0,1,.3-2.8l1.2-1A1.94,1.94,0,0,1,364.44,181.58Z" transform="translate(263.96)"/><path class="cls-17" d="M374.34,237.68l1,1.2a2,2,0,0,1-.3,2.8l-1.2,1a2,2,0,0,1-2.8-.3l-1-1.2a2,2,0,0,1,.3-2.8l1.2-1A1.93,1.93,0,0,1,374.34,237.68Z" transform="translate(263.96)"/><path class="cls-17" d="M376.54,219.68l1,1.2a2,2,0,0,1-.3,2.8l-1.2,1a2,2,0,0,1-2.8-.3l-1-1.2a2,2,0,0,1,.3-2.8l1.2-1A1.87,1.87,0,0,1,376.54,219.68Z" transform="translate(263.96)"/><path class="cls-17" d="M378.64,201.58l1,1.2a2,2,0,0,1-.3,2.8l-1.2,1a2,2,0,0,1-2.8-.3l-1-1.2a2,2,0,0,1,.3-2.8l1.2-1A2,2,0,0,1,378.64,201.58Z" transform="translate(263.96)"/><path class="cls-17" d="M380.74,183.48l1,1.2a2,2,0,0,1-.3,2.8l-1.2,1a2,2,0,0,1-2.8-.3l-1-1.2a2,2,0,0,1,.3-2.8l1.2-1A2,2,0,0,1,380.74,183.48Z" transform="translate(263.96)"/></g><path class="cls-7" d="M383,207.78a108.67,108.67,0,0,1,18.4,27s.5-34.6,1.2-37a39.27,39.27,0,0,0,21.5-1.7s2.9,26.7,7.2,47,9.1,50.6-5.5,54.6-27.9-5.2-45.6-28.9-16.2-35.5-16.2-41.5C363.94,220.18,373.54,202,383,207.78Z" transform="translate(263.96)"/><path class="cls-18" d="M401.44,234.88s-.7,21.5,1.9,35.1" transform="translate(263.96)"/><path class="cls-18" d="M402,207.18s12.8,4,23-2.5" transform="translate(263.96)"/><path class="cls-18" d="M421.14,202.08A1.1,1.1,0,1,1,420,201,1,1,0,0,1,421.14,202.08Z" transform="translate(263.96)"/><path class="cls-13" d="M423.34,196.48s-1-7.1,3.8-9.4,9.2-1.2,14.1-4.8,13.2-15,12.9-17.5-2.1-1.4-5.4,1.3a19.69,19.69,0,0,1-4.8,3.3s2-6.8,1.1-11.8-4.3-5.6-5.1-5.1,0,2.6-.2,6.6-1.4,7.3-4.9,9.8a12.5,12.5,0,0,0-.7-7c-1.6-3.8-4.3-6.3-6.4-5.7s-1.4,2.2-.4,4.4,2.6,6.2-1.6,10.4a5.24,5.24,0,0,1-8.7-5.6c2.3-5.6,5.8-6.9,7.6-8.4s1.3-4.2-2.5-3.6-10.3,5.2-14.1,10.3-4.9,12-5,18.8-.4,15.5-.4,15.5,2.5,3.1,8,3.1S423.34,199,423.34,196.48Z" transform="translate(263.96)"/><path class="cls-14" d="M443.94,169.48a50.93,50.93,0,0,1-4.1,8.5" transform="translate(263.96)"/><path class="cls-14" d="M434.74,168.88a17.51,17.51,0,0,1-3.2,7.8" transform="translate(263.96)"/><path class="cls-18" d="M411.14,297.28s-2.5-4,3.6-10.1,19.1-5.4,19.5.9" transform="translate(263.96)"/><path class="cls-15" d="M314,184.08s-5.6-.3-9.1,7.3-2.5,23.2,1.3,25.6,14-7.9,14-7.9,8.6,11.6,14.8,11.1,14-11.6,13.5-23.8-5.5-13.6-8.2-13.9C337.74,182,314,184.08,314,184.08Z" transform="translate(263.96)"/><path class="cls-15" d="M320.24,209s-19.7,21.8-19.9,25.9,6.5,5.4,8.3,4.5S322.24,208.68,320.24,209Z" transform="translate(263.96)"/><path class="cls-15" d="M320,211.68s3.4,24.2,5.6,28,9.2-1.9,8.4-5.2-10.3-22.6-13.8-25.4S320,211.68,320,211.68Z" transform="translate(263.96)"/><path class="cls-13" d="M344.44,162.78s-2.2,13.7-.6,24c0,0-9.5,21.1-23.5,21.1-6.9,0-9.1-14.2-7.9-19.8l2.1-15.6S328.54,148.28,344.44,162.78Z" transform="translate(263.96)"/><path class="cls-20" d="M332.94,177.28c-6,3.6-12.6,5.4-19.6,4l-.8,5.9C320.14,185.68,327.84,183.48,332.94,177.28Z" transform="translate(263.96)"/><path class="cls-13" d="M300.84,133.28a136.91,136.91,0,0,1-.8,20.5c-1.3,12.7-.8,21,10,26.4s28.3.5,34.7-14.9,14.9-44.7-8.1-49.1S300.54,117.28,300.84,133.28Z" transform="translate(263.96)"/><path class="cls-9" d="M316.84,123.18s4.4,14.8,14.2,18.6,8.3,13,13.2,11.9,8.7-5.1,12-1.2,3.6-30.4-13.3-36.3-34.8-6.2-40.1-.8-3.4,22.7-3.4,22.7S310.24,135.58,316.84,123.18Z" transform="translate(263.96)"/><path class="cls-13" d="M345.34,153.78s2.3-5.7,7.2-4.7,4.5,16.5-8,15.7" transform="translate(263.96)"/><path class="cls-9" d="M310.34,148.48a6.06,6.06,0,0,1,.2,4.2,7.22,7.22,0,0,1-.9,2l-.6.9c-.1.2-.3.5-.4.7a3.1,3.1,0,0,0,.4,2.9,5.5,5.5,0,0,0,3,2.1,3,3,0,0,1-2.1,0,4.53,4.53,0,0,1-1.9-1.1,4.64,4.64,0,0,1-1.3-2,4.3,4.3,0,0,1,.2-2.5,8.79,8.79,0,0,1,.6-1c.2-.3.4-.5.6-.8a8.64,8.64,0,0,0,1-1.6A10,10,0,0,0,310.34,148.48Z" transform="translate(263.96)"/><path class="cls-18" d="M317.74,168a7.23,7.23,0,0,0,8-3.7" transform="translate(263.96)"/><path class="cls-18" d="M324.14,148.48s.4,2.2,4.2,2.6a4.84,4.84,0,0,0,4.7-2.2" transform="translate(263.96)"/><path class="cls-18" d="M308.54,146.88s-3,2.4-5.4-.6" transform="translate(263.96)"/><path class="cls-9" d="M311.34,137.38c.2-1.3-1.3-3.5-3.3-4.1s-5.2,2.2-4.9,3.4,2.3-.6,4.1-.4C308.84,136.48,311.14,138.48,311.34,137.38Z" transform="translate(263.96)"/><path class="cls-9" d="M335.24,139.58c.2-1.3-1.3-3.5-3.3-4.1s-5.2,2.2-4.9,3.4,2.3-.6,4.1-.4S335.14,140.68,335.24,139.58Z" transform="translate(263.96)"/><path class="cls-9" d="M352.14,153.78a3.4,3.4,0,0,0-2.1,1.4,3,3,0,0,0-.2,1v1.4a4.67,4.67,0,0,1-.3,1.7,2.26,2.26,0,0,1-1.3,1.4,3.8,3.8,0,0,1-3.3-.3,6.5,6.5,0,0,0,2.5-1,2.42,2.42,0,0,0,.6-2v-1.6a2.72,2.72,0,0,1,.8-1.7A3.59,3.59,0,0,1,352.14,153.78Z" transform="translate(263.96)"/><ellipse class="cls-18" cx="565.5" cy="146.98" rx="8.9" ry="9.7"/><circle class="cls-21" cx="591.18" cy="149.74" r="10.3"/><path class="cls-18" d="M310.44,147.78s1.6-1.7,6.6.4" transform="translate(263.96)"/><line class="cls-18" x1="601.5" y1="149.78" x2="611.3" y2="150.68"/><path class="cls-8" d="M349.74,162.38l-3.4,5.9a1.14,1.14,0,0,0,1,1.7h6.8a1.14,1.14,0,0,0,1-1.7l-3.4-5.9A1.21,1.21,0,0,0,349.74,162.38Z" transform="translate(263.96)"/><path class="cls-9" d="M489,362.48l2.4,22.2c0,1.6,8.3,2.8,18.5,2.8s18.5-1.3,18.5-2.8l2.4-22.2Z" transform="translate(263.96)"/><path class="cls-8" d="M530.84,362.48c0,1.8-9.4,3.2-20.9,3.2s-20.9-1.4-20.9-3.2,9.4-3.2,20.9-3.2S530.84,360.78,530.84,362.48Z" transform="translate(263.96)"/><path class="cls-7" d="M504.34,362.48s-11.2-4.4-10-13,9.5,9.2,11.6,6.5-.6-15.8,4-17,3.4,17.2,3.4,17.2a27.29,27.29,0,0,0,7.6-5.7c2.9-3.4,7.1,4.2-4.8,12A15.48,15.48,0,0,1,504.34,362.48Z" transform="translate(263.96)"/><path class="cls-8" d="M603,356.68a5.4,5.4,0,1,1-5.4-5.4A5.51,5.51,0,0,1,603,356.68Z" transform="translate(263.96)"/><path class="cls-15" d="M218.14,376a19.38,19.38,0,0,0-8,4.2,26.9,26.9,0,0,1-18.5,5.9,25.93,25.93,0,0,1-20-10.9A280.11,280.11,0,0,0,218.14,376Z" transform="translate(263.96)"/><path class="cls-9" d="M191.54,386.18c-17.6.3-42.2,0-49.8-.1-8.8.7-18.7-2.7-25.3-13.6,0,0,6.5,1,23.2,1.1s30-1.1,30-1.1c.6,1,1.2,1.9,1.8,2.8A26.88,26.88,0,0,0,191.54,386.18Z" transform="translate(263.96)"/></g></g></svg>