<svg xmlns="http://www.w3.org/2000/svg" xmlns:xlink="http://www.w3.org/1999/xlink" viewBox="0 0 724.5 527.87"><defs><style>.cls-1,.cls-13,.cls-14,.cls-15,.cls-16,.cls-17,.cls-20,.cls-21,.cls-4{fill:none;}.cls-2{fill:#eaf9f3;}.cls-3{clip-path:url(#clip-path);}.cls-4{stroke:#88b4e2;}.cls-13,.cls-14,.cls-15,.cls-16,.cls-17,.cls-20,.cls-21,.cls-4{stroke-linecap:round;stroke-linejoin:round;}.cls-13,.cls-14,.cls-16,.cls-17,.cls-20,.cls-4{stroke-width:1.8px;}.cls-5{fill:#88b4e2;}.cls-6{fill:#f8ab5d;}.cls-7{fill:#fda53a;}.cls-8{fill:#22272e;}.cls-9{fill:#63737a;}.cls-10{fill:#f4c2c9;}.cls-11{fill:#5083b9;}.cls-12{fill:#fff;}.cls-13{stroke:#fff;}.cls-14,.cls-15{stroke:#63737a;}.cls-15{stroke-width:1.8px;}.cls-16,.cls-21{stroke:#22272e;}.cls-17{stroke:#e26e85;}.cls-18{fill:#e26e85;}.cls-19{clip-path:url(#clip-path-2);}.cls-20{stroke:#f8ab5d;}.cls-21{stroke-width:1.8px;}</style><clipPath id="clip-path" transform="translate(8.56)"><path class="cls-1" d="M591.84,422.77l-520-14.9a48.07,48.07,0,0,1-46.5-43.3l-25.1-248a48.18,48.18,0,0,1,47.2-53l578.8-8a48.21,48.21,0,0,1,48.5,54.1L641,380.57A48.27,48.27,0,0,1,591.84,422.77Z"/></clipPath><clipPath id="clip-path-2" transform="translate(8.56)"><path class="cls-1" d="M148.44,128.57c2.2-6.5,10.6-10.4,17.4-9.8,7,.6,20.4.8,33.3,4.8,22,6.8,27.3,10.8,28.6,12,7.3,7,6.6,17.4,2.4,46.1-2.7,18.9-5,23.7-4.4,33s2.3,25.8,3.4,29.2-1.7,9.3-4.1,11.4-21.8,6.5-39.8,6.1-46.3-5.3-50.8-8.3-7.7-8.2-6.7-12.7a200.52,200.52,0,0,1,4.8-20.4c2.8-9.5,3-21.9,7.4-41.8C143.34,163.47,143.84,142.17,148.44,128.57Z"/></clipPath></defs><g id="Layer_2" data-name="Layer 2"><g id="illustration"><path class="cls-2" d="M591.84,422.77l-520-14.9a48.07,48.07,0,0,1-46.5-43.3l-25.1-248a48.18,48.18,0,0,1,47.2-53l578.8-8a48.21,48.21,0,0,1,48.5,54.1L641,380.57A48.27,48.27,0,0,1,591.84,422.77Z" transform="translate(8.56)"/><g class="cls-3"><path class="cls-4" d="M436.14,434.57l1.8,40.5a15,15,0,0,1-15,15H7.34a15,15,0,0,1-15-15V239.37a15,15,0,0,1,15-15h415.5a15,15,0,0,1,15,15v159.4" transform="translate(8.56)"/><path class="cls-4" d="M529.24,399.77V167.67a15,15,0,0,1,15-15h124a15,15,0,0,1,15,15V512a15,15,0,0,1-15,15h-124a15,15,0,0,1-15-15v-74.9" transform="translate(8.56)"/><path class="cls-4" d="M85.44,154.07H-4.46v-8.9h89.9a1.79,1.79,0,0,1,1.8,1.8v5.2A1.76,1.76,0,0,1,85.44,154.07Z" transform="translate(8.56)"/><path class="cls-4" d="M71.74,224.37H51.44a4.32,4.32,0,0,1-4.3-3.8l-1.6-14.4a4.33,4.33,0,0,1,4.3-4.8h23.5a4.34,4.34,0,0,1,4.3,4.8L76,220.57A4.25,4.25,0,0,1,71.74,224.37Z" transform="translate(8.56)"/><path class="cls-5" d="M59.24,201.47s-8-.8-9.6-11.6c0,0,7.2,2.1,9.5,7.2,0,0,1-11.4,6.4-12.5,0,0,2.4,8.5-1.4,12.7,0,0,2.9-4.8,10.3-4.7a13.6,13.6,0,0,1-9.2,8.8" transform="translate(8.56)"/><path class="cls-4" d="M617.84,152.67h-20.3a4.32,4.32,0,0,1-4.3-3.8l-1.6-14.4a4.33,4.33,0,0,1,4.3-4.8h23.5a4.34,4.34,0,0,1,4.3,4.8l-1.6,14.4A4.32,4.32,0,0,1,617.84,152.67Z" transform="translate(8.56)"/><path class="cls-5" d="M605.24,129.77s-8-.8-9.6-11.6c0,0,7.2,2.1,9.5,7.2,0,0,1-11.4,6.4-12.5,0,0,2.4,8.5-1.4,12.7,0,0,2.9-4.8,10.3-4.7a13.6,13.6,0,0,1-9.2,8.8" transform="translate(8.56)"/><path class="cls-4" d="M419.74,274.07h-90.2a4.23,4.23,0,0,1-4.2-4.2v-27.4a4.23,4.23,0,0,1,4.2-4.2h90.2a4.23,4.23,0,0,1,4.2,4.2v27.4A4.23,4.23,0,0,1,419.74,274.07Z" transform="translate(8.56)"/><path class="cls-5" d="M384.94,248h-20.8a1.54,1.54,0,0,1-1.5-1.5h0a1.54,1.54,0,0,1,1.5-1.5h20.8a1.54,1.54,0,0,1,1.5,1.5h0A1.47,1.47,0,0,1,384.94,248Z" transform="translate(8.56)"/><path class="cls-4" d="M419.74,320h-90.2a4.23,4.23,0,0,1-4.2-4.2v-27.4a4.23,4.23,0,0,1,4.2-4.2h90.2a4.23,4.23,0,0,1,4.2,4.2v27.4A4.23,4.23,0,0,1,419.74,320Z" transform="translate(8.56)"/><path class="cls-5" d="M384.94,293.77h-20.8a1.54,1.54,0,0,1-1.5-1.5h0a1.54,1.54,0,0,1,1.5-1.5h20.8a1.54,1.54,0,0,1,1.5,1.5h0A1.47,1.47,0,0,1,384.94,293.77Z" transform="translate(8.56)"/><path class="cls-4" d="M304.74,274.07h-90.2a4.23,4.23,0,0,1-4.2-4.2v-27.4a4.23,4.23,0,0,1,4.2-4.2h90.2a4.23,4.23,0,0,1,4.2,4.2v27.4A4.23,4.23,0,0,1,304.74,274.07Z" transform="translate(8.56)"/><path class="cls-5" d="M270,248h-20.8a1.54,1.54,0,0,1-1.5-1.5h0a1.54,1.54,0,0,1,1.5-1.5H270a1.54,1.54,0,0,1,1.5,1.5h0A1.54,1.54,0,0,1,270,248Z" transform="translate(8.56)"/><path class="cls-4" d="M304.74,320h-90.2a4.23,4.23,0,0,1-4.2-4.2v-27.4a4.23,4.23,0,0,1,4.2-4.2h90.2a4.23,4.23,0,0,1,4.2,4.2v27.4A4.23,4.23,0,0,1,304.74,320Z" transform="translate(8.56)"/><path class="cls-5" d="M270,293.77h-20.8a1.54,1.54,0,0,1-1.5-1.5h0a1.54,1.54,0,0,1,1.5-1.5H270a1.54,1.54,0,0,1,1.5,1.5h0A1.54,1.54,0,0,1,270,293.77Z" transform="translate(8.56)"/><path class="cls-4" d="M419.74,364.77h-90.2a4.23,4.23,0,0,1-4.2-4.2v-27.4a4.23,4.23,0,0,1,4.2-4.2h90.2a4.23,4.23,0,0,1,4.2,4.2v27.4A4.23,4.23,0,0,1,419.74,364.77Z" transform="translate(8.56)"/><path class="cls-5" d="M384.94,338.67h-20.8a1.54,1.54,0,0,1-1.5-1.5h0a1.54,1.54,0,0,1,1.5-1.5h20.8a1.54,1.54,0,0,1,1.5,1.5h0A1.47,1.47,0,0,1,384.94,338.67Z" transform="translate(8.56)"/><path class="cls-4" d="M304.74,364.77h-90.2a4.23,4.23,0,0,1-4.2-4.2v-27.4a4.23,4.23,0,0,1,4.2-4.2h90.2a4.23,4.23,0,0,1,4.2,4.2v27.4A4.23,4.23,0,0,1,304.74,364.77Z" transform="translate(8.56)"/><path class="cls-5" d="M270,338.67h-20.8a1.54,1.54,0,0,1-1.5-1.5h0a1.54,1.54,0,0,1,1.5-1.5H270a1.54,1.54,0,0,1,1.5,1.5h0A1.54,1.54,0,0,1,270,338.67Z" transform="translate(8.56)"/><path class="cls-4" d="M710.44,257.47H550.54a4.65,4.65,0,0,1-4.6-4.6v-79.7a4.65,4.65,0,0,1,4.6-4.6h159.9a4.65,4.65,0,0,1,4.6,4.6v79.7A4.53,4.53,0,0,1,710.44,257.47Z" transform="translate(8.56)"/><path class="cls-4" d="M710.44,356.47H550.54a4.65,4.65,0,0,1-4.6-4.6v-79.7a4.65,4.65,0,0,1,4.6-4.6h159.9a4.65,4.65,0,0,1,4.6,4.6v79.7A4.59,4.59,0,0,1,710.44,356.47Z" transform="translate(8.56)"/><rect class="cls-4" x="585.2" y="207.17" width="9.9" height="50.3"/><rect class="cls-4" x="595" y="220.97" width="10.3" height="36.6"/><rect class="cls-4" x="47.9" y="94.87" width="9.9" height="50.3"/><rect class="cls-4" x="57.7" y="108.57" width="10.3" height="36.6"/><rect class="cls-4" x="27.7" y="115.77" width="9.9" height="29.4"/><rect class="cls-4" x="37.6" y="86.27" width="10.3" height="58.8"/><path class="cls-5" d="M580.34,312.77l1.1-14.9a1.65,1.65,0,0,0-1.7-1.8h-8.5a1.71,1.71,0,0,0-1.7,1.8l1.1,14.9s-9,5.8-8.9,10.6c.1,3.7,2.3,21.4,3.3,29.2a4.32,4.32,0,0,0,4.3,3.8h12.4a4.32,4.32,0,0,0,4.3-3.8c1-7.8,3.2-25.5,3.3-29.2C589.34,318.57,580.34,312.77,580.34,312.77Z" transform="translate(8.56)"/><path class="cls-5" d="M628.54,213.87l1.1-14.9a1.65,1.65,0,0,0-1.7-1.8h-8.6a1.71,1.71,0,0,0-1.7,1.8l1.1,14.9s-9,5.8-8.9,10.6c.1,3.7,2.3,21.4,3.3,29.2a4.32,4.32,0,0,0,4.3,3.8h12.4a4.32,4.32,0,0,0,4.3-3.8c1-7.8,3.2-25.5,3.3-29.2C637.54,219.67,628.54,213.87,628.54,213.87Z" transform="translate(8.56)"/><line class="cls-4" x1="14.5" y1="394.07" x2="717.5" y2="401.77"/></g><path class="cls-6" d="M376,38.17c-3.9,8.3-12.9,13.8-19.2,12.1-5.5-1.5-6.5-8-3-14.5,3.4-6.2,10.2-11.2,16.1-11.3C376.44,24.27,379.64,30.27,376,38.17Z" transform="translate(8.56)"/><path class="cls-7" d="M374.14,36.47c-3.9,8.3-12.9,13.8-19.2,12.1-5.5-1.5-6.5-8-3-14.5,3.4-6.2,10.2-11.2,16.1-11.3C374.54,22.57,377.74,28.57,374.14,36.47Z" transform="translate(8.56)"/><path class="cls-6" d="M370.94,36.07c-2.9,6.2-9.7,10.4-14.5,9.3-4.3-1-5.3-6-2.6-11.1,2.6-4.9,8.1-8.8,12.6-8.8C371.54,25.57,373.74,30.17,370.94,36.07Z" transform="translate(8.56)"/><path class="cls-7" d="M357.94,41.37l.4-.7c.1-.3.1-.5-.1-.6a1.77,1.77,0,0,1-1.1-.7c-.1-.1-.1-.4.1-.7l.1-.1c.2-.3.6-.4.7-.2a2.33,2.33,0,0,0,1.3.7,2.36,2.36,0,0,0,2.5-1.4,1.55,1.55,0,0,0-.6-2.2,2.05,2.05,0,0,1-.8-3,4.13,4.13,0,0,1,3-2.3c.2,0,.4-.2.6-.5l.4-.7a.75.75,0,0,1,.7-.5h0c.2,0,.3.2.2.5l-.3.6c-.1.3-.1.5.2.5a1.88,1.88,0,0,1,.9.4c.2.1.1.4-.1.7l-.1.1c-.2.3-.6.4-.7.2a1.9,1.9,0,0,0-1.2-.4,2.27,2.27,0,0,0-2.2,1.3c-.4.8-.1,1.3.8,2a2.26,2.26,0,0,1,.7,3.3,4.45,4.45,0,0,1-3.4,2.5.74.74,0,0,0-.6.5l-.4.8a.87.87,0,0,1-.7.5h0C357.84,42,357.74,41.67,357.94,41.37Z" transform="translate(8.56)"/><path class="cls-8" d="M558.34,216.87l-38.8-2.4a4.83,4.83,0,0,1-4.5-5.2l5.9-79.6a5.58,5.58,0,0,1,5.2-5.1l39.7-2.4a4.86,4.86,0,0,1,5.1,5.2l-6.6,84.4A5.71,5.71,0,0,1,558.34,216.87Z" transform="translate(8.56)"/><path class="cls-8" d="M555.64,216.87l-38.8-2.4a4.83,4.83,0,0,1-4.5-5.2l5.9-79.6a5.58,5.58,0,0,1,5.2-5.1l39.7-2.4a4.86,4.86,0,0,1,5.1,5.2l-6.6,84.4A5.71,5.71,0,0,1,555.64,216.87Z" transform="translate(8.56)"/><path class="cls-9" d="M543.74,131.47l-7.4.4a.94.94,0,0,1-1-1h0a1.11,1.11,0,0,1,1.1-1.1l7.4-.4a.94.94,0,0,1,1,1h0A1.11,1.11,0,0,1,543.74,131.47Z" transform="translate(8.56)"/><path class="cls-9" d="M548,131.27h-.2a.94.94,0,0,1-1-1h0a1.38,1.38,0,0,1,1.2-1.2h.2a.94.94,0,0,1,1,1h0A1.38,1.38,0,0,1,548,131.27Z" transform="translate(8.56)"/><path class="cls-9" d="M536.44,144.77l-9.9.3a1.69,1.69,0,0,1-1.7-1.9h0a2.24,2.24,0,0,1,2-2l9.9-.4a1.69,1.69,0,0,1,1.7,1.9h0A2.16,2.16,0,0,1,536.44,144.77Z" transform="translate(8.56)"/><path class="cls-9" d="M533.84,179.17l-9.8-.1a1.8,1.8,0,0,1-1.7-1.9h0a2.14,2.14,0,0,1,2-1.9l9.8.1a1.74,1.74,0,0,1,1.7,1.9h0A2.05,2.05,0,0,1,533.84,179.17Z" transform="translate(8.56)"/><path class="cls-9" d="M531.74,207l-9.8-.5a1.83,1.83,0,0,1-1.7-2h0a1.88,1.88,0,0,1,1.9-1.8l9.8.4a1.77,1.77,0,0,1,1.7,2h0A1.9,1.9,0,0,1,531.74,207Z" transform="translate(8.56)"/><path class="cls-5" d="M554.54,166.87l-29.2.1a2.1,2.1,0,0,1-2.1-2.3l.9-12.7a2.05,2.05,0,0,1,2-1.9l29.3-.8a2.1,2.1,0,0,1,2.1,2.3l-1,13.3A2,2,0,0,1,554.54,166.87Z" transform="translate(8.56)"/><path class="cls-7" d="M533.14,196.27l-10-.4a2.08,2.08,0,0,1-2-2.3l.6-7.6a2,2,0,0,1,2.1-1.9l10.1.2a2.22,2.22,0,0,1,2.1,2.3l-.6,7.8A2.28,2.28,0,0,1,533.14,196.27Z" transform="translate(8.56)"/><path class="cls-10" d="M552.14,196.87l-10.7-.4a2.08,2.08,0,0,1-2-2.3l.6-7.9a2,2,0,0,1,2.1-1.9l10.8.2a2.22,2.22,0,0,1,2.1,2.3l-.6,8.1A2.26,2.26,0,0,1,552.14,196.87Z" transform="translate(8.56)"/><path class="cls-8" d="M312.74,93.77l-32.5,1.5a4,4,0,0,1-4.1-4.7l5.4-54a6.38,6.38,0,0,1,5.2-5.6l33.1-4.3c2.9-.4,4.9,1.7,4.6,4.6l-6.1,57.1A6.18,6.18,0,0,1,312.74,93.77Z" transform="translate(8.56)"/><path class="cls-8" d="M310.34,92.67l-32.5,1.5a4,4,0,0,1-4.1-4.7l5.4-54a6.38,6.38,0,0,1,5.2-5.6l33.1-4.3c2.9-.4,4.9,1.7,4.6,4.6l-6.1,57.1A6.08,6.08,0,0,1,310.34,92.67Z" transform="translate(8.56)"/><path class="cls-10" d="M311.84,43.77l-25.3,2.7a1.27,1.27,0,0,1-1.4-1.4l.6-6.2a1.18,1.18,0,0,1,1.1-1.1l25.4-3a1.27,1.27,0,0,1,1.4,1.4l-.7,6.5A1.11,1.11,0,0,1,311.84,43.77Z" transform="translate(8.56)"/><path class="cls-5" d="M288.34,61l-3.3.3a1.27,1.27,0,0,1-1.4-1.4l.4-3.6a1.18,1.18,0,0,1,1.1-1.1l3.3-.3a1.27,1.27,0,0,1,1.4,1.4l-.4,3.6A1.18,1.18,0,0,1,288.34,61Z" transform="translate(8.56)"/><path class="cls-5" d="M310.24,59.07l-3.6.3a1.27,1.27,0,0,1-1.4-1.4l.4-3.8a1.18,1.18,0,0,1,1.1-1.1l3.6-.4a1.27,1.27,0,0,1,1.4,1.4l-.4,3.8A1.28,1.28,0,0,1,310.24,59.07Z" transform="translate(8.56)"/><path class="cls-5" d="M299.14,60l-3.4.3a1.27,1.27,0,0,1-1.4-1.4l.4-3.7a1.18,1.18,0,0,1,1.1-1.1l3.4-.3a1.27,1.27,0,0,1,1.4,1.4l-.4,3.7A1.11,1.11,0,0,1,299.14,60Z" transform="translate(8.56)"/><path class="cls-5" d="M287,73.27l-3.3.2a1.31,1.31,0,0,1-1.4-1.4l.4-3.6a1.28,1.28,0,0,1,1.2-1.1l3.3-.3a1.27,1.27,0,0,1,1.4,1.4l-.4,3.6A1.29,1.29,0,0,1,287,73.27Z" transform="translate(8.56)"/><path class="cls-5" d="M308.94,71.77l-3.6.3a1.31,1.31,0,0,1-1.4-1.4l.4-3.7a1.28,1.28,0,0,1,1.2-1.1l3.6-.3a1.27,1.27,0,0,1,1.4,1.4l-.4,3.8A1.57,1.57,0,0,1,308.94,71.77Z" transform="translate(8.56)"/><path class="cls-5" d="M297.84,72.57l-3.4.2a1.31,1.31,0,0,1-1.4-1.4l.4-3.7a1.28,1.28,0,0,1,1.2-1.1l3.4-.3a1.27,1.27,0,0,1,1.4,1.4l-.4,3.7A1.49,1.49,0,0,1,297.84,72.57Z" transform="translate(8.56)"/><path class="cls-5" d="M285.74,85.57l-3.2.2a1.24,1.24,0,0,1-1.3-1.4l.4-3.6a1.28,1.28,0,0,1,1.2-1.1l3.2-.2a1.19,1.19,0,0,1,1.3,1.4l-.4,3.6A1.2,1.2,0,0,1,285.74,85.57Z" transform="translate(8.56)"/><path class="cls-7" d="M307.54,84.37l-3.6.2a1.24,1.24,0,0,1-1.3-1.4l.4-3.7a1.28,1.28,0,0,1,1.2-1.1l3.6-.2a1.19,1.19,0,0,1,1.3,1.4l-.4,3.8A1.29,1.29,0,0,1,307.54,84.37Z" transform="translate(8.56)"/><path class="cls-7" d="M296.54,85l-3.4.2a1.24,1.24,0,0,1-1.3-1.4l.4-3.6a1.28,1.28,0,0,1,1.2-1.1l3.4-.2a1.19,1.19,0,0,1,1.3,1.4l-.4,3.7A1.29,1.29,0,0,1,296.54,85Z" transform="translate(8.56)"/><path class="cls-6" d="M344.24,93.17,500.84,77a4.65,4.65,0,0,1,5.1,5l-13.4,152.4a7,7,0,0,1-7.3,6.4l-152.1-8.2a4.68,4.68,0,0,1-4.4-4.9l9.2-127.9A7.15,7.15,0,0,1,344.24,93.17Z" transform="translate(8.56)"/><path class="cls-7" d="M338.54,91.47l158.4-16.4a4.63,4.63,0,0,1,5.1,5.1l-13.5,154.1a6.93,6.93,0,0,1-7.4,6.4l-153.9-8.3a4.64,4.64,0,0,1-4.4-5L332.14,98A7.33,7.33,0,0,1,338.54,91.47Z" transform="translate(8.56)"/><polygon class="cls-11" points="363.5 124.67 356.3 125.07 355.4 138.47 362.5 138.27 363.5 124.67"/><polygon class="cls-5" points="355.4 138.47 354.9 145.07 362 144.87 362.5 138.27 355.4 138.47"/><polygon class="cls-11" points="379 106.47 371.8 106.97 370.6 124.27 377.7 123.97 379 106.47"/><polygon class="cls-5" points="370.6 124.27 369.1 144.67 376.2 144.47 377.7 123.97 370.6 124.27"/><polygon class="cls-11" points="385.6 112.77 384.8 123.57 391.9 123.17 392.7 112.27 385.6 112.77"/><polygon class="cls-5" points="384.8 123.57 383.3 144.37 390.4 144.17 391.9 123.17 384.8 123.57"/><polygon class="cls-11" points="406.1 122.37 399 122.77 398.5 130.37 405.6 129.97 406.1 122.37"/><polygon class="cls-5" points="398.5 130.37 397.5 143.97 404.6 143.77 405.6 129.97 398.5 130.37"/><polygon class="cls-11" points="421.2 110.27 420.3 121.67 419.8 129.17 412.7 129.57 413.2 121.97 414.1 110.77 421.2 110.27"/><polygon class="cls-5" points="412.7 129.57 411.6 143.57 418.7 143.47 419.8 129.17 412.7 129.57"/><path class="cls-8" d="M469.74,102.07,457,122.17l-11.1-15.1a27.35,27.35,0,0,1,15.2-6.3A19.74,19.74,0,0,1,469.74,102.07Z" transform="translate(8.56)"/><path class="cls-10" d="M479.64,120.57l-22.6,1.6,12.7-20.1C476.74,104.87,480.84,111.87,479.64,120.57Z" transform="translate(8.56)"/><path class="cls-5" d="M479.64,120.57c0,.3-.1.6-.1.9-2.1,11.9-13.2,21.8-24.9,22.7l2.4-22Z" transform="translate(8.56)"/><path class="cls-12" d="M457,122.17l-2.4,22a12.1,12.1,0,0,1-1.9.1c-11.9,0-19.2-9.7-16.7-21.4a28.35,28.35,0,0,1,9.9-15.7Z" transform="translate(8.56)"/><path class="cls-11" d="M476.44,161.27l-5.2,50.7-130.7-2.4.2-3.9,28.3-19.5a3.6,3.6,0,0,1,4.3.1l10.6,7.8a3.7,3.7,0,0,0,5.2-.8l10.5-14a3.7,3.7,0,0,1,6,.1l9.3,12.9a3.72,3.72,0,0,0,5.3.8h0a3.76,3.76,0,0,1,4.4-.1l6.6,4.7a3.76,3.76,0,0,0,5.3-1l14.8-22.8a3.76,3.76,0,0,1,5.3-1l4.3,3.1a3.69,3.69,0,0,0,5.2-.8Z" transform="translate(8.56)"/><path class="cls-12" d="M381.34,177.37h-5.7a.91.91,0,0,0-.7.3l-1.3,1.3a1,1,0,0,1-1.4,0l-1-1.3a.91.91,0,0,0-.7-.3H365a.77.77,0,0,1-.8-.9l.8-10.8a1.08,1.08,0,0,1,1-1l16.3-.6a.9.9,0,0,1,.9.9l-.9,11.3A1,1,0,0,1,381.34,177.37Z" transform="translate(8.56)"/><path class="cls-10" d="M434.74,182.77l-5.7-.1a.91.91,0,0,0-.7.3l-1.3,1.3a.9.9,0,0,1-1.4-.1l-1-1.3a.91.91,0,0,0-.7-.3l-5.4-.1c-.5,0-.8-.4-.8-1l.8-10.9a1.07,1.07,0,0,1,.9-1l16.3-.4a.92.92,0,0,1,.9,1l-.9,11.6A.94.94,0,0,1,434.74,182.77Z" transform="translate(8.56)"/><path class="cls-8" d="M160.84,471.27c-.4,1.3-1.3,6.5-2,11.3a41.74,41.74,0,0,1-22.1-2.7c.5-5,1-10.2,1-10.2C137.74,466.87,161.64,468.87,160.84,471.27Z" transform="translate(8.56)"/><path class="cls-10" d="M158.84,482.47c-.6,4.2-1.2,7.9-1.2,7.9s-2.7,6.3-9.5,6.3-12.3-5.7-12.2-8.1c.1-1.1.4-4.9.8-8.8A41.48,41.48,0,0,0,158.84,482.47Z" transform="translate(8.56)"/><path class="cls-8" d="M136,486.67a42.12,42.12,0,0,0,3.1,3.1c1.1,1,4.5-2.1,9.3-1.5s6.3,2.5,6.3,2.5a8.54,8.54,0,0,0,3.1-1.3,22.58,22.58,0,0,0,1.5,7.3c1.5,3.9,9.1,15.3,9.1,17.5s-.5,3.9-2.1,4.6-12.2.8-21.1,1-15.8.7-16.8-2.8,3.1-14.4,4.8-21.1S134.64,486.77,136,486.67Z" transform="translate(8.56)"/><path class="cls-13" d="M137.54,505.17s10.7-5.7,20.9,0" transform="translate(8.56)"/><path class="cls-13" d="M139.54,499.57a31.1,31.1,0,0,1,17,0" transform="translate(8.56)"/><path class="cls-8" d="M264.64,478.17c-11.4,3.9-23.2,1.5-23.1,1.6-.4-5.6-.9-11.5-.9-11.5,1.5-3.5,23-5.1,23.2-3.6C263.84,465.47,264.24,472.07,264.64,478.17Z" transform="translate(8.56)"/><path class="cls-10" d="M265.24,488.77s-1.5,4.7-8,7.1-14.8-4.1-14.9-6c-.1-.8-.4-5.4-.8-10.1,0-.1,11.7,2.3,23.1-1.6C264.94,483.67,265.24,488.77,265.24,488.77Z" transform="translate(8.56)"/><path class="cls-8" d="M242.14,488.47c-.7,0-1.2,1-1.6,7.3s-2.4,20.2,0,22.3,50.3,1.5,55.8,1.1,8.5-4,6.8-6.4-13.5-6.8-23.9-13.8-12.9-8.5-14.1-10.2c0,0,.6-5.7-2.5-4.8s-5.2,8.3-9.2,9.3S248.94,488.07,242.14,488.47Z" transform="translate(8.56)"/><path class="cls-13" d="M281.54,499.17s-2.7-.8-8.8,5.7" transform="translate(8.56)"/><path class="cls-13" d="M274.94,494.87s-4.8-.2-10.3,6.9" transform="translate(8.56)"/><line class="cls-14" x1="149.1" y1="481.17" x2="149.7" y2="477.17"/><line class="cls-14" x1="156" y1="482.67" x2="156.6" y2="478.67"/><line class="cls-14" x1="163.6" y1="482.97" x2="164.3" y2="479.37"/><line class="cls-14" x1="254.6" y1="480.27" x2="254.3" y2="476.07"/><line class="cls-14" x1="262.9" y1="480.17" x2="262.6" y2="475.57"/><line class="cls-14" x1="270.4" y1="478.97" x2="270.1" y2="474.67"/><path class="cls-8" d="M133.84,247.37a124.2,124.2,0,0,0-2.8,24c-.3,13.7,10.4,56.6,14.3,71.1s3.1,16.8,2.5,19.6-6.6,25-8.6,48-9.2,41.5-8.4,48.6c1.1,9.6,5.2,12.4,6.9,13.5s15.7,5.6,25.2,3.4c0,0,10.1-6.4,12-15.4s.8-19.9,7.3-49.3,9.5-41.5,10.4-53.2c.5-7,.6-27,.7-42.3.1-10.4.1-18.7.2-19.5.3-2,5.2.3,7.8-6.1,1.1-2.9,1.7-8.4,1.8-14.3.2-7.5-.3-15.7-1.3-20.2C200.24,247,135.44,238.57,133.84,247.37Z" transform="translate(8.56)"/><path class="cls-8" d="M271,460.47c-1.7,4.2-4.8,9-7.6,10.1s-15.4,2.8-21.8,2.2c0,0-10.7-3.1-11.8-11.2s.8-17.1-2.8-35.3-6.7-50.4-7.6-59.9-20.5-37.8-29.7-54.9-19.1-48.4-10.9-55.7,37.5-10.6,46.2-4.7c0,0,10.1,24.6,20.2,54,9.3,27,11.2,36.1,12.5,43.9a15.52,15.52,0,0,0,.4,2.1c.4,2.4.9,8.6,1.6,16.6,1.6,20.3,3.5,51.8,4.3,59C265.14,436.67,272.74,456.27,271,460.47Z" transform="translate(8.56)"/><path class="cls-14" d="M187.94,297.37a126.22,126.22,0,0,1,20-5.4" transform="translate(8.56)"/><ellipse class="cls-15" cx="173.17" cy="364.41" rx="13.4" ry="13.2" transform="matrix(0.2, -0.98, 0.98, 0.2, -209.47, 463.12)"/><path class="cls-14" d="M259.74,367.57a13,13,0,0,1-10.2,4.9,13.3,13.3,0,0,1-.1-26.6,13,13,0,0,1,8.3,3" transform="translate(8.56)"/><path class="cls-14" d="M136.14,294.67a34.72,34.72,0,0,0,11.2-25.6,82.88,82.88,0,0,1-11.2-1.4" transform="translate(8.56)"/><path class="cls-14" d="M193.34,315.37c.1-10.4.1-18.7.2-19.5.3-2,5.2.3,7.8-6.1,1.1-2.9,1.7-8.4,1.8-14.3" transform="translate(8.56)"/><path class="cls-11" d="M222.84,132.87s8.2.4,21.4,26.8,17.9,35.9,17.9,35.9,8.7-2.1,22.9-4.4,34.2-5.2,34.2-5.2,5.4.1,7.7,7.8a12.16,12.16,0,0,1-2.4,11.4,4.5,4.5,0,0,1-1.9,1.4c-6.1,2.6-41.7,17.6-53.8,20.2-13.3,2.8-19.8,2.4-31.6-13.8s-21.1-28.8-25.4-35.3C207.54,170.87,204.44,133.87,222.84,132.87Z" transform="translate(8.56)"/><path class="cls-16" d="M245.34,222.17s-.7-5.3,9.6-5.3,15.6,7.7,13.1,9.9" transform="translate(8.56)"/><path class="cls-16" d="M262.14,195.47s-4.3,2-5.2,5" transform="translate(8.56)"/><path class="cls-10" d="M319.74,186.77s4.4-1.6,5.5-2.2,3.5-4.8,5.5-7.4,7.7-4.1,9.3-3.8a3.28,3.28,0,0,1,2.2,1.3s5-1.8,8.4-3.2,9.7-4.5,10.6-2c.5,1.5-3.4,3.7-6.1,5.2-3.3,1.9-5.5,3.3-5.5,3.3a4.19,4.19,0,0,1,2,2.9c.4,2.1,1.5,4.4-.5,7.6-.6.9,1.7,3.4-.1,5.7-3.1,3.7-10.6,5.6-14.6,6.8s-13.4,1.8-13.4,1.8-3-.7-4.3-7.2S319.74,186.77,319.74,186.77Z" transform="translate(8.56)"/><path class="cls-17" d="M342.24,174.67s.7,1.8,1.5,4.5,1.4,4.8-.7,4.9-4-3.1-4.8-4.7" transform="translate(8.56)"/><path class="cls-17" d="M339.64,181.67s2.3,4.6-3,8.6" transform="translate(8.56)"/><line class="cls-17" x1="358.3" y1="177.97" x2="352.7" y2="180.57"/><path class="cls-17" d="M341.34,183.47s-1,1.6,0,2.5,6.5-1.1,10.5-3.4" transform="translate(8.56)"/><path class="cls-17" d="M342.24,186.17a2.06,2.06,0,0,0-.9,2.7c.8,1.8,5.1,1.1,9.8-.4" transform="translate(8.56)"/><path class="cls-17" d="M343.14,190s-2.5.3-1.2,2.8c.8,1.5,5.6,1,6.6,1.4" transform="translate(8.56)"/><path class="cls-16" d="M313.94,187.67c-.8,1.4-1.8,4.1-1.1,8.9a13.89,13.89,0,0,0,6.2,10.3" transform="translate(8.56)"/><path class="cls-10" d="M190.44,96.27s-3.2,16.1-5,20.5,8,11.3,17.8,11.7,8.8-5.3,8.8-5.3l2.9-16C214.94,107.27,193.94,92.57,190.44,96.27Z" transform="translate(8.56)"/><path class="cls-18" d="M194.84,101.07c-1.4,12.2,7.4,18.1,17.2,22.7v-.6l1.6-8.5C206.34,112.27,199.94,107.07,194.84,101.07Z" transform="translate(8.56)"/><path class="cls-7" d="M148.44,128.57c2.2-6.5,10.6-10.4,17.4-9.8,7,.6,20.4.8,33.3,4.8,22,6.8,27.3,10.8,28.6,12,7.3,7,6.6,17.4,2.4,46.1-2.7,18.9-5,23.7-4.4,33s2.3,25.8,3.4,29.2-1.7,9.3-4.1,11.4-21.8,6.5-39.8,6.1-46.3-5.3-50.8-8.3-7.7-8.2-6.7-12.7a200.52,200.52,0,0,1,4.8-20.4c2.8-9.5,3-21.9,7.4-41.8C143.34,163.47,143.84,142.17,148.44,128.57Z" transform="translate(8.56)"/><g class="cls-19"><ellipse class="cls-6" cx="228.35" cy="104.95" rx="4.9" ry="2.4" transform="translate(-14.27 113.28) rotate(-26.58)"/><ellipse class="cls-6" cx="244.85" cy="116.17" rx="4.9" ry="2.4" transform="translate(-17.54 121.85) rotate(-26.58)"/><ellipse class="cls-6" cx="208.17" cy="115.07" rx="4.9" ry="2.4" transform="translate(-20.93 105.32) rotate(-26.58)"/><ellipse class="cls-6" cx="224.76" cy="126.25" rx="4.9" ry="2.4" transform="translate(-24.18 113.92) rotate(-26.58)"/><ellipse class="cls-6" cx="243.55" cy="135.35" rx="4.9" ry="2.4" transform="translate(-26.26 123.3) rotate(-26.58)"/><ellipse class="cls-6" cx="260.06" cy="146.57" rx="4.9" ry="2.4" transform="translate(-29.54 131.87) rotate(-26.58)"/><ellipse class="cls-6" cx="223.37" cy="145.48" rx="4.9" ry="2.4" transform="translate(-32.93 115.34) rotate(-26.58)"/><ellipse class="cls-6" cx="239.96" cy="156.65" rx="4.9" ry="2.4" transform="translate(-36.18 123.94) rotate(-26.58)"/><ellipse class="cls-6" cx="188.07" cy="125.15" rx="4.9" ry="2.4" transform="translate(-27.57 97.39) rotate(-26.58)"/><ellipse class="cls-6" cx="204.57" cy="136.37" rx="4.9" ry="2.4" transform="translate(-30.84 105.96) rotate(-26.58)"/><ellipse class="cls-6" cx="167.84" cy="135.18" rx="4.9" ry="2.4" transform="translate(-34.19 89.4) rotate(-26.58)"/><ellipse class="cls-6" cx="184.43" cy="146.36" rx="4.9" ry="2.4" transform="translate(-37.44 98) rotate(-26.58)"/><ellipse class="cls-6" cx="203.23" cy="155.46" rx="4.9" ry="2.4" transform="translate(-39.53 107.38) rotate(-26.58)"/><ellipse class="cls-6" cx="219.78" cy="166.78" rx="4.9" ry="2.4" transform="translate(-42.84 115.98) rotate(-26.58)"/><ellipse class="cls-6" cx="183.04" cy="165.59" rx="4.9" ry="2.4" transform="translate(-46.19 99.42) rotate(-26.58)"/><ellipse class="cls-6" cx="199.64" cy="176.77" rx="4.9" ry="2.4" transform="translate(-49.44 108.02) rotate(-26.58)"/><ellipse class="cls-6" cx="259.17" cy="166.55" rx="4.9" ry="2.4" transform="translate(-38.57 133.58) rotate(-26.58)"/><ellipse class="cls-6" cx="275.67" cy="177.77" rx="4.9" ry="2.4" transform="translate(-41.85 142.15) rotate(-26.58)"/><ellipse class="cls-6" cx="238.94" cy="176.58" rx="4.9" ry="2.4" transform="translate(-45.2 125.59) rotate(-26.58)"/><ellipse class="cls-6" cx="255.53" cy="187.76" rx="4.9" ry="2.4" transform="translate(-48.45 134.2) rotate(-26.58)"/><ellipse class="cls-6" cx="274.37" cy="196.95" rx="4.9" ry="2.4" transform="translate(-50.57 143.6) rotate(-26.58)"/><ellipse class="cls-6" cx="290.87" cy="208.17" rx="4.9" ry="2.4" transform="translate(-53.85 152.17) rotate(-26.58)"/><ellipse class="cls-6" cx="254.14" cy="206.98" rx="4.9" ry="2.4" transform="translate(-57.2 135.61) rotate(-26.58)"/><ellipse class="cls-6" cx="270.73" cy="218.16" rx="4.9" ry="2.4" transform="translate(-60.45 144.21) rotate(-26.58)"/><ellipse class="cls-6" cx="218.84" cy="186.66" rx="4.9" ry="2.4" transform="translate(-51.84 117.66) rotate(-26.58)"/><ellipse class="cls-6" cx="235.34" cy="197.88" rx="4.9" ry="2.4" transform="translate(-55.12 126.23) rotate(-26.58)"/><ellipse class="cls-6" cx="198.66" cy="196.78" rx="4.9" ry="2.4" transform="translate(-58.5 109.7) rotate(-26.58)"/><ellipse class="cls-6" cx="215.25" cy="207.96" rx="4.9" ry="2.4" transform="translate(-61.75 118.31) rotate(-26.58)"/><ellipse class="cls-6" cx="234.05" cy="217.06" rx="4.9" ry="2.4" transform="translate(-63.84 127.68) rotate(-26.58)"/><ellipse class="cls-6" cx="250.55" cy="228.29" rx="4.9" ry="2.4" transform="translate(-67.11 136.25) rotate(-26.58)"/><ellipse class="cls-6" cx="230.45" cy="238.37" rx="4.9" ry="2.4" transform="translate(-73.75 128.32) rotate(-26.58)"/><ellipse class="cls-6" cx="147.55" cy="145.36" rx="4.9" ry="2.4" transform="translate(-40.89 81.39) rotate(-26.58)"/><ellipse class="cls-6" cx="164.05" cy="156.59" rx="4.9" ry="2.4" transform="translate(-44.17 89.96) rotate(-26.58)"/><ellipse class="cls-6" cx="127.45" cy="155.44" rx="4.9" ry="2.4" transform="translate(-47.53 73.47) rotate(-26.58)"/><ellipse class="cls-6" cx="143.95" cy="166.67" rx="4.9" ry="2.4" transform="translate(-50.81 82.04) rotate(-26.58)"/><ellipse class="cls-6" cx="162.75" cy="175.77" rx="4.9" ry="2.4" transform="translate(-52.89 91.41) rotate(-26.58)"/><ellipse class="cls-6" cx="179.34" cy="186.95" rx="4.9" ry="2.4" transform="translate(-56.14 100.02) rotate(-26.58)"/><ellipse class="cls-6" cx="142.66" cy="185.85" rx="4.9" ry="2.4" transform="translate(-59.53 83.48) rotate(-26.58)"/><ellipse class="cls-6" cx="159.16" cy="197.07" rx="4.9" ry="2.4" transform="translate(-62.8 92.05) rotate(-26.58)"/><ellipse class="cls-6" cx="107.27" cy="165.57" rx="4.9" ry="2.4" transform="translate(-54.19 65.5) rotate(-26.58)"/><ellipse class="cls-6" cx="123.86" cy="176.75" rx="4.9" ry="2.4" transform="translate(-57.44 74.11) rotate(-26.58)"/><ellipse class="cls-6" cx="87.13" cy="175.56" rx="4.9" ry="2.4" transform="translate(-60.79 57.55) rotate(-26.58)"/><ellipse class="cls-6" cx="103.67" cy="186.87" rx="4.9" ry="2.4" transform="translate(-64.11 66.15) rotate(-26.58)"/><ellipse class="cls-6" cx="122.47" cy="195.97" rx="4.9" ry="2.4" transform="translate(-66.19 75.52) rotate(-26.58)"/><ellipse class="cls-6" cx="139.06" cy="207.15" rx="4.9" ry="2.4" transform="translate(-69.44 84.13) rotate(-26.58)"/><ellipse class="cls-6" cx="102.33" cy="205.96" rx="4.9" ry="2.4" transform="translate(-72.79 67.56) rotate(-26.58)"/><ellipse class="cls-6" cx="118.83" cy="217.18" rx="4.9" ry="2.4" transform="translate(-76.07 76.14) rotate(-26.58)"/><ellipse class="cls-6" cx="158.27" cy="217.04" rx="4.9" ry="2.4" transform="translate(-71.84 93.77) rotate(-26.58)"/><ellipse class="cls-6" cx="210.16" cy="248.55" rx="4.9" ry="2.4" transform="translate(-80.45 120.32) rotate(-26.58)"/><ellipse class="cls-6" cx="173.43" cy="247.36" rx="4.9" ry="2.4" transform="translate(-83.8 103.76) rotate(-26.58)"/><ellipse class="cls-6" cx="189.97" cy="258.67" rx="4.9" ry="2.4" transform="translate(-87.11 112.36) rotate(-26.58)"/><ellipse class="cls-6" cx="138.04" cy="227.08" rx="4.9" ry="2.4" transform="translate(-78.47 85.78) rotate(-26.58)"/><ellipse class="cls-6" cx="154.63" cy="238.26" rx="4.9" ry="2.4" transform="translate(-81.71 94.38) rotate(-26.58)"/><ellipse class="cls-6" cx="117.94" cy="237.16" rx="4.9" ry="2.4" transform="translate(-85.1 77.85) rotate(-26.58)"/><ellipse class="cls-6" cx="134.44" cy="248.38" rx="4.9" ry="2.4" transform="translate(-88.38 86.42) rotate(-26.58)"/><ellipse class="cls-6" cx="153.24" cy="257.48" rx="4.9" ry="2.4" transform="translate(-90.46 95.79) rotate(-26.58)"/><ellipse class="cls-6" cx="169.83" cy="268.66" rx="4.9" ry="2.4" transform="translate(-93.71 104.4) rotate(-26.58)"/><ellipse class="cls-6" cx="133.15" cy="267.56" rx="4.9" ry="2.4" transform="translate(-97.1 87.87) rotate(-26.58)"/><ellipse class="cls-6" cx="149.65" cy="278.78" rx="4.9" ry="2.4" transform="translate(-100.38 96.44) rotate(-26.58)"/></g><path class="cls-20" d="M175.94,201.87a183.07,183.07,0,0,0,33.8,3.9,3.11,3.11,0,0,1,3,2.7,19.84,19.84,0,0,0,5.1,10.8,2.79,2.79,0,0,1,.8,2c.1,4.2.3,18.4-2.5,20.6-3.2,2.4-37.2,4.6-58.3-1.3a3.19,3.19,0,0,1-2.4-3c.1-4.1.3-12.7,1-18.1a3.47,3.47,0,0,1,1.9-2.5c3.3-1.5,10.9-5.5,13.6-13A3.57,3.57,0,0,1,175.94,201.87Z" transform="translate(8.56)"/><path class="cls-11" d="M184.14,114.37a1.57,1.57,0,0,1,2.5-.5c1.9,2,6,5,13.4,6.4,11.3,2.1,12.4.4,12.4.4s1.8.6,2,2.1a26.91,26.91,0,0,1-.8,7.2c-.6,1.9-9,2.1-15.7.7a30.38,30.38,0,0,1-15.7-8.1,2.3,2.3,0,0,1-.5-2.6C182.34,118.47,183.34,116.27,184.14,114.37Z" transform="translate(8.56)"/><path class="cls-10" d="M233.44,77.27a35.58,35.58,0,0,1-2,12.6c-2,5.2-5.3,19.7-11.8,24.4s-20.7,3.8-26.9-8.3-4.2-24.8-1-35,16.4-13.9,27.9-9.7S233.44,72.77,233.44,77.27Z" transform="translate(8.56)"/><path class="cls-8" d="M191.44,84.27a13.91,13.91,0,0,1,1.7,2.9c.9,2.1,2.8.9,3.5-2.9s2.3-6.5,3.5-6.3a7,7,0,0,0,7.9-3.7c2.5-4.6,3.6-3.9,3.6-3.9s2-4.8,7.2,2.1,8.5,12.3,14.7,11.2,11.7-11.2,7-20.9-19.5-12-30.5-9.1-16.7.5-23.3,6.1-5,11.5-5.4,18.1-3.8,10.1.7,16,3.3,11.4,5.8,14.7c0,0,2.7-8.7,2.4-15S191.44,84.27,191.44,84.27Z" transform="translate(8.56)"/><path class="cls-16" d="M221.14,89.77a9.78,9.78,0,0,1-9.6,9.5,9.38,9.38,0,0,1-9.3-9.7,9.84,9.84,0,0,1,9.8-9.9A9.5,9.5,0,0,1,221.14,89.77Z" transform="translate(8.56)"/><ellipse class="cls-21" cx="230.5" cy="93.92" rx="9" ry="6.3" transform="translate(84.44 288.97) rotate(-73.76)"/><path class="cls-16" d="M224.64,91.87s-.1-2-3.6-.9" transform="translate(8.56)"/><line class="cls-16" x1="211.6" y1="85.47" x2="200" y2="83.37"/><path class="cls-10" d="M192.44,86.07s-.9-5.3-5.2-5.4-6.9,13.1,3.8,14.9" transform="translate(8.56)"/><path class="cls-8" d="M186.54,84.77a2.53,2.53,0,0,1,2.7,1,3.29,3.29,0,0,1,.4,1.7c0,.3-.1.5-.1.8s-.1.4-.1.6a3.75,3.75,0,0,0-.1,1,.84.84,0,0,0,.2.7,6.21,6.21,0,0,0,1.9,1.4,3.36,3.36,0,0,1-2.9-.3,2.37,2.37,0,0,1-.9-1.5,4.19,4.19,0,0,1,.1-1.6c.1-.2.1-.5.2-.7s.1-.3.1-.5a1.1,1.1,0,0,0,0-.8A2.85,2.85,0,0,0,186.54,84.77Z" transform="translate(8.56)"/><path class="cls-8" d="M223.24,90.27a11.38,11.38,0,0,0,.7,3.3,5.39,5.39,0,0,0,.7,1.3,4.47,4.47,0,0,1,.9,1.7,4.7,4.7,0,0,1-.8,3.9,4.36,4.36,0,0,1-1.4,1.3,2.9,2.9,0,0,1-1.8.5,5.35,5.35,0,0,0,1.9-2.6,4.3,4.3,0,0,0,.3-2.7,5.73,5.73,0,0,0-.7-1.3,6,6,0,0,1-.6-1.9A6.94,6.94,0,0,1,223.24,90.27Z" transform="translate(8.56)"/><path class="cls-16" d="M213.24,106.17a7.57,7.57,0,0,1-6.6-4.4" transform="translate(8.56)"/><path class="cls-8" d="M209.14,91.67h0a1.49,1.49,0,0,1-1.1-1.8l.4-1.5a1.49,1.49,0,0,1,1.8-1.1h0a1.49,1.49,0,0,1,1.1,1.8l-.4,1.5A1.49,1.49,0,0,1,209.14,91.67Z" transform="translate(8.56)"/><path class="cls-8" d="M225,95.77h0a1.49,1.49,0,0,1-1.1-1.8l.4-1.5a1.49,1.49,0,0,1,1.8-1.1h0a1.49,1.49,0,0,1,1.1,1.8l-.4,1.5A1.49,1.49,0,0,1,225,95.77Z" transform="translate(8.56)"/><path class="cls-8" d="M213.14,84.77c-1.1.2-1.6-1.3-3.2-1.2-2.5.1-3.9.6-4.1-.5-.1-.8,1.8-2.3,4.2-2.4C213.54,80.67,215.14,84.47,213.14,84.77Z" transform="translate(8.56)"/><path class="cls-8" d="M225,87.77c.7.6,1.7-.5,2.7.2,1.5.9,2,1.7,2.5,1s0-2.4-1.4-3.3C226.54,84.07,223.54,86.67,225,87.77Z" transform="translate(8.56)"/><path class="cls-10" d="M99,255a14.54,14.54,0,0,0-1.3,4.5c0,1.7,1.4,17.4,1,20.5s-1.4,9.2-2,10.1-4.2-1.9-4.3-11.3-3.3-22.3-.6-23.8S98.24,253.77,99,255Z" transform="translate(8.56)"/><path class="cls-8" d="M33.54,301.37l24-37.8a3.72,3.72,0,0,1,5.2-1.1l56.5,35.9a3.72,3.72,0,0,1,1.1,5.2l-24,37.8a3.72,3.72,0,0,1-5.2,1.1l-56.5-35.9A3.81,3.81,0,0,1,33.54,301.37Z" transform="translate(8.56)"/><path class="cls-11" d="M99.84,330.27l12-18.8a1.45,1.45,0,0,1,2.4-.1l1.9,2.5a1.5,1.5,0,0,1,.1,1.7l-10.8,17a1.29,1.29,0,0,1-1.5.6l-3.1-.6A1.6,1.6,0,0,1,99.84,330.27Z" transform="translate(8.56)"/><path class="cls-10" d="M96.34,254s-.6,17.4-.7,21.1.1,11-.8,14.5-2.4,12.3-5.1,12.9.2-10.8.2-13a52.85,52.85,0,0,0-1.2-7.5s-1,5.5-1.7,7.9-5.3,9.9-7.1,9.6.4-5.9,1.8-9.3c1.3-3.1,1.8-9.6,1.8-9.6a51.87,51.87,0,0,1-2.7,5.8c-1.2,2-5.3,8.2-7,7.9s1.1-6.6,2.8-9.5a12.11,12.11,0,0,0,1.8-5s-2.7,2.7-4.4,4-7.7,4.2-8.2,2.7,2.2-3.1,4.7-5.4,5.2-6.9,5.8-7.7-1.1-7.8,1.6-12.5,4.3-6.6,5-9.8S96,251.67,96.34,254Z" transform="translate(8.56)"/><path class="cls-11" d="M158.84,118.77s-11.4-1.1-25.1,16.1-27.2,31.6-31,38.4-12.2,32.3-16.4,52.4-4.6,23.7-4.5,25.9c.1,2,10.2,4.8,16.8,4.7a2.84,2.84,0,0,0,2.7-1.8c2.6-6.1,11.7-26.9,15.3-34.5,4.2-8.9,9.1-22.1,9.7-23s27.9-28.7,33-36,10-19.1,8.9-29.5C167,120.17,161.24,118.67,158.84,118.77Z" transform="translate(8.56)"/><path class="cls-16" d="M104.14,171s3.1-4.3,7-.4c4.1,4.1,2.3,13-3.4,18.6-4.7,4.6-11.4,2.7-10.8-1.6" transform="translate(8.56)"/><path class="cls-16" d="M83.24,246.77c2.7,1.3,10.8,4.9,18.7,3.9" transform="translate(8.56)"/><path class="cls-8" d="M345,275.17l16.8-55a3.66,3.66,0,0,1,3.5-2.5l99.4,2.8a2.52,2.52,0,0,1,2.4,3.2l-19.5,67.1a3.51,3.51,0,0,1-3.9,2.5l-96.5-14.9A2.45,2.45,0,0,1,345,275.17Z" transform="translate(8.56)"/><path class="cls-9" d="M344.14,278l-57.8,5.4,99.1,24.4a15,15,0,0,0,7.3,0l53.8-13.9Z" transform="translate(8.56)"/><path class="cls-8" d="M385.54,307.77l-99.1-24.4h0a4.17,4.17,0,0,0,3.1,4l93.4,24.8a22.24,22.24,0,0,0,12-.2l49-14.4a3.87,3.87,0,0,0,2.8-3.8h0l-53.8,13.9A14.32,14.32,0,0,1,385.54,307.77Z" transform="translate(8.56)"/><path class="cls-12" d="M410.34,229.87l-7,23.8a1.5,1.5,0,0,1-1.4,1l-39.3-3.4a1.35,1.35,0,0,1-1.2-1.7l6.6-21.8a1.38,1.38,0,0,1,1.3-1l39.7,1.4A1.38,1.38,0,0,1,410.34,229.87Z" transform="translate(8.56)"/><polygon class="cls-10" points="411.4 234.17 407 248.47 376.4 246.27 377.5 243.07 388.8 238.07 395.2 243.07 411.4 234.17"/><path class="cls-7" d="M379.94,263.37l-2.9,9a1.35,1.35,0,0,1-1.5.9l-18.9-2.5a1.29,1.29,0,0,1-1.1-1.7l2.5-8.4a1.5,1.5,0,0,1,1.4-1l19.3,2A1.24,1.24,0,0,1,379.94,263.37Z" transform="translate(8.56)"/><path class="cls-11" d="M409.54,266.37l-3.2,9.9a1.35,1.35,0,0,1-1.5.9l-18-2.4a1.35,1.35,0,0,1-1.1-1.8l3-9.3a1.3,1.3,0,0,1,1.4-.9l18.2,1.8A1.35,1.35,0,0,1,409.54,266.37Z" transform="translate(8.56)"/><path class="cls-10" d="M443.54,269.77l-3.4,11a1.35,1.35,0,0,1-1.5.9l-21.7-2.9a1.35,1.35,0,0,1-1.1-1.8l3.3-10.3a1.3,1.3,0,0,1,1.4-.9l21.7,2.2A1.39,1.39,0,0,1,443.54,269.77Z" transform="translate(8.56)"/><path class="cls-7" d="M431.84,234.67a6.85,6.85,0,0,1-6.8,5.1c-2.9-.2-4.4-2.7-3.6-5.5a6.86,6.86,0,0,1,6.3-4.7A4.07,4.07,0,0,1,431.84,234.67Z" transform="translate(8.56)"/><line class="cls-14" x1="447.5" y1="231.37" x2="462.1" y2="231.87"/><line class="cls-14" x1="424.7" y1="250.37" x2="456" y2="252.57"/><line class="cls-14" x1="445.8" y1="237.27" x2="460.4" y2="237.87"/><path class="cls-11" d="M517.34,87.87l-76,5.9a3.2,3.2,0,0,1-3.4-3.4l3.2-43.9a5.54,5.54,0,0,1,4.8-5.1l77.2-10.5a3.21,3.21,0,0,1,3.6,3.4l-4.3,48.6A5.65,5.65,0,0,1,517.34,87.87Z" transform="translate(8.56)"/><path class="cls-5" d="M514.84,86.27l-76,5.9a3.2,3.2,0,0,1-3.4-3.4l3.2-43.9a5.54,5.54,0,0,1,4.8-5.1l77.2-10.5a3.21,3.21,0,0,1,3.6,3.4l-4.3,48.6A5.47,5.47,0,0,1,514.84,86.27Z" transform="translate(8.56)"/><path class="cls-8" d="M464.24,56.87a6.7,6.7,0,0,1-5.7,6,4.28,4.28,0,0,1-4.8-4.8,6.6,6.6,0,0,1,5.6-6C462.34,51.67,464.44,53.87,464.24,56.87Z" transform="translate(8.56)"/><path class="cls-8" d="M462.74,76l-10.4,1a3.46,3.46,0,0,1-3.8-3.9h0a12,12,0,0,1,10.1-10.7h0c5.2-.6,9.2,3.4,8.7,8.9h0A5.31,5.31,0,0,1,462.74,76Z" transform="translate(8.56)"/><line class="cls-14" x1="485.1" y1="51.47" x2="517.5" y2="47.67"/><line class="cls-14" x1="484.3" y1="60.37" x2="516.7" y2="56.87"/><line class="cls-14" x1="483.6" y1="69.27" x2="503.1" y2="67.37"/><path class="cls-6" d="M431.14,9.87c-3.9-3.9-9.4-6.2-16.2-7a24.2,24.2,0,0,0-13.3,1.8c-4.8,2.1-8.4,5.8-11.1,11.2l-4.5,1.9,2.6,2.7,11.7,2.1a16.46,16.46,0,0,1,4.1-6.7c2-2,4.7-2.8,8.1-2.3s5.7,1.8,6.6,3.9a9.63,9.63,0,0,1,.3,6.7,11.27,11.27,0,0,1-3.4,5.3,13.25,13.25,0,0,1-3.4,2.2l-4,2c-3.9,1.9-6.5,3.7-7.8,5.5a29.28,29.28,0,0,0-3.1,6.4l-4,1.3,2.6,2.7,12,3.3a20.45,20.45,0,0,1,2.2-5.5,11,11,0,0,1,5-4.2l4.1-1.9a41.18,41.18,0,0,0,9-5.2,18.61,18.61,0,0,0,6.1-10.1C436.44,19.37,435.24,14,431.14,9.87Z" transform="translate(8.56)"/><path class="cls-6" d="M400.54,56.77l-.4-.1a6.7,6.7,0,0,0-8.2,5,7.28,7.28,0,0,0,4.3,9l.4.2c3.6,1.2,7.4-1,8.5-5S404.14,57.77,400.54,56.77Z" transform="translate(8.56)"/><path class="cls-7" d="M399.14,2a26.18,26.18,0,0,1,13.3-1.8c6.8.8,12.2,3.1,16.2,7s5.3,9.5,3.5,16.3a19,19,0,0,1-6.1,10.1c-1.7,1.5-4.7,3.2-9,5.2l-4.1,1.9a11,11,0,0,0-5,4.2,26.69,26.69,0,0,0-2.2,5.5l-12-3.3c1.7-5.2,3.1-8.6,4.5-10.4s3.9-3.6,7.8-5.5l4-2a14.24,14.24,0,0,0,3.4-2.2,10.15,10.15,0,0,0,3.4-5.3,10.88,10.88,0,0,0-.3-6.7c-.8-2.1-3.1-3.4-6.6-3.9s-6.1.3-8.1,2.3a15.26,15.26,0,0,0-4.1,6.7L386,18C388.84,9.87,393,4.67,399.14,2Zm-1.3,53.2.4.1a7.26,7.26,0,0,1,4.6,9h0c-1.1,4-5,6.2-8.5,5l-.4-.2a7.28,7.28,0,0,1-4.3-9h0A6.76,6.76,0,0,1,397.84,55.17Z" transform="translate(8.56)"/><path class="cls-10" d="M127,63.67h38.4l3.9,2.5a1.88,1.88,0,0,0,2.9-1.6V37.47a5,5,0,0,0-5-5H127a5,5,0,0,0-5,5v21.2A5,5,0,0,0,127,63.67Z" transform="translate(8.56)"/><line class="cls-16" x1="168.4" y1="41.37" x2="142.8" y2="41.37"/><line class="cls-16" x1="168.4" y1="48.37" x2="142.8" y2="48.37"/><line class="cls-16" x1="168.4" y1="55.37" x2="153.7" y2="55.37"/></g></g></svg>