<svg xmlns="http://www.w3.org/2000/svg" xmlns:xlink="http://www.w3.org/1999/xlink" viewBox="0 0 1219.4 569.08"><defs><style>.cls-1,.cls-12,.cls-15,.cls-16,.cls-18,.cls-20,.cls-4,.cls-6{fill:none;}.cls-2{fill:#eaf9f3;}.cls-3{clip-path:url(#clip-path);}.cls-4,.cls-6{stroke:#88b4e2;}.cls-12,.cls-15,.cls-16,.cls-18,.cls-20,.cls-4,.cls-6{stroke-linecap:round;stroke-linejoin:round;}.cls-12,.cls-15,.cls-16,.cls-18,.cls-20,.cls-4{stroke-width:1.8px;}.cls-5{fill:#88b4e2;}.cls-6{stroke-width:1.8px;}.cls-7{fill:#22272e;}.cls-8{fill:#63737a;}.cls-9{fill:#fff;}.cls-10{fill:#f4c2c9;}.cls-11{fill:#fda53a;}.cls-12{stroke:#63737a;}.cls-13{fill:#f8ab5d;}.cls-14{fill:#5083b9;}.cls-15{stroke:#22272e;}.cls-16{stroke:#000;}.cls-17{fill:#e26e85;}.cls-18{stroke:#e26e85;}.cls-19{clip-path:url(#clip-path-2);}.cls-20{stroke:#f8ab5d;}</style><clipPath id="clip-path" transform="translate(263.96)"><path class="cls-1" d="M591.84,485l-520-14.9a48.07,48.07,0,0,1-46.5-43.3L.24,178.8a48.18,48.18,0,0,1,47.2-53l578.8-8a48.21,48.21,0,0,1,48.5,54.1L641,442.8A48.19,48.19,0,0,1,591.84,485Z"/></clipPath><clipPath id="clip-path-2" transform="translate(263.96)"><path class="cls-1" d="M243.64,174c1.7-9.6,5.3-24.5,40-24.6,29.6-.1,43.3,4.3,50.5,9.8s8,20,5.7,42.7-2.7,36.2-1.4,50.3,7,20.2-.6,27.8a176.93,176.93,0,0,1-49.9,7.2c-28,0-41.9-7.8-42.5-10s-3.3-2.9-.8-8.6,4.2-25.8,2.6-37.9c-.9-7.1-3.5-17.1-4.6-29A109.62,109.62,0,0,1,243.64,174Z"/></clipPath></defs><g id="Layer_2" data-name="Layer 2"><g id="illustration"><path class="cls-2" d="M591.84,485l-520-14.9a48.07,48.07,0,0,1-46.5-43.3L.24,178.8a48.18,48.18,0,0,1,47.2-53l578.8-8a48.21,48.21,0,0,1,48.5,54.1L641,442.8A48.19,48.19,0,0,1,591.84,485Z" transform="translate(263.96)"/><g class="cls-3"><path class="cls-4" d="M167.44,530h-415.5a15,15,0,0,1-15-15V279.4a15,15,0,0,1,15-15h415.5a15,15,0,0,1,15,15V515A15,15,0,0,1,167.44,530Z" transform="translate(263.96)"/><path class="cls-4" d="M716.54,514.2H297.44a15,15,0,0,1-15-15V154.9a15,15,0,0,1,15-15h419.1a15,15,0,0,1,15,15V499.2A15,15,0,0,1,716.54,514.2Z" transform="translate(263.96)"/><path class="cls-4" d="M67.84,194h-89.9v-8.9h89.9a1.79,1.79,0,0,1,1.8,1.8v5.2A1.82,1.82,0,0,1,67.84,194Z" transform="translate(263.96)"/><path class="cls-4" d="M51.54,185.1H31.24a4.32,4.32,0,0,1-4.3-3.8l-1.6-14.4a4.33,4.33,0,0,1,4.3-4.8h23.5a4.34,4.34,0,0,1,4.3,4.8l-1.6,14.4A4.32,4.32,0,0,1,51.54,185.1Z" transform="translate(263.96)"/><path class="cls-5" d="M38.94,162.2s-8-.8-9.6-11.6c0,0,7.2,2.1,9.5,7.2,0,0,1-11.4,6.4-12.5,0,0,2.4,8.5-1.4,12.7,0,0,2.9-4.8,10.3-4.7a13.6,13.6,0,0,1-9.2,8.8" transform="translate(263.96)"/><path class="cls-4" d="M587.24,244.8h-20.3a4.32,4.32,0,0,1-4.3-3.8L561,226.6a4.33,4.33,0,0,1,4.3-4.8h23.5a4.34,4.34,0,0,1,4.3,4.8l-1.6,14.4A4.41,4.41,0,0,1,587.24,244.8Z" transform="translate(263.96)"/><path class="cls-5" d="M574.74,221.8s-8-.8-9.6-11.6c0,0,7.2,2.1,9.5,7.2,0,0,1-11.4,6.4-12.5,0,0,2.4,8.5-1.4,12.7,0,0,2.9-4.8,10.3-4.7a13.6,13.6,0,0,1-9.2,8.8" transform="translate(263.96)"/><path class="cls-4" d="M164.24,314.1H74a4.23,4.23,0,0,1-4.2-4.2V282.5a4.23,4.23,0,0,1,4.2-4.2h90.2a4.23,4.23,0,0,1,4.2,4.2v27.4A4.1,4.1,0,0,1,164.24,314.1Z" transform="translate(263.96)"/><path class="cls-5" d="M129.54,288h-20.8a1.54,1.54,0,0,1-1.5-1.5h0a1.54,1.54,0,0,1,1.5-1.5h20.8a1.54,1.54,0,0,1,1.5,1.5h0A1.54,1.54,0,0,1,129.54,288Z" transform="translate(263.96)"/><path class="cls-4" d="M164.24,359.9H74a4.23,4.23,0,0,1-4.2-4.2V328.3a4.23,4.23,0,0,1,4.2-4.2h90.2a4.23,4.23,0,0,1,4.2,4.2v27.4A4.1,4.1,0,0,1,164.24,359.9Z" transform="translate(263.96)"/><path class="cls-5" d="M129.54,333.8h-20.8a1.54,1.54,0,0,1-1.5-1.5h0a1.54,1.54,0,0,1,1.5-1.5h20.8a1.54,1.54,0,0,1,1.5,1.5h0A1.54,1.54,0,0,1,129.54,333.8Z" transform="translate(263.96)"/><path class="cls-4" d="M627.44,392.3h-90.2a4.23,4.23,0,0,1-4.2-4.2V360.7a4.23,4.23,0,0,1,4.2-4.2h90.2a4.23,4.23,0,0,1,4.2,4.2v27.4A4.1,4.1,0,0,1,627.44,392.3Z" transform="translate(263.96)"/><path class="cls-5" d="M592.74,366.1h-20.8a1.54,1.54,0,0,1-1.5-1.5h0a1.54,1.54,0,0,1,1.5-1.5h20.8a1.54,1.54,0,0,1,1.5,1.5h0A1.47,1.47,0,0,1,592.74,366.1Z" transform="translate(263.96)"/><path class="cls-4" d="M511.64,392.3h-90.2a4.23,4.23,0,0,1-4.2-4.2V360.7a4.23,4.23,0,0,1,4.2-4.2h90.2a4.23,4.23,0,0,1,4.2,4.2v27.4A4.23,4.23,0,0,1,511.64,392.3Z" transform="translate(263.96)"/><path class="cls-5" d="M476.94,366.1h-20.8a1.54,1.54,0,0,1-1.5-1.5h0a1.54,1.54,0,0,1,1.5-1.5h20.8a1.54,1.54,0,0,1,1.5,1.5h0A1.47,1.47,0,0,1,476.94,366.1Z" transform="translate(263.96)"/><path class="cls-4" d="M395,392.3h-90.2a4.23,4.23,0,0,1-4.2-4.2V360.7a4.23,4.23,0,0,1,4.2-4.2H395a4.23,4.23,0,0,1,4.2,4.2v27.4A4.1,4.1,0,0,1,395,392.3Z" transform="translate(263.96)"/><path class="cls-5" d="M360.34,366.1h-20.8a1.54,1.54,0,0,1-1.5-1.5h0a1.54,1.54,0,0,1,1.5-1.5h20.8a1.54,1.54,0,0,1,1.5,1.5h0A1.47,1.47,0,0,1,360.34,366.1Z" transform="translate(263.96)"/><path class="cls-4" d="M49.24,314.1H-41a4.23,4.23,0,0,1-4.2-4.2V282.5a4.23,4.23,0,0,1,4.2-4.2h90.2a4.23,4.23,0,0,1,4.2,4.2v27.4A4.1,4.1,0,0,1,49.24,314.1Z" transform="translate(263.96)"/><path class="cls-5" d="M14.54,288H-6.26a1.54,1.54,0,0,1-1.5-1.5h0a1.54,1.54,0,0,1,1.5-1.5h20.8a1.54,1.54,0,0,1,1.5,1.5h0A1.47,1.47,0,0,1,14.54,288Z" transform="translate(263.96)"/><path class="cls-4" d="M49.24,359.9H-41a4.23,4.23,0,0,1-4.2-4.2V328.3a4.23,4.23,0,0,1,4.2-4.2h90.2a4.23,4.23,0,0,1,4.2,4.2v27.4A4.1,4.1,0,0,1,49.24,359.9Z" transform="translate(263.96)"/><path class="cls-5" d="M14.54,333.8H-6.26a1.54,1.54,0,0,1-1.5-1.5h0a1.54,1.54,0,0,1,1.5-1.5h20.8a1.54,1.54,0,0,1,1.5,1.5h0A1.47,1.47,0,0,1,14.54,333.8Z" transform="translate(263.96)"/><path class="cls-4" d="M758.74,244.8h-455a4.65,4.65,0,0,1-4.6-4.6V160.5a4.65,4.65,0,0,1,4.6-4.6h455a4.65,4.65,0,0,1,4.6,4.6v79.7A4.59,4.59,0,0,1,758.74,244.8Z" transform="translate(263.96)"/><path class="cls-4" d="M758.74,343.7h-455a4.65,4.65,0,0,1-4.6-4.6V259.4a4.65,4.65,0,0,1,4.6-4.6h455a4.65,4.65,0,0,1,4.6,4.6v79.7A4.59,4.59,0,0,1,758.74,343.7Z" transform="translate(263.96)"/><rect class="cls-4" x="593.8" y="194.4" width="9.9" height="50.3"/><rect class="cls-4" x="603.6" y="208.2" width="10.3" height="36.6"/><rect class="cls-4" x="892.1" y="293.3" width="9.9" height="50.3"/><rect class="cls-4" x="902" y="307" width="10.3" height="36.6"/><rect class="cls-4" x="872" y="293.3" width="9.9" height="50.3"/><rect class="cls-6" x="570.76" y="312.62" width="50.3" height="9.9" transform="translate(377.61 790.2) rotate(-72.48)"/><rect class="cls-4" x="881.9" y="307" width="10.3" height="36.6"/><rect class="cls-4" x="758.6" y="194.4" width="9.9" height="50.3"/><rect class="cls-4" x="768.5" y="208.2" width="10.3" height="36.6"/><rect class="cls-4" x="660.8" y="194.4" width="9.9" height="50.3"/><rect class="cls-6" x="359.55" y="213.8" width="50.3" height="9.9" transform="translate(324.23 519.74) rotate(-72.48)"/><rect class="cls-4" x="670.7" y="208.2" width="10.3" height="36.6"/><path class="cls-5" d="M637.94,201l1.1-14.9a1.65,1.65,0,0,0-1.7-1.8h-8.6a1.71,1.71,0,0,0-1.7,1.8l1.1,14.9s-9,5.8-8.9,10.6c.1,3.7,2.3,21.4,3.3,29.2a4.32,4.32,0,0,0,4.3,3.8h12.4a4.32,4.32,0,0,0,4.3-3.8c1-7.8,3.2-25.5,3.3-29.2C646.94,206.8,637.94,201,637.94,201Z" transform="translate(263.96)"/><path class="cls-5" d="M537.74,300.1l1.1-14.9a1.65,1.65,0,0,0-1.7-1.8h-8.6a1.71,1.71,0,0,0-1.7,1.8l1.1,14.9s-9,5.8-8.9,10.6c.1,3.7,2.3,21.4,3.3,29.2a4.32,4.32,0,0,0,4.3,3.8H539a4.32,4.32,0,0,0,4.3-3.8c1-7.8,3.2-25.5,3.3-29.2C546.74,305.9,537.74,300.1,537.74,300.1Z" transform="translate(263.96)"/><line class="cls-4" x1="262.7" y1="448.1" x2="1218.5" y2="448.1"/><path class="cls-4" d="M106.84,264.4H31.34a6.12,6.12,0,0,1-6.1-6.1V242.5a6.12,6.12,0,0,1,6.1-6.1h75.5a6.12,6.12,0,0,1,6.1,6.1v15.8A6.06,6.06,0,0,1,106.84,264.4Z" transform="translate(263.96)"/><line class="cls-4" x1="296.7" y1="241" x2="297.6" y2="241"/><path class="cls-4" d="M98.74,256.8H39.54a5,5,0,0,1,5-5h49.1a5,5,0,0,1,5.1,5Z" transform="translate(263.96)"/><rect class="cls-4" x="311.8" y="215" width="42.6" height="21.5"/></g><path class="cls-7" d="M412.94,309l-39.4-15a2.84,2.84,0,0,1-1.8-2.7h0l63.2-9.2s7.8,13.1,7,13.4S412.94,309,412.94,309Z" transform="translate(263.96)"/><path class="cls-8" d="M371.74,291.4l42.2,14.8,24.2-11.7s-5.3-11.9-5.9-11.8S371.74,291.4,371.74,291.4Z" transform="translate(263.96)"/><path class="cls-7" d="M412.14,306.5l13.8-58.6a6.61,6.61,0,0,1,6.1-5l63.3-1.7a2.44,2.44,0,0,1,2.4,3.1l-12.9,45a6.49,6.49,0,0,1-4.7,4.5l-65,15.6A2.39,2.39,0,0,1,412.14,306.5Z" transform="translate(263.96)"/><ellipse class="cls-8" cx="462.26" cy="271.58" rx="6" ry="3.8" transform="matrix(0.28, -0.96, 0.96, 0.28, 335.3, 638.5)"/><path class="cls-8" d="M512.74,211.6l-144.8-8.1a6.49,6.49,0,0,1-6.1-7.1l12.4-126.5a8.74,8.74,0,0,1,7.9-7.8l151.8-11.6a6.43,6.43,0,0,1,6.9,7.3l-19,146.3A8.75,8.75,0,0,1,512.74,211.6Z" transform="translate(263.96)"/><path class="cls-7" d="M508.74,211.6l-145.5-8.1a6.43,6.43,0,0,1-6.1-7.1l12.4-127.1a8.66,8.66,0,0,1,8-7.8L530,49.8a6.55,6.55,0,0,1,7,7.3l-19.1,147A9,9,0,0,1,508.74,211.6Z" transform="translate(263.96)"/><polygon class="cls-9" points="770 148.9 767.9 165.4 747.3 165 749.2 148.8 770 148.9"/><polygon class="cls-10" points="728.6 148.7 726.7 164.6 705.7 164.3 707.4 148.7 728.6 148.7"/><polygon class="cls-5" points="747.3 165 745.3 181.1 724.8 180.4 726.7 164.6 747.3 165"/><path class="cls-8" d="M400.64,77.2l-17.1,1a1.11,1.11,0,0,1-1.1-1.1l.3-2.9a1.91,1.91,0,0,1,1.6-1.6l17.2-1.1a1,1,0,0,1,1.1,1.1l-.3,3A1.91,1.91,0,0,1,400.64,77.2Z" transform="translate(263.96)"/><path class="cls-5" d="M411.44,111.7l-30.2.9a2.1,2.1,0,0,1-2.1-2.3l1.6-15.8a2.78,2.78,0,0,1,2.6-2.5l30.4-1.5a2,2,0,0,1,2.1,2.3L414,109.2A2.7,2.7,0,0,1,411.44,111.7Z" transform="translate(263.96)"/><path class="cls-11" d="M458,110.3l-33.1,1a2.1,2.1,0,0,1-2.1-2.3l1.8-16.7a2.78,2.78,0,0,1,2.6-2.5l33.4-1.6a2,2,0,0,1,2.1,2.3l-2,17.3A2.88,2.88,0,0,1,458,110.3Z" transform="translate(263.96)"/><path class="cls-10" d="M508.74,108.8l-36.5,1.1a2.05,2.05,0,0,1-2.1-2.3l2.1-17.6a2.87,2.87,0,0,1,2.6-2.5l36.7-1.8a2,2,0,0,1,2.1,2.3l-2.3,18.3A2.78,2.78,0,0,1,508.74,108.8Z" transform="translate(263.96)"/><path class="cls-12" d="M419.14,194.9l75.8,3.4a5.41,5.41,0,0,0,5.5-4.6l8.4-66.2a5.21,5.21,0,0,0-5.3-5.9L426,123.1a5.38,5.38,0,0,0-5.2,4.7l-6.7,61.3A5.25,5.25,0,0,0,419.14,194.9Z" transform="translate(263.96)"/><line class="cls-12" x1="684.1" y1="133.2" x2="772.1" y2="132.3"/><line class="cls-12" x1="709.2" y1="133.6" x2="702.1" y2="195.7"/><line class="cls-12" x1="730.4" y1="133.4" x2="722.9" y2="196.7"/><line class="cls-12" x1="751.1" y1="133.3" x2="743.3" y2="197.6"/><line class="cls-12" x1="707.5" y1="148.7" x2="770" y2="148.9"/><line class="cls-12" x1="705.7" y1="164.3" x2="767.9" y2="165.4"/><line class="cls-12" x1="703.9" y1="179.8" x2="765.8" y2="181.7"/><path class="cls-8" d="M509.34,67.4a3.11,3.11,0,0,1-2.4,2.7c-1.2.1-2-1-1.8-2.4a3.11,3.11,0,0,1,2.4-2.7A1.89,1.89,0,0,1,509.34,67.4Z" transform="translate(263.96)"/><path class="cls-8" d="M499.54,68.1a2.78,2.78,0,0,1-2.4,2.6c-1.2.1-2-1-1.8-2.4a2.78,2.78,0,0,1,2.4-2.6C498.94,65.6,499.74,66.7,499.54,68.1Z" transform="translate(263.96)"/><path class="cls-8" d="M489.94,68.7a2.88,2.88,0,0,1-2.4,2.6c-1.1.1-1.9-1-1.8-2.3a2.88,2.88,0,0,1,2.4-2.6C489.34,66.2,490,67.3,489.94,68.7Z" transform="translate(263.96)"/><path class="cls-13" d="M201.74,191.4l-93.3,7.4c-2.9.2-5.5-2.4-5.7-5.8l-5.5-86.4c-.2-3.4,2.3-6.5,5.2-6.2l89.9,9a6.2,6.2,0,0,1,5.5,5.7l7.3,72.1A3.63,3.63,0,0,1,201.74,191.4Z" transform="translate(263.96)"/><path class="cls-11" d="M206.24,190.6l-94.4,7.5c-3,.2-5.6-2.4-5.8-5.8l-5.4-86.9c-.2-3.5,2.4-6.6,5.3-6.3l91,8.9a6.29,6.29,0,0,1,5.6,5.7l7.4,72.5A4.19,4.19,0,0,1,206.24,190.6Z" transform="translate(263.96)"/><path class="cls-7" d="M143.94,180.5l-21.6,1a3.07,3.07,0,0,1-3-3l-4-58.7c-.1-1.6,1.1-3.1,2.5-3l21.3,1.5a2.93,2.93,0,0,1,2.6,2.9l4.5,56.4A2.69,2.69,0,0,1,143.94,180.5Z" transform="translate(263.96)"/><path class="cls-14" d="M145.84,179.6l-21.7,1.1a3.07,3.07,0,0,1-3-3l-4-58.9c-.1-1.6,1.1-3.1,2.5-3l21.4,1.5a2.93,2.93,0,0,1,2.6,2.9l4.5,56.6A2.65,2.65,0,0,1,145.84,179.6Z" transform="translate(263.96)"/><line class="cls-15" x1="392.1" y1="120.3" x2="395.4" y2="120.5"/><line class="cls-15" x1="397.2" y1="120.6" x2="397.5" y2="120.6"/><line class="cls-15" x1="381.4" y1="123.4" x2="408" y2="124.9"/><line class="cls-15" x1="384.8" y1="173.1" x2="411.7" y2="172.2"/><path class="cls-14" d="M189.34,121.3l-21-1.6a2,2,0,0,0-2.2,2.2l.7,8.2a2.06,2.06,0,0,0,2,1.9l21,.8a2.08,2.08,0,0,0,2.2-2.3l-.7-7.4A2.35,2.35,0,0,0,189.34,121.3Z" transform="translate(263.96)"/><path class="cls-14" d="M173.34,142.3a2.36,2.36,0,0,1-2.5,2.5,3,3,0,0,1-3-2.6,2.39,2.39,0,0,1,2.6-2.5A3,3,0,0,1,173.34,142.3Z" transform="translate(263.96)"/><line class="cls-12" x1="441.9" y1="142.4" x2="456.2" y2="142.6"/><path class="cls-14" d="M174.14,151.1a2.49,2.49,0,0,1-2.5,2.6,3,3,0,0,1-3-2.5,2.46,2.46,0,0,1,2.6-2.6A2.92,2.92,0,0,1,174.14,151.1Z" transform="translate(263.96)"/><line class="cls-12" x1="442.7" y1="151" x2="456.9" y2="150.8"/><path class="cls-14" d="M174.94,159.8a2.49,2.49,0,0,1-2.5,2.6,2.79,2.79,0,0,1-3-2.4,2.46,2.46,0,0,1,2.6-2.6A2.82,2.82,0,0,1,174.94,159.8Z" transform="translate(263.96)"/><line class="cls-12" x1="443.4" y1="159.6" x2="457.6" y2="159"/><path class="cls-14" d="M158.94,255.1c-1.3,0,4.5-13.8,10.5-11.9S166.54,255.2,158.94,255.1Z" transform="translate(263.96)"/><path class="cls-14" d="M159.64,257s-6.5-8.2-13-6.3S148.24,261.8,159.64,257Z" transform="translate(263.96)"/><path class="cls-14" d="M157.74,248.8s9.7-16.7,5.6-20.7C156,221,146.84,242,157.74,248.8Z" transform="translate(263.96)"/><path class="cls-7" d="M173.94,286.8l-14.2,3.2a8.39,8.39,0,0,1-9.6-5l-6.5-15.6a5.27,5.27,0,0,1,3.7-7.2l25.8-5.8a5.23,5.23,0,0,1,6.4,4.9l.8,16.8A8.1,8.1,0,0,1,173.94,286.8Z" transform="translate(263.96)"/><path class="cls-16" d="M160.54,260.5s-4.5-13.7-2.8-20.1" transform="translate(263.96)"/><path class="cls-10" d="M211.14,317.1s-.6,6.9-2.2,11-4.4,9.1-3.5,16,7.5,17,10.1,16.7,1.2-4.7,1.2-4.7,2.6,3.7,5.1,2.6-.9-9.1-.9-9.1,3.1,5,5.9,4.4-2.8-8.5-2.8-8.5,3.7,4.1,4.7,3.5,1.9-.3,0-5,1.2-20,1.1-23.5S216.14,313.9,211.14,317.1Z" transform="translate(263.96)"/><path class="cls-11" d="M248.24,331l19.5,40.8a3.21,3.21,0,0,1-1.5,4.3l-57.9,29.2a3.22,3.22,0,0,1-4.5-1.7l-21.7-55.8a3.24,3.24,0,0,1,2.3-4.3l60.1-14.2A3.12,3.12,0,0,1,248.24,331Z" transform="translate(263.96)"/><path class="cls-14" d="M220.74,376.5l3.2,7.7a1.87,1.87,0,0,1-1,2.5l-8.2,3.7a1.9,1.9,0,0,1-2.6-1l-3.3-8.1a1.92,1.92,0,0,1,1.1-2.5l8.2-3.3A2.12,2.12,0,0,1,220.74,376.5Z" transform="translate(263.96)"/><line class="cls-12" x1="468.4" y1="370.4" x2="460.2" y2="350.1"/><line class="cls-12" x1="474.5" y1="368.2" x2="466.3" y2="348.4"/><path class="cls-10" d="M239,369.1l3,6.8a1.87,1.87,0,0,1-1,2.5l-6.4,2.9a2,2,0,0,1-2.6-1l-3.1-7.1a2,2,0,0,1,1-2.6l6.5-2.6A2.18,2.18,0,0,1,239,369.1Z" transform="translate(263.96)"/><line class="cls-12" x1="488.6" y1="363.1" x2="480.6" y2="344.5"/><line class="cls-12" x1="493.8" y1="361.2" x2="485.8" y2="343.1"/><polygon class="cls-16" points="518 361.1 522.4 370.5 513.9 374.4 509.4 364.6 518 361.1"/><line class="cls-12" x1="505.9" y1="356.9" x2="498.1" y2="339.8"/><line class="cls-12" x1="510.3" y1="355.3" x2="502.6" y2="338.6"/><path class="cls-10" d="M230.64,319.4a47.43,47.43,0,0,0,1.6,9.1,86,86,0,0,1,2.2,15.6c.1,2.7-4,1.8-6.3-2.4s-3.4-5.4-5.4-6.5a9.17,9.17,0,0,1-5-6C216.54,325.5,227.24,315.3,230.64,319.4Z" transform="translate(263.96)"/><path class="cls-14" d="M263.34,153.6c-5.7,0-21.1,2.2-34.3,31.7-11,24.5-17.4,38.2-19,49.3s-2.9,37.6-1.8,57,2,27.6,2,27.6,9,5.9,20.9,0c0,0,3.1-23.8,5.5-37.8s3.3-28.1,2.7-34.4c0,0,15.7-27.6,22.7-38.6C269.24,197.4,295.54,153.6,263.34,153.6Z" transform="translate(263.96)"/><path class="cls-16" d="M209.64,311.7a26.32,26.32,0,0,0,22.5,0" transform="translate(263.96)"/><path class="cls-16" d="M210.44,231.9a8.62,8.62,0,0,1,7-5.4c6.8-1,10.6,5.9,9,14.1s-7.8,12.3-12.8,11.4a5.88,5.88,0,0,1-4.5-3.7" transform="translate(263.96)"/><path class="cls-12" d="M340,545.8a14.54,14.54,0,0,1,5.8-10c5.4-3.8,11.6,3.2-2.5,8.9" transform="translate(263.96)"/><path class="cls-12" d="M345.34,543.9s5.8-2.7,8.8.7-5.5,5.7-10,2.7" transform="translate(263.96)"/><path class="cls-12" d="M253.24,545.8s8.5-9.9,15.9-10-1,8.2-10.3,11.1" transform="translate(263.96)"/><path class="cls-12" d="M259.64,545.8s10.4-4,11.7,0-11,2.9-11,2.9" transform="translate(263.96)"/><path class="cls-10" d="M315,519.8s-.4,17.8,0,22.7,9.4,8,16.6,5.7,7.4-7,7.4-7,1.6-21.5,1.6-25.6S315.14,511.7,315,519.8Z" transform="translate(263.96)"/><path class="cls-7" d="M315,519.8s-.1,4.3-.1,9.3c8.1,3.1,18,2.1,25,.9.4-6,.8-12.5.8-14.6C340.64,511.4,315.14,511.7,315,519.8Z" transform="translate(263.96)"/><path class="cls-7" d="M314.84,539.5s-1.4-.2-2.8,10.4-2.5,17,1.7,17.8,44.1,0,48.4,0,7.2-2.3,7-5.1-11-7.2-16-11.2-12.3-8.8-13.1-11.5c-1.4-4.5-4.2-6.2-6.6-.4-1.9,4.5-6.9,5-13.1,4.2A6.42,6.42,0,0,1,314.84,539.5Z" transform="translate(263.96)"/><path class="cls-12" d="M354.64,552.5s-8.3,1.8-7.1,12.1" transform="translate(263.96)"/><path class="cls-10" d="M233.54,516.4s-2.2,22.1-2,25.1,9.8,3.9,16,3.1,7-2.7,7-2.7,4.9-20.7,4.9-25.4S235.54,510.6,233.54,516.4Z" transform="translate(263.96)"/><path class="cls-7" d="M233.54,516.4s-.4,3.9-.8,8.7c8.1,3.8,16.4,4.1,24.9,3.4,1-5,1.9-10,1.9-12C259.64,511.7,235.54,510.6,233.54,516.4Z" transform="translate(263.96)"/><path class="cls-7" d="M231.64,535.8a66.09,66.09,0,0,0-2.3,10c-.6,4.7-4.9,20.1-2,22.3s44.4,0,48,0,8.1-2.2,7.6-6.1-8.2-5.5-13.8-9.4a120.66,120.66,0,0,1-12.8-11.1s1.2-6,.2-7.7-4.1,5.1-6.3,5.9-6.9,1.5-14.4,0A5.34,5.34,0,0,1,231.64,535.8Z" transform="translate(263.96)"/><path class="cls-12" d="M269.14,552.5s-7,2.4-7.9,12.1" transform="translate(263.96)"/><path class="cls-7" d="M338.14,273s3.5,12.1,5.5,37.2,4.7,70.9,5.5,79.9.8,32.9-1.6,61.8-1.2,52.8-.4,58.3-3.1,10.2-7,11.7-21.5,1.6-25.1,0c0,0-8.6-4.7-7.4-12.9s1.6-24.7-2.3-55.2,0-52.5,0-52.5-4.5-13.8-9.6-28.1c-1.8-5.1-3.7-10.3-5.4-15a116.89,116.89,0,0,0-6.2-14.5c-5.1-8.6-9-46.2-3.1-65.8C286.84,258.5,328.34,258.5,338.14,273Z" transform="translate(263.96)"/><path class="cls-7" d="M246.54,271.8s-10.2,27.4-7.4,58.7,8.6,67.7,7.4,70.5-5.5,16.8-9.8,48.1-13.7,55.2-11.4,61.1,8.8,9,10.5,9.4,19.7,2.3,24,1.6,11-7.8,11-16,.8-25.8,9-54,11.1-36.5,14-49.4,5.6-81.3,5.6-81.3,7.3-34.1-15.9-41.1C260.34,272.2,246.54,271.8,246.54,271.8Z" transform="translate(263.96)"/><path class="cls-12" d="M268.84,342.5s16.3-2.6,22.2,1.6" transform="translate(263.96)"/><path class="cls-12" d="M245.94,296.5s9.9,3.5,26.9,5.2c0,0-1.8,17.6-2.9,21.3s-8.6,6.9-14.2,6.9c-5.2,0-10.9-5.7-12.1-9.9C242.14,314.3,245.94,296.5,245.94,296.5Z" transform="translate(263.96)"/><path class="cls-12" d="M292,301.9s16.8,1.8,29.3-2.8c0,0,1.9,18.9,1.6,22s-7.3,8.9-12.5,10.1c-4.4,1-11.6-2.3-15-5.3S292,301.9,292,301.9Z" transform="translate(263.96)"/><path class="cls-12" d="M344.64,325s-7.9-4.8-8.7-26" transform="translate(263.96)"/><path class="cls-12" d="M295.64,373.3c-1.8-5.1-3.7-10.3-5.4-15a116.89,116.89,0,0,0-6.2-14.5" transform="translate(263.96)"/><path class="cls-12" d="M255.44,399.9s12.1-2.7,19.4,0" transform="translate(263.96)"/><path class="cls-12" d="M305.24,401.4a26,26,0,0,1,12.2-1.4" transform="translate(263.96)"/><path class="cls-12" d="M237.14,523.1s-.4,3.5-.4,4.3" transform="translate(263.96)"/><path class="cls-12" d="M244.84,524.8s-.2,3.7-.4,4.4" transform="translate(263.96)"/><path class="cls-12" d="M254.64,525.2s-.5,3.5-.6,4" transform="translate(263.96)"/><path class="cls-12" d="M318.74,526.3V531" transform="translate(263.96)"/><path class="cls-12" d="M327.74,526.6a42.3,42.3,0,0,1-.6,4.9" transform="translate(263.96)"/><path class="cls-12" d="M336.84,526.6s-.2,3-.3,4.3" transform="translate(263.96)"/><ellipse class="cls-16" cx="579.6" cy="112.4" rx="7.2" ry="8.7"/><path class="cls-10" d="M315.54,92.8s2.6,4.6,1.8,14.5,1.4,18.1.2,24.6a13.94,13.94,0,0,1-9.3,10.6c-2.7.8-16.7,2.7-23.6-6.5s-13.2-36.3-2-41.5S310.84,87.5,315.54,92.8Z" transform="translate(263.96)"/><path class="cls-10" d="M317.44,131.9c1.3-6.6-1.1-14.6-.2-24.6s-1.8-14.5-1.8-14.5c-4.7-5.3-21.6-3.4-32.9,1.8-8.5,3.9-6.9,20.4-2.7,32.1,8.1,9,19.7,14.7,32.1,12.8a7.17,7.17,0,0,0,1.3-.1A12.84,12.84,0,0,0,317.44,131.9Z" transform="translate(263.96)"/><path class="cls-17" d="M279.94,126.7a39.09,39.09,0,0,0,4.7,9.4c6.9,9.2,20.8,7.2,23.6,6.5a14.84,14.84,0,0,0,5.1-3C312.74,139.5,302.14,146.2,279.94,126.7Z" transform="translate(263.96)"/><line class="cls-16" x1="574.8" y1="112.3" x2="586.8" y2="111.9"/><path class="cls-10" d="M296.54,136.7s5.2,1.9,8.3,5.3c0,0-1,5.8-.6,8.7s-3.8,9.1-12.9,8.6-16.9-7.4-16.9-7.4,1.1-12.6,2.6-16.3S296.54,136.7,296.54,136.7Z" transform="translate(263.96)"/><path class="cls-18" d="M302.14,139.6h0a5.61,5.61,0,0,1,2.3,5.2,29.08,29.08,0,0,0-.2,5.8" transform="translate(263.96)"/><path class="cls-7" d="M310.14,112.9a8.52,8.52,0,0,0,2.9-4.2c.7-2.6,1.1-4.6,1.1-4.6a11.39,11.39,0,0,0,3.2,2c1.9.7,6.8-4.5,7.5-11.6s-2.6-14.5-10.7-17.6c-3.1-1.2-7.8-1.4-12.5-1.1a39.44,39.44,0,0,0-18.5,6.1,11.5,11.5,0,0,1-4.4,1.6c-5.8.8-9.4,3.1-12.8,11.2s-3.8,14.3.8,24,6,10.3,6.7,14.3-.2,8.5,3,7.8c8.8-2,17.8.5,19.9-.8s9.1-13.7,9.9-19.7S308.84,112.2,310.14,112.9Z" transform="translate(263.96)"/><path class="cls-10" d="M311.44,113.5s-2.1-5.6-6.1-3.9c-5.4,2.3-2.1,11.8,3.1,13.4" transform="translate(263.96)"/><path d="M305.54,114.5a2.23,2.23,0,0,1,0-1.4,1.53,1.53,0,0,1,.5-.7,1.39,1.39,0,0,1,1.5-.3,1,1,0,0,1,.5.4c.1.1.2.3.3.4s.1.3.2.4a3.18,3.18,0,0,1,.2,1.3c.1.8,0,1.6.1,2.1s.5.9,1.4,1.1a1.48,1.48,0,0,1-1.3.4,2.16,2.16,0,0,1-1.4-.9,6.9,6.9,0,0,1-.6-2.6c0-.4-.1-.8-.1-1v-.3h.1c-.1-.1-.3-.1-.6.1A2.54,2.54,0,0,0,305.54,114.5Z" transform="translate(263.96)"/><path class="cls-14" d="M273.54,150.7s.9-6.4,1.5-7.5,15.6-2.2,24.2,0,7.8,9.5,7.8,9.5S291.54,150.9,273.54,150.7Z" transform="translate(263.96)"/><path class="cls-11" d="M243.64,174c1.7-9.6,5.3-24.5,40-24.6,29.6-.1,43.3,4.3,50.5,9.8s8,20,5.7,42.7-2.7,36.2-1.4,50.3,7,20.2-.6,27.8a176.93,176.93,0,0,1-49.9,7.2c-28,0-41.9-7.8-42.5-10s-3.3-2.9-.8-8.6,4.2-25.8,2.6-37.9S239.44,198.1,243.64,174Z" transform="translate(263.96)"/><g class="cls-19"><rect class="cls-13" x="248.94" y="286.94" width="5.1" height="5.1" transform="translate(132.67 266.44) rotate(-45.57)"/><rect class="cls-13" x="248.76" y="270.36" width="5.1" height="5.1" transform="translate(144.46 261.33) rotate(-45.57)"/><rect class="cls-13" x="248.51" y="253.71" width="5.1" height="5.1" transform="translate(156.27 256.16) rotate(-45.57)"/><rect class="cls-13" x="248.4" y="237.06" width="5.1" height="5.1" transform="translate(168.13 251.09) rotate(-45.57)"/><rect class="cls-13" x="248.22" y="220.48" width="5.1" height="5.1" transform="translate(179.91 245.99) rotate(-45.57)"/><rect class="cls-13" x="263.82" y="286.79" width="5.1" height="5.1" transform="translate(137.24 277.02) rotate(-45.57)"/><rect class="cls-13" x="263.71" y="270.14" width="5.1" height="5.1" transform="translate(149.09 271.95) rotate(-45.57)"/><rect class="cls-13" x="263.53" y="253.57" width="5.1" height="5.1" transform="translate(160.88 266.85) rotate(-45.57)"/><rect class="cls-13" x="263.35" y="236.99" width="5.1" height="5.1" transform="translate(172.66 261.74) rotate(-45.57)"/><rect class="cls-13" x="263.24" y="220.34" width="5.1" height="5.1" transform="translate(184.52 256.67) rotate(-45.57)"/><rect class="cls-13" x="278.85" y="286.65" width="5.1" height="5.1" transform="translate(141.85 287.71) rotate(-45.57)"/><rect class="cls-13" x="278.67" y="270.07" width="5.1" height="5.1" transform="translate(153.63 282.6) rotate(-45.57)"/><rect class="cls-13" x="278.49" y="253.35" width="5.1" height="5.1" transform="translate(165.52 277.46) rotate(-45.57)"/><rect class="cls-13" x="278.31" y="236.77" width="5.1" height="5.1" transform="translate(177.3 272.36) rotate(-45.57)"/><rect class="cls-13" x="278.13" y="220.2" width="5.1" height="5.1" transform="translate(189.09 267.26) rotate(-45.57)"/><rect class="cls-13" x="293.73" y="286.51" width="5.1" height="5.1" transform="translate(146.41 298.29) rotate(-45.57)"/><rect class="cls-13" x="293.62" y="269.86" width="5.1" height="5.1" transform="translate(158.27 293.22) rotate(-45.57)"/><rect class="cls-13" x="293.44" y="253.28" width="5.1" height="5.1" transform="translate(170.05 288.11) rotate(-45.57)"/><rect class="cls-13" x="293.26" y="236.7" width="5.1" height="5.1" transform="translate(181.84 283.01) rotate(-45.57)"/><rect class="cls-13" x="293.15" y="220.05" width="5.1" height="5.1" transform="translate(193.7 277.94) rotate(-45.57)"/><rect class="cls-13" x="308.75" y="286.37" width="5.1" height="5.1" transform="translate(151.02 308.97) rotate(-45.57)"/><rect class="cls-13" x="308.57" y="269.79" width="5.1" height="5.1" transform="translate(162.8 303.87) rotate(-45.57)"/><rect class="cls-13" x="308.39" y="253.07" width="5.1" height="5.1" transform="translate(174.69 298.73) rotate(-45.57)"/><rect class="cls-13" x="308.21" y="236.49" width="5.1" height="5.1" transform="translate(186.48 293.63) rotate(-45.57)"/><rect class="cls-13" x="308.03" y="219.91" width="5.1" height="5.1" transform="translate(198.26 288.52) rotate(-45.57)"/><rect class="cls-13" x="323.7" y="286.15" width="5.1" height="5.1" transform="translate(155.66 319.59) rotate(-45.57)"/><rect class="cls-13" x="323.52" y="269.57" width="5.1" height="5.1" transform="translate(167.44 314.49) rotate(-45.57)"/><rect class="cls-13" x="323.34" y="253" width="5.1" height="5.1" transform="translate(179.23 309.38) rotate(-45.57)"/><rect class="cls-13" x="323.23" y="236.35" width="5.1" height="5.1" transform="translate(191.08 304.31) rotate(-45.57)"/><rect class="cls-13" x="323.05" y="219.77" width="5.1" height="5.1" transform="translate(202.87 299.21) rotate(-45.57)"/><rect class="cls-13" x="338.65" y="286.08" width="5.1" height="5.1" transform="translate(160.19 330.24) rotate(-45.57)"/><rect class="cls-13" x="338.54" y="269.43" width="5.1" height="5.1" transform="translate(172.05 325.17) rotate(-45.57)"/><rect class="cls-13" x="338.29" y="252.78" width="5.1" height="5.1" transform="translate(183.86 320) rotate(-45.57)"/><rect class="cls-13" x="338.11" y="236.2" width="5.1" height="5.1" transform="translate(195.65 314.9) rotate(-45.57)"/><rect class="cls-13" x="338" y="219.55" width="5.1" height="5.1" transform="translate(207.51 309.82) rotate(-45.57)"/><rect class="cls-13" x="248.04" y="203.9" width="5.1" height="5.1" transform="translate(191.7 240.88) rotate(-45.57)"/><rect class="cls-13" x="247.93" y="187.25" width="5.1" height="5.1" transform="translate(203.56 235.81) rotate(-45.57)"/><rect class="cls-13" x="247.75" y="170.67" width="5.1" height="5.1" transform="translate(215.34 230.71) rotate(-45.57)"/><rect class="cls-13" x="247.57" y="154.09" width="5.1" height="5.1" transform="translate(227.13 225.61) rotate(-45.57)"/><rect class="cls-13" x="262.99" y="203.69" width="5.1" height="5.1" transform="translate(196.34 251.5) rotate(-45.57)"/><rect class="cls-13" x="262.81" y="187.11" width="5.1" height="5.1" transform="translate(208.12 246.4) rotate(-45.57)"/><rect class="cls-13" x="262.7" y="170.46" width="5.1" height="5.1" transform="translate(219.98 241.32) rotate(-45.57)"/><rect class="cls-13" x="262.52" y="153.88" width="5.1" height="5.1" transform="translate(231.76 236.22) rotate(-45.57)"/><rect class="cls-13" x="278.02" y="203.55" width="5.1" height="5.1" transform="translate(200.94 262.18) rotate(-45.57)"/><rect class="cls-13" x="277.84" y="186.97" width="5.1" height="5.1" transform="translate(212.73 257.08) rotate(-45.57)"/><rect class="cls-13" x="277.66" y="170.39" width="5.1" height="5.1" transform="translate(224.51 251.98) rotate(-45.57)"/><rect class="cls-13" x="277.55" y="153.74" width="5.1" height="5.1" transform="translate(236.37 246.91) rotate(-45.57)"/><rect class="cls-13" x="292.97" y="203.47" width="5.1" height="5.1" transform="translate(205.48 272.84) rotate(-45.57)"/><rect class="cls-13" x="292.79" y="186.75" width="5.1" height="5.1" transform="translate(217.37 267.69) rotate(-45.57)"/><rect class="cls-13" x="292.61" y="170.18" width="5.1" height="5.1" transform="translate(229.15 262.59) rotate(-45.57)"/><rect class="cls-13" x="292.43" y="153.6" width="5.1" height="5.1" transform="translate(240.94 257.49) rotate(-45.57)"/><rect class="cls-13" x="307.92" y="203.26" width="5.1" height="5.1" transform="translate(210.12 283.45) rotate(-45.57)"/><rect class="cls-13" x="307.74" y="186.68" width="5.1" height="5.1" transform="translate(221.9 278.35) rotate(-45.57)"/><rect class="cls-13" x="307.56" y="170.1" width="5.1" height="5.1" transform="translate(233.69 273.25) rotate(-45.57)"/><rect class="cls-13" x="307.45" y="153.45" width="5.1" height="5.1" transform="translate(245.54 268.17) rotate(-45.57)"/><rect class="cls-13" x="322.87" y="203.19" width="5.1" height="5.1" transform="translate(214.65 294.11) rotate(-45.57)"/><rect class="cls-13" x="322.69" y="186.47" width="5.1" height="5.1" transform="translate(226.54 288.96) rotate(-45.57)"/><rect class="cls-13" x="322.51" y="169.89" width="5.1" height="5.1" transform="translate(238.32 283.86) rotate(-45.57)"/><rect class="cls-13" x="322.33" y="153.31" width="5.1" height="5.1" transform="translate(250.11 278.76) rotate(-45.57)"/><rect class="cls-13" x="337.82" y="202.98" width="5.1" height="5.1" transform="translate(219.29 304.72) rotate(-45.57)"/><rect class="cls-13" x="337.64" y="186.4" width="5.1" height="5.1" transform="translate(231.08 299.62) rotate(-45.57)"/><rect class="cls-13" x="337.53" y="169.75" width="5.1" height="5.1" transform="translate(242.93 294.55) rotate(-45.57)"/><rect class="cls-13" x="337.35" y="153.17" width="5.1" height="5.1" transform="translate(254.72 289.44) rotate(-45.57)"/></g><path class="cls-10" d="M379.34,149.5s2.3-7.5,2-10.2-2.5-8.7-3.5-10.9-.2-8.4-.4-11.5,3.4-2.3,4.4.8a14,14,0,0,0,2.2,4.5s3.9-9,4.5-11.5,2.2-10.5,4.6-12.4,3.3.1,2,5.5a23.08,23.08,0,0,0-.8,6.1c0,.3,2.9.8,4.1,2.5a12.73,12.73,0,0,1,.9,3.3,5.4,5.4,0,0,1,2.4.6c.7.4,1.5,1.7,2.2,2.3a13,13,0,0,1,1.9,2.2c.9,1.3,1.6,3.9-1.1,14.9-1.5,6-4.2,8.1-6.2,22.1C396.24,171.8,377.34,158.4,379.34,149.5Z" transform="translate(263.96)"/><path class="cls-8" d="M380.94,142.8c-.6,3.1-1.6,6.6-1.6,6.6-2,8.9,16.9,22.3,19,8.3.5-3.6,1.1-6.5,1.6-8.8C395,143.8,388.54,140.9,380.94,142.8Z" transform="translate(263.96)"/><ellipse class="cls-9" cx="393.35" cy="147.12" rx="4.5" ry="4.9" transform="translate(238.84 182.56) rotate(-25.35)"/><path class="cls-14" d="M331.14,157.3s7.9,0,19.1,15.1,13.5,19,13.5,19a211.8,211.8,0,0,1,7-20.2,168.08,168.08,0,0,0,6.4-20.1,5,5,0,0,1,3.7-3.7c4.1-.9,11.5-1,17.8,8.2a5.2,5.2,0,0,1,.8,3.6c-1,5.8-3.9,23.7-6.3,41.1-2.9,21.1-4.5,38.9-18.8,40.7-10.3,1.3-25.3-12.2-35.8-22.7-4.1-4.1-7.5-7.8-9.6-10-5.3-5.4-13.6-15.9-13.6-31C315.34,160.7,327.64,156.3,331.14,157.3Z" transform="translate(263.96)"/><path class="cls-20" d="M338.54,218.4c-4.1-4.1-7.5-7.8-9.6-10-5.3-5.4-13.6-15.9-13.6-31" transform="translate(263.96)"/><path class="cls-16" d="M363.74,191.3s12.9,16.8,16,24.9" transform="translate(263.96)"/><path class="cls-16" d="M367.94,240.1c-.7-.5-1.5-1.5-1.4-3.6.2-3.8,4-9.9,11.2-11.4,6.1-1.3,9.2.6,9.8,2.6" transform="translate(263.96)"/><path class="cls-16" d="M376.34,154.1s12.8-5.6,22.3,9.7" transform="translate(263.96)"/><path class="cls-18" d="M394.14,109.8s-.2,3.4-.3,4-1,4.3-1.1,5.7" transform="translate(263.96)"/><path class="cls-18" d="M399.14,115.6v2.9a25.83,25.83,0,0,1-.5,3.4" transform="translate(263.96)"/><path class="cls-18" d="M403.44,118.7a16.58,16.58,0,0,1,.3,2.7,32.06,32.06,0,0,1-.5,3.9" transform="translate(263.96)"/><path class="cls-18" d="M383.94,122.1a9.89,9.89,0,0,1-1.3,2.3" transform="translate(263.96)"/><path class="cls-14" d="M333.34,12.4s-6.1,24.3,2.9,40.7a2.65,2.65,0,0,0,3.6,1.1L352,47.4l-4.9-36.8Z" transform="translate(263.96)"/><path class="cls-11" d="M336,12.9s-5.8,24.1,8.2,41.7a2.74,2.74,0,0,0,3.5.6L363,46,350.44,9.2C350.34,9.3,338,9.9,336,12.9Z" transform="translate(263.96)"/><polygon class="cls-5" points="597.3 12.4 603.1 13.6 635.8 1 629.6 0 597.3 12.4"/><path class="cls-14" d="M371.84,1s.5,16,19.7,28.1a2.62,2.62,0,0,1,0,4.5l-30.6,18.1a2.68,2.68,0,0,1-2.6.1c-19.5-10.3-19.2-38.3-19.2-38.3Z" transform="translate(263.96)"/><path class="cls-11" d="M363.44,21.2a3.63,3.63,0,0,0-.9-.8,3,3,0,0,0-4.2,3.1,12.08,12.08,0,0,0,1.1,3.5,4.36,4.36,0,0,1,1.2-1.9,8.53,8.53,0,0,1,2.1-1.4,8.91,8.91,0,0,1,5.5-.7,7.2,7.2,0,0,1,4.4,2.8,6.56,6.56,0,0,1,1.2,5.1c-.3,1.9-1.7,3.6-4.4,5a8.52,8.52,0,0,1-8.2,0,12.38,12.38,0,0,1-4.9-5.4,17.42,17.42,0,0,1-1.6-3.6,8.91,8.91,0,0,1-.5-4.4,5.92,5.92,0,0,1,1.3-2.9,7.66,7.66,0,0,1,3-2.1,8.67,8.67,0,0,1,5.1-.7,5.86,5.86,0,0,1,3.8,2.3C365.84,20,365,20.4,363.44,21.2Zm1.1,12.3a4.74,4.74,0,0,0,3.1-.2,3,3,0,0,0,1.7-2,3.36,3.36,0,0,0-.7-2.6,4.07,4.07,0,0,0-2.4-1.8,4.15,4.15,0,0,0-2.7.2,3.17,3.17,0,0,0-1.6,1.4,3,3,0,0,0,.3,3.1A4.35,4.35,0,0,0,364.54,33.5Z" transform="translate(263.96)"/><path class="cls-10" d="M232.74,73.3h33l3.4,2.2a1.63,1.63,0,0,0,2.5-1.4V50.8a4.27,4.27,0,0,0-4.3-4.3h-34.6a4.27,4.27,0,0,0-4.3,4.3V69A4.27,4.27,0,0,0,232.74,73.3Z" transform="translate(263.96)"/><polyline class="cls-15" points="502.2 55.8 503.9 57.5 507.2 54.2"/><line class="cls-15" x1="512.3" y1="56.3" x2="523.9" y2="56.3"/><polyline class="cls-15" points="502.2 63.9 503.9 65.6 507.2 62.3"/><line class="cls-15" x1="512.3" y1="64.4" x2="523.9" y2="64.4"/><path class="cls-7" d="M387.34,362.9l-3,3.2a1.27,1.27,0,0,0,0,1.8h0a1.24,1.24,0,0,0,1.7.2l3.5-2.1Z" transform="translate(263.96)"/><path class="cls-7" d="M414,370.7l.8,4.3a1.33,1.33,0,0,1-1,1.5h0a1.23,1.23,0,0,1-1.5-.7l-1.8-3.7Z" transform="translate(263.96)"/><circle class="cls-14" cx="668.2" cy="354.5" r="19.9"/><circle class="cls-11" cx="668.2" cy="354.5" r="12.8"/><polyline class="cls-12" points="671.8 359.1 668.2 354.5 670.1 348.1"/><path class="cls-14" d="M391.54,335.3a1,1,0,0,1-1.3-.7,5.8,5.8,0,0,1,3.6-6.3,5.68,5.68,0,0,1,6.9,2.3,1,1,0,0,1-.5,1.4Z" transform="translate(263.96)"/><path class="cls-14" d="M425.24,345.1a.94.94,0,0,0,1.5.1,5.75,5.75,0,0,0-6.8-9,1,1,0,0,0-.3,1.5Z" transform="translate(263.96)"/><path class="cls-14" d="M413.24,333.1l-5.2-1.5a1.58,1.58,0,0,1-1.1-2h0a1.58,1.58,0,0,1,2-1.1l5.2,1.5a1.58,1.58,0,0,1,1.1,2h0A1.51,1.51,0,0,1,413.24,333.1Z" transform="translate(263.96)"/><rect class="cls-14" x="407.64" y="332" width="5.1" height="3.9" transform="translate(239.01 634.69) rotate(-73.8)"/></g></g></svg>